<svg xmlns="http://www.w3.org/2000/svg" width="117" height="99.118" viewBox="0 0 117 99.118">
  <g id="Group_5575" data-name="Group 5575" transform="translate(-911 -257.882)">
    <text id="Sign_up" data-name="Sign up" transform="translate(911 349)" fill="#fff" font-size="30" font-family="Montserrat-Medium, Montserrat" font-weight="500"><tspan x="0" y="0">Sign up</tspan></text>
    <g id="Group_5574" data-name="Group 5574" transform="translate(336.192 -44.869)">
      <path id="Path_4718" data-name="Path 4718" d="M608.808,499.653c.211-1.254.364-2.522.643-3.761a24.365,24.365,0,0,1,47.637.693,31.383,31.383,0,0,1,.456,4.324c.085,1.4-.425,1.88-1.815,1.881q-9.807.005-19.615.006-12.713,0-25.426,0a1.841,1.841,0,0,1-1.88-1.033Zm45.937.268c-.848-7.906-4.531-13.947-11.529-17.582-7.655-3.977-15.286-3.455-22.4,1.436-5.588,3.842-8.529,9.34-9.157,16.146Z" transform="translate(0 -140.93)" fill="#fff"/>
      <path id="Path_4719" data-name="Path 4719" d="M690.815,316.877a14.1,14.1,0,1,1-14.037-14.126A14.122,14.122,0,0,1,690.815,316.877ZM676.687,305.6a11.29,11.29,0,1,0,11.307,11.256A11.281,11.281,0,0,0,676.687,305.6Z" transform="translate(-43.515)" fill="#fff"/>
      <path id="Path_4720" data-name="Path 4720" d="M855.851,382.182c0,2.68,0,5.252,0,7.824,0,.242.006.484,0,.726a1.407,1.407,0,0,1-1.392,1.455,1.381,1.381,0,0,1-1.4-1.441c-.019-1.826-.007-3.653-.008-5.48,0-.988,0-1.976,0-3.044-.262-.015-.491-.038-.722-.039-2.487,0-4.973,0-7.46-.006a3.222,3.222,0,0,1-.91-.11,1.383,1.383,0,0,1,.114-2.649,3.517,3.517,0,0,1,.785-.071q3.73-.008,7.46,0h.731v-.768c0-2.575,0-5.149.006-7.724a1.366,1.366,0,0,1,1.324-1.5,1.389,1.389,0,0,1,1.47,1.561c.008,2.553,0,5.106,0,7.658v.778h.851c2.553,0,5.105-.012,7.658.008a1.4,1.4,0,0,1,1.516,1.4,1.437,1.437,0,0,1-1.5,1.424c-.176.01-.352,0-.528,0h-7.992Z" transform="translate(-189.443 -53.864)" fill="#fff"/>
    </g>
  </g>
</svg>
