<svg id="Group_7" data-name="Group 7" xmlns="http://www.w3.org/2000/svg" xmlns:xlink="http://www.w3.org/1999/xlink" width="51.703" height="51.703" viewBox="0 0 51.703 51.703">
  <defs>
    <linearGradient id="linear-gradient" x1="0.5" x2="0.5" y2="1" gradientUnits="objectBoundingBox">
      <stop offset="0" stop-color="#ff245e"/>
      <stop offset="1" stop-color="#c864dd"/>
    </linearGradient>
  </defs>
  <circle id="Ellipse_1" data-name="Ellipse 1" cx="25.851" cy="25.851" r="25.851" fill="url(#linear-gradient)"/>
  <g id="Group_24" data-name="Group 24" transform="translate(12.959 12.37)">
    <path id="Path_20" data-name="Path 20" d="M-1916.9,421.379a1.839,1.839,0,0,1-1.13-.383,1.866,1.866,0,0,1-.656-.971l-.028-.1-.028.1a1.865,1.865,0,0,1-.656.971,1.835,1.835,0,0,1-1.128.383,1.854,1.854,0,0,1-1.49-.747,1.924,1.924,0,0,1-.358-1.252l.4-8.806v-2.618l-.05.055a5.146,5.146,0,0,1-1.24.992l-.885.507a1.628,1.628,0,0,1-.8.211,1.661,1.661,0,0,1-.646-.13l-.009,0-.009,0a1.7,1.7,0,0,1-.4.049,1.544,1.544,0,0,1-.487-.078l-1.352-.452a5.139,5.139,0,0,1-2.12-1.375l-.05-.054V410.6l-.066,8.873a1.809,1.809,0,0,1-.513,1.339,1.834,1.834,0,0,1-1.338.571,1.84,1.84,0,0,1-1.127-.381,1.863,1.863,0,0,1-.657-.966l-.028-.1-.028.1a1.852,1.852,0,0,1-1.786,1.347,1.837,1.837,0,0,1-1.34-.571,1.837,1.837,0,0,1-.512-1.364l.875-8.892v-.459h-.028a1.853,1.853,0,0,1-1.038-.366,1.83,1.83,0,0,1-.645-.894l-.786-2.358a2.327,2.327,0,0,1,.312-2.084l.841-1.175a5.162,5.162,0,0,1,2.77-1.956l.184-.051c.139-.04.279-.075.417-.1a5.408,5.408,0,0,1,1.106-.115,5.936,5.936,0,0,1,4.994,2.878l.747,1.218a1.912,1.912,0,0,0,.785.716l1.366.672.787-.516a1.914,1.914,0,0,0,.75-.947l.125-.347a5.722,5.722,0,0,1,.823-1.511,5.7,5.7,0,0,1,1.2-1.175,5.312,5.312,0,0,1,3.125-1.032h.045a5.07,5.07,0,0,1,.986.1c.147.03.281.062.409.1l.526.149a5.124,5.124,0,0,1,2.58,1.706,4.985,4.985,0,0,1,1.062,3.144v4.15a1.661,1.661,0,0,1-1.354,1.659,1.641,1.641,0,0,1-.264.022h0a1.593,1.593,0,0,1-.632-.13l-.043-.018.342,7.552a1.922,1.922,0,0,1-.358,1.25A1.853,1.853,0,0,1-1916.9,421.379Zm-16.382-10.285h.021a.441.441,0,0,1,.415.445l-.066,8.062h0a.924.924,0,0,0,.3.632.977.977,0,0,0,.668.263.968.968,0,0,0,.7-.3.967.967,0,0,0,.267-.713l.066-8.893v-3.934a.054.054,0,0,1,0-.011.1.1,0,0,0,0-.027v-.01l-.853-1.09a.435.435,0,0,1-.092-.323.438.438,0,0,1,.166-.295.433.433,0,0,1,.271-.095.439.439,0,0,1,.347.169l1.48,1.884a4.218,4.218,0,0,0,2,1.413l1.352.452a.73.73,0,0,0,.231.038.722.722,0,0,0,.425-.139.717.717,0,0,0,.3-.591.72.72,0,0,0-.406-.652l-1.6-.79a2.784,2.784,0,0,1-1.148-1.047l-.753-1.229a5.028,5.028,0,0,0-4.227-2.447l-.129,0a4.351,4.351,0,0,0-.752.087c-.127.024-.261.056-.41.1l-.182.051a4.3,4.3,0,0,0-2.3,1.62l-.837,1.175a1.439,1.439,0,0,0-.195,1.291l.786,2.36a.96.96,0,0,0,.843.65l.031,0,0-3.936a.442.442,0,0,1,.441-.441.441.441,0,0,1,.441.441v5.326l-.874,8.916a.944.944,0,0,0,.267.688.965.965,0,0,0,.7.3.972.972,0,0,0,.971-.921l.874-8.088A.44.44,0,0,1-1933.281,411.094Zm14.568,0a.441.441,0,0,1,.441.419l.4,8.014a1.061,1.061,0,0,0,.268.652.929.929,0,0,0,.62.314c.028,0,.056,0,.084,0a.968.968,0,0,0,.7-.3.969.969,0,0,0,.267-.716l-.4-9.085v-5.129a.442.442,0,0,1,.441-.441.441.441,0,0,1,.441.441v5.092a.735.735,0,0,0,.734.734.735.735,0,0,0,.734-.734v-4.238a4.067,4.067,0,0,0-.844-2.536,4.236,4.236,0,0,0-2.16-1.44l-.527-.151c-.131-.038-.257-.069-.386-.094a4.272,4.272,0,0,0-.821-.078,4.428,4.428,0,0,0-2.612.87,4.8,4.8,0,0,0-1.691,2.251l-.132.365a2.791,2.791,0,0,1-1.094,1.383l-.495.324.02.025a1.6,1.6,0,0,1,.341.99,1.6,1.6,0,0,1-.128.608l-.032.078.9-.514a4.916,4.916,0,0,0,1.6-1.684.406.406,0,0,1,.059-.074l.008-.009v-1.189a.442.442,0,0,1,.441-.441.442.442,0,0,1,.441.441V410.6l-.4,8.887a.964.964,0,0,0,.267.716.956.956,0,0,0,.7.3c.033,0,.067,0,.1,0a1.014,1.014,0,0,0,.88-.979l.4-8A.441.441,0,0,1-1918.713,411.095Zm0-10.4a2.8,2.8,0,0,1-2.792-2.792,2.794,2.794,0,0,1,2.792-2.791,2.8,2.8,0,0,1,2.792,2.791A2.8,2.8,0,0,1-1918.713,400.694Zm0-4.815a2.025,2.025,0,0,0-2.022,2.023,2.024,2.024,0,0,0,2.022,2.022,2.024,2.024,0,0,0,2.021-2.022A2.025,2.025,0,0,0-1918.713,395.879Zm-14.1,4.815a2.8,2.8,0,0,1-2.792-2.792,2.8,2.8,0,0,1,2.792-2.791,2.8,2.8,0,0,1,2.792,2.791A2.8,2.8,0,0,1-1932.816,400.694Zm0-4.815a2.025,2.025,0,0,0-2.022,2.023,2.024,2.024,0,0,0,2.022,2.022,2.024,2.024,0,0,0,2.021-2.022A2.025,2.025,0,0,0-1932.816,395.879Zm9.4,2.935a.441.441,0,0,1-.441-.441v-.94a.441.441,0,0,1,.441-.441.441.441,0,0,1,.441.441v.94A.441.441,0,0,1-1923.414,398.814Zm-2.351,0a.441.441,0,0,1-.441-.441v-.94a.441.441,0,0,1,.441-.441.441.441,0,0,1,.441.441v.94A.441.441,0,0,1-1925.764,398.814Zm-2.351,0a.441.441,0,0,1-.441-.441v-.94a.441.441,0,0,1,.441-.441.441.441,0,0,1,.441.441v.94A.441.441,0,0,1-1928.115,398.814Z" transform="translate(1939.162 -395.111)" fill="#fff"/>
  </g>
</svg>
