<svg id="Group_7" data-name="Group 7" xmlns="http://www.w3.org/2000/svg" xmlns:xlink="http://www.w3.org/1999/xlink" width="51.703" height="51.703" viewBox="0 0 51.703 51.703">
  <defs>
    <linearGradient id="linear-gradient" x1="0.5" x2="0.5" y2="1" gradientUnits="objectBoundingBox">
      <stop offset="0" stop-color="#ff245e"/>
      <stop offset="1" stop-color="#c864dd"/>
    </linearGradient>
  </defs>
  <circle id="Ellipse_1" data-name="Ellipse 1" cx="25.851" cy="25.851" r="25.851" fill="url(#linear-gradient)"/>
  <g id="Group_23" data-name="Group 23" transform="translate(15.904 10.603)">
    <path id="Path_17" data-name="Path 17" d="M-295.872,839.836a.484.484,0,0,1-.08-.007.486.486,0,0,1-.314-.2.491.491,0,0,1,.117-.679,5.651,5.651,0,0,0,1.331-7.819.494.494,0,0,1,.116-.68.479.479,0,0,1,.278-.088.485.485,0,0,1,.395.2,6.637,6.637,0,0,1-1.564,9.18.481.481,0,0,1-.279.088Z" transform="translate(306.798 -828.928)" fill="#fff"/>
    <path id="Path_18" data-name="Path 18" d="M-451.317,816.257a.476.476,0,0,1-.08-.007.482.482,0,0,1-.313-.2,6.63,6.63,0,0,1,1.564-9.18.478.478,0,0,1,.278-.088.484.484,0,0,1,.394.2.494.494,0,0,1-.116.679,5.651,5.651,0,0,0-1.332,7.819.491.491,0,0,1-.116.68A.473.473,0,0,1-451.317,816.257Z" transform="translate(453.817 -806.784)" fill="#fff"/>
    <path id="Path_19" data-name="Path 19" d="M-459.146,851.334c-2.672,0-4.618-4.409-6.335-8.3a26.325,26.325,0,0,0-1.842-3.723,3.275,3.275,0,0,1-.537-1.8,2.369,2.369,0,0,1,.6-1.711,2.2,2.2,0,0,1,1.55-.641,2.026,2.026,0,0,1,1.448.586l1.711,1.874v-7.448l-.061-.035a4.444,4.444,0,0,1-1.438-1.3,4.536,4.536,0,0,1,1.068-6.272,4.41,4.41,0,0,1,2.577-.828,4.445,4.445,0,0,1,3.632,1.885,4.54,4.54,0,0,1-1.068,6.272.448.448,0,0,1-.192.073l-.1.016v3.023l.182-.1a2.251,2.251,0,0,1,1.1-.288,2.255,2.255,0,0,1,2.087,1.477l.052.146.129-.085a2.22,2.22,0,0,1,1.226-.364,2.257,2.257,0,0,1,2.089,1.477l.052.145.129-.085a2.232,2.232,0,0,1,1.226-.362,2.218,2.218,0,0,1,2.207,2.17V843.5c0,4.76-4.434,7.627-4.661,7.77a.517.517,0,0,1-.249.067Zm-6.57-15.261a1.263,1.263,0,0,0-.9.393,2.149,2.149,0,0,0,.043,2.309,25.562,25.562,0,0,1,1.889,3.784l.047.106c1.443,3.265,3.42,7.737,5.49,7.737h6.442l.031-.022c.683-.477,4.092-3.053,4.092-6.886v-6.359a1.279,1.279,0,0,0-1.286-1.237,1.268,1.268,0,0,0-1.286,1.214.464.464,0,0,1-.461.466.464.464,0,0,1-.461-.466v-1.151a1.279,1.279,0,0,0-1.286-1.237,1.268,1.268,0,0,0-1.286,1.214.463.463,0,0,1-.46.466.464.464,0,0,1-.461-.466v-1.151a1.279,1.279,0,0,0-1.286-1.238,1.268,1.268,0,0,0-1.286,1.214.464.464,0,0,1-.461.466.464.464,0,0,1-.461-.466V827.71a1.268,1.268,0,0,0-1.286-1.214,1.28,1.28,0,0,0-1.287,1.238v11.085a.465.465,0,0,1-.293.435.442.442,0,0,1-.164.031.469.469,0,0,1-.342-.15l-2.5-2.737A1.108,1.108,0,0,0-465.717,836.072Zm5.307-13.4a3.5,3.5,0,0,0-2.046.658,3.6,3.6,0,0,0-.847,4.972,3.654,3.654,0,0,0,.546.612l.2.181v-1.359a2.218,2.218,0,0,1,2.207-2.169,2.18,2.18,0,0,1,2.207,2.147v1.245l.208-.21a3.582,3.582,0,0,0,.4-4.58A3.526,3.526,0,0,0-460.409,822.67Z" transform="translate(467.86 -820.829)" fill="#fff"/>
  </g>
</svg>
