<svg id="_0xZzQY.tif" data-name="0xZzQY.tif" xmlns="http://www.w3.org/2000/svg" width="19.693" height="19.77" viewBox="0 0 19.693 19.77">
  <g id="Group_550" data-name="Group 550">
    <path id="Path_241" data-name="Path 241" d="M-3886.169-130.617h8.533q0,2.172,0,4.344a.6.6,0,0,0,.676.676h4.344v.219q0,6.342,0,12.683a1.741,1.741,0,0,1-1.852,1.847h-8.969a6.493,6.493,0,0,0,1.865-2.046,6.4,6.4,0,0,0,.822-2.589h.406q2.191,0,4.382,0a.589.589,0,0,0,.591-.35.577.577,0,0,0-.58-.807q-2.287,0-4.575,0h-.228a6.585,6.585,0,0,0-.664-2.317h5.479a.573.573,0,0,0,.569-.354.578.578,0,0,0-.587-.8q-3.011,0-6.023,0a.418.418,0,0,1-.344-.155,6.3,6.3,0,0,0-5.04-2.16c-.1,0-.2.01-.3.016,0-.043-.01-.068-.01-.093,0-2.149,0-4.3.006-6.448a1.523,1.523,0,0,1,.668-1.287A4.951,4.951,0,0,1-3886.169-130.617Zm6.024,8.185h.367q1.909,0,3.819,0a.587.587,0,0,0,.59-.352.578.578,0,0,0-.582-.806q-2.035,0-4.07,0-2.151,0-4.3,0a.594.594,0,0,0-.586.327.575.575,0,0,0,.559.831Q-3882.248-122.429-3880.146-122.432Z" transform="translate(3892.309 130.617)" fill="#fff"/>
    <path id="Path_242" data-name="Path 242" d="M-4002.2,110.916a5.22,5.22,0,0,1,5.213,5.221,5.22,5.22,0,0,1-5.211,5.2,5.222,5.222,0,0,1-5.214-5.222A5.219,5.219,0,0,1-4002.2,110.916Zm-.78,6.093c-.3-.3-.53-.547-.776-.782a.574.574,0,0,0-.816-.01.574.574,0,0,0,0,.83q.565.581,1.146,1.146a.558.558,0,0,0,.815.01q1.365-1.349,2.715-2.714a.541.541,0,0,0,.148-.533.577.577,0,0,0-1-.246q-1.042,1.032-2.073,2.074A1.78,1.78,0,0,0-4002.977,117.009Z" transform="translate(4007.409 -101.572)" fill="#fff"/>
    <path id="Path_243" data-name="Path 243" d="M-3597.969-120.282l3.447,3.45h-3.447Z" transform="translate(3613.81 120.682)" fill="#fff"/>
  </g>
</svg>
