<svg xmlns="http://www.w3.org/2000/svg" xmlns:xlink="http://www.w3.org/1999/xlink" width="17" height="14.293" viewBox="0 0 17 14.293">
  <defs>
    <clipPath id="clip-path">
      <path id="Path_5049" data-name="Path 5049" d="M286,153.137h17v2.155H286Zm0,0" transform="translate(-286 -153.137)"/>
    </clipPath>
  </defs>
  <g id="surface1" transform="translate(-286 -153.137)">
    <path id="Path_5046" data-name="Path 5046" d="M286.645,251.835a.5.5,0,0,0,.014.108.5.5,0,0,0,.016.053.524.524,0,0,0,.021.051.491.491,0,0,0,.027.049.527.527,0,0,0,.032.046q.017.022.037.043c.013.014.027.027.041.04a.563.563,0,0,0,.045.036c.016.011.032.022.049.032s.034.019.052.027l.055.023.057.018.058.013.06.007.06,0h15.744l.059,0,.059-.008.057-.013.056-.018c.018-.007.036-.014.054-.023s.034-.018.051-.028.032-.021.048-.032.03-.023.044-.036.027-.026.04-.04a.534.534,0,0,0,.035-.043.5.5,0,0,0,.03-.046.542.542,0,0,0,.026-.049.492.492,0,0,0,.02-.051.517.517,0,0,0,.014-.052.507.507,0,0,0,.012-.107V240.918H286.645Zm8.13-9.019a.321.321,0,0,1,.009-.067.313.313,0,0,1,.023-.064.34.34,0,0,1,.037-.059.347.347,0,0,1,.049-.051.367.367,0,0,1,.06-.041.379.379,0,0,1,.067-.029.4.4,0,0,1,.073-.016.41.41,0,0,1,.075,0h6.542a.412.412,0,0,1,.075,0,.4.4,0,0,1,.072.016.385.385,0,0,1,.067.029.364.364,0,0,1,.06.041.347.347,0,0,1,.049.051.325.325,0,0,1,.037.059.31.31,0,0,1,.024.064.3.3,0,0,1,.009.067v2.673a.328.328,0,0,1-.008.069.339.339,0,0,1-.022.067.352.352,0,0,1-.036.061.362.362,0,0,1-.049.054.382.382,0,0,1-.06.044.41.41,0,0,1-.068.033.432.432,0,0,1-.15.027h-6.542a.432.432,0,0,1-.15-.027.409.409,0,0,1-.068-.033.384.384,0,0,1-.059-.044.366.366,0,0,1-.049-.054.345.345,0,0,1-.036-.061.327.327,0,0,1-.03-.136Zm0,4.659a.314.314,0,0,1,.007-.07.328.328,0,0,1,.022-.067.348.348,0,0,1,.036-.062.358.358,0,0,1,.049-.054.377.377,0,0,1,.06-.044.4.4,0,0,1,.068-.033.424.424,0,0,1,.151-.026h6.542a.426.426,0,0,1,.077.006.421.421,0,0,1,.074.02.4.4,0,0,1,.068.033.391.391,0,0,1,.06.044.36.36,0,0,1,.049.054.341.341,0,0,1,.036.062.332.332,0,0,1,.022.067.318.318,0,0,1,.007.07v2.667a.3.3,0,0,1-.008.068.314.314,0,0,1-.023.065.327.327,0,0,1-.037.06.34.34,0,0,1-.049.052.368.368,0,0,1-.06.042.392.392,0,0,1-.068.03.411.411,0,0,1-.148.02h-6.542a.4.4,0,0,1-.216-.05.373.373,0,0,1-.06-.042.353.353,0,0,1-.049-.052.349.349,0,0,1-.037-.06.311.311,0,0,1-.023-.065.3.3,0,0,1-.008-.068Zm-6.6-4.659a.312.312,0,0,1,.032-.131.337.337,0,0,1,.087-.109.362.362,0,0,1,.06-.041.38.38,0,0,1,.067-.029.4.4,0,0,1,.073-.016.41.41,0,0,1,.075,0h4.57a.415.415,0,0,1,.073.005.4.4,0,0,1,.07.018.385.385,0,0,1,.065.03.375.375,0,0,1,.057.041.351.351,0,0,1,.047.05.327.327,0,0,1,.035.058.315.315,0,0,1,.023.063.307.307,0,0,1,.009.066v4.145a.312.312,0,0,1-.007.067.318.318,0,0,1-.021.065.336.336,0,0,1-.035.06.352.352,0,0,1-.047.052.375.375,0,0,1-.124.074.408.408,0,0,1-.146.025h-4.57a.408.408,0,0,1-.15-.022.381.381,0,0,1-.128-.073.353.353,0,0,1-.049-.053.34.34,0,0,1-.036-.061.316.316,0,0,1-.022-.066.31.31,0,0,1-.007-.069Zm.393,5.645h2.287a.409.409,0,0,1,.075.007.4.4,0,0,1,.072.02.372.372,0,0,1,.066.033.363.363,0,0,1,.058.045.341.341,0,0,1,.046.054.33.33,0,0,1,.033.062.311.311,0,0,1,.023.135.327.327,0,0,1-.008.067.34.34,0,0,1-.022.065.36.36,0,0,1-.081.113.381.381,0,0,1-.056.044.4.4,0,0,1-.064.034.428.428,0,0,1-.07.022.436.436,0,0,1-.074.01h-2.287a.437.437,0,0,1-.149-.029.418.418,0,0,1-.067-.033.394.394,0,0,1-.059-.044.377.377,0,0,1-.049-.053.353.353,0,0,1-.037-.061.335.335,0,0,1-.023-.066.331.331,0,0,1-.009-.069.315.315,0,0,1,.026-.138.328.328,0,0,1,.036-.063.352.352,0,0,1,.049-.055.384.384,0,0,1,.06-.044.409.409,0,0,1,.222-.055Zm0,1.34H289.7a.421.421,0,0,1,.076,0,.4.4,0,0,1,.073.017.393.393,0,0,1,.068.03.362.362,0,0,1,.06.042.348.348,0,0,1,.049.052.325.325,0,0,1,.037.06.316.316,0,0,1,.023.065.307.307,0,0,1,0,.136.317.317,0,0,1-.023.065.325.325,0,0,1-.037.06.355.355,0,0,1-.049.052.369.369,0,0,1-.06.042.391.391,0,0,1-.068.03.412.412,0,0,1-.073.017.407.407,0,0,1-.076,0h-1.133a.405.405,0,0,1-.149-.021.389.389,0,0,1-.068-.03.369.369,0,0,1-.06-.042.357.357,0,0,1-.049-.052.336.336,0,0,1-.037-.06.31.31,0,0,1,0-.267.335.335,0,0,1,.037-.06.35.35,0,0,1,.049-.052.369.369,0,0,1,.06-.042.39.39,0,0,1,.068-.03.4.4,0,0,1,.073-.017A.422.422,0,0,1,288.569,249.8Zm0,0" transform="translate(-0.624 -84.952)" fill="#fcfcfc"/>
    <g id="Group_7128" data-name="Group 7128" transform="translate(286 153.137)" clip-path="url(#clip-path)">
      <path id="Path_5048" data-name="Path 5048" d="M303.008,153.648H287.266l-.061,0-.061.009-.06.014c-.019.005-.039.012-.058.019l-.055.024c-.018.009-.035.019-.052.029s-.033.022-.049.033-.031.024-.045.038-.028.027-.041.041-.025.029-.036.045-.022.031-.031.048-.018.033-.026.05a.542.542,0,0,0-.035.107.534.534,0,0,0-.008.055.491.491,0,0,0,0,.056v1.564h16.971v-1.564a.517.517,0,0,0-.009-.11.518.518,0,0,0-.014-.054.5.5,0,0,0-.019-.052.49.49,0,0,0-.025-.05.533.533,0,0,0-.03-.048.563.563,0,0,0-.035-.045q-.019-.022-.04-.042t-.044-.038c-.016-.012-.032-.023-.048-.034s-.034-.02-.052-.029-.036-.017-.055-.024-.038-.014-.057-.019-.039-.01-.059-.014l-.06-.009ZM287.9,155.117a.512.512,0,0,1-.089-.011.5.5,0,0,1-.085-.026.487.487,0,0,1-.078-.04.46.46,0,0,1-.068-.053.427.427,0,0,1-.056-.064.405.405,0,0,1-.041-.072.4.4,0,0,1-.025-.078.39.39,0,0,1,0-.162.4.4,0,0,1,.025-.078.4.4,0,0,1,.041-.072.439.439,0,0,1,.056-.064.452.452,0,0,1,.068-.053.483.483,0,0,1,.078-.04.5.5,0,0,1,.085-.026.357.357,0,0,1,.177,0,.5.5,0,0,1,.085.026.478.478,0,0,1,.078.04.452.452,0,0,1,.068.053.436.436,0,0,1,.056.064.406.406,0,0,1,.041.072.4.4,0,0,1,.025.078.39.39,0,0,1,0,.162.4.4,0,0,1-.025.078.407.407,0,0,1-.041.072.431.431,0,0,1-.056.064.46.46,0,0,1-.068.053.483.483,0,0,1-.078.04.5.5,0,0,1-.085.026A.508.508,0,0,1,287.9,155.117Zm1.546,0a.521.521,0,0,1-.093,0,.51.51,0,0,1-.09-.021.486.486,0,0,1-.084-.037A.45.45,0,0,1,289.1,155a.427.427,0,0,1-.061-.063.422.422,0,0,1-.046-.073.388.388,0,0,1-.03-.08.381.381,0,0,1-.012-.083.375.375,0,0,1,.007-.084.391.391,0,0,1,.025-.081.413.413,0,0,1,.042-.075.435.435,0,0,1,.057-.066.467.467,0,0,1,.071-.055.489.489,0,0,1,.081-.041.506.506,0,0,1,.088-.026.521.521,0,0,1,.185,0,.509.509,0,0,1,.089.024.5.5,0,0,1,.082.039.471.471,0,0,1,.072.053.432.432,0,0,1,.059.065.427.427,0,0,1,.044.074.381.381,0,0,1,0,.322.4.4,0,0,1-.042.071.446.446,0,0,1-.055.063.472.472,0,0,1-.067.053.5.5,0,0,1-.077.041.519.519,0,0,1-.084.027A.512.512,0,0,1,289.445,155.117Zm1.527,0a.518.518,0,0,1-.093,0,.513.513,0,0,1-.09-.021.5.5,0,0,1-.084-.037.463.463,0,0,1-.074-.051.445.445,0,0,1-.061-.063.42.42,0,0,1-.046-.073.41.41,0,0,1-.03-.08.385.385,0,0,1-.012-.083.387.387,0,0,1,.031-.165.415.415,0,0,1,.042-.075.433.433,0,0,1,.057-.066.461.461,0,0,1,.071-.055.491.491,0,0,1,.081-.041.505.505,0,0,1,.089-.026.514.514,0,0,1,.274.021.489.489,0,0,1,.082.039.466.466,0,0,1,.072.053.438.438,0,0,1,.059.065.423.423,0,0,1,.044.074.4.4,0,0,1,.027.081.374.374,0,0,1,.009.084.395.395,0,0,1-.034.158.416.416,0,0,1-.041.072.442.442,0,0,1-.056.064.469.469,0,0,1-.068.053.491.491,0,0,1-.078.04.5.5,0,0,1-.085.026A.512.512,0,0,1,290.972,155.117Zm0,0" transform="translate(-286.622 -153.632)" fill="#fcfcfc"/>
    </g>
  </g>
</svg>
