<svg xmlns="http://www.w3.org/2000/svg" xmlns:xlink="http://www.w3.org/1999/xlink" width="19.118" height="18.914" viewBox="0 0 19.118 18.914">
  <defs>
    <clipPath id="clip-path">
      <path id="Path_5078" data-name="Path 5078" d="M173.5,63h19.118V81.914H173.5Zm0,0" transform="translate(-173.5 -63)" fill="#fff"/>
    </clipPath>
  </defs>
  <g id="surface1" transform="translate(-173.5 -63)">
    <g id="Group_7361" data-name="Group 7361" transform="translate(173.5 63)" clip-path="url(#clip-path)">
      <path id="Path_5077" data-name="Path 5077" d="M191.131,72.784h-.716V70.474q0-.073-.007-.146c0-.049-.012-.1-.021-.145s-.021-.1-.036-.142-.031-.093-.049-.138-.04-.089-.063-.132-.048-.085-.075-.125-.056-.08-.087-.117a1.514,1.514,0,0,0-.207-.207,1.42,1.42,0,0,0-.117-.087q-.061-.041-.125-.075c-.043-.023-.087-.044-.132-.063s-.091-.035-.138-.049-.094-.026-.142-.036-.1-.017-.145-.021-.1-.007-.146-.007h-.678V67.261a1.488,1.488,0,0,0-.974-1.4,1.466,1.466,0,0,0-.6-.086l-2.143.171-6.35-2.579a.556.556,0,0,0-.219-.047.544.544,0,0,0-.112.01.555.555,0,0,0-.108.032.546.546,0,0,0-.1.053.559.559,0,0,0-.208.26l-1.189,2.926-.816.063c-1.159.018-1.927,1.461-1.927,2.415V80.219q0,.1.009.191t.028.19a1.866,1.866,0,0,0,.046.186q.028.092.065.18t.082.173q.045.085.1.164t.114.154c.041.049.083.1.129.142s.093.088.142.129a1.9,1.9,0,0,0,.154.114c.053.036.108.068.164.1s.114.057.173.082.119.046.18.065.123.034.186.047a1.9,1.9,0,0,0,.189.028c.064.006.127.01.192.01h13.472c.049,0,.1,0,.146-.007s.1-.012.145-.021.1-.021.142-.036.093-.031.138-.049.089-.039.132-.063.085-.048.125-.075a1.461,1.461,0,0,0,.117-.087c.038-.031.074-.064.108-.1s.067-.071.1-.108.06-.077.087-.118.052-.082.075-.125.044-.087.063-.132.035-.091.049-.138.026-.094.036-.142.017-.1.021-.145.007-.1.007-.146V78.687h.716q.073,0,.146-.007a1.456,1.456,0,0,0,.145-.021c.048-.01.1-.021.142-.036a1.463,1.463,0,0,0,.138-.049q.068-.028.132-.062c.043-.023.085-.048.125-.075s.08-.056.117-.087.074-.064.109-.1.067-.071.1-.108.06-.077.087-.118a1.441,1.441,0,0,0,.075-.125c.023-.043.044-.087.063-.132s.035-.091.049-.138.026-.094.036-.142.017-.1.021-.145.007-.1.007-.146V74.275c0-.049,0-.1-.007-.146s-.012-.1-.021-.145-.021-.1-.036-.142a1.514,1.514,0,0,0-.187-.4c-.027-.041-.056-.08-.087-.117s-.064-.074-.1-.108-.071-.067-.109-.1a1.45,1.45,0,0,0-.117-.087c-.041-.027-.082-.052-.125-.075s-.087-.044-.132-.062-.091-.035-.138-.05a1.449,1.449,0,0,0-.142-.035q-.072-.014-.145-.022T191.131,72.784ZM186.748,66.9a.373.373,0,0,1,.268.1.371.371,0,0,1,.112.265v1.726h-1.614l.708-1.748a.545.545,0,0,0,.03-.306Zm-8.478-2.281,6.708,2.721-.667,1.647h-1.293a.552.552,0,0,0-.183-.123.514.514,0,0,1-.167-.11.505.505,0,0,1-.064-.077.514.514,0,0,1-.078-.184.515.515,0,0,1,.026-.3.553.553,0,0,0,.034-.107.561.561,0,0,0-.03-.332.582.582,0,0,0-.053-.1.562.562,0,0,0-.26-.208l-2.109-.835a.567.567,0,0,0-.107-.035.557.557,0,0,0-.223,0,.572.572,0,0,0-.108.032.558.558,0,0,0-.1.053.549.549,0,0,0-.086.071.561.561,0,0,0-.07.087.567.567,0,0,0-.052.1.5.5,0,0,1-.046.088.511.511,0,0,1-.139.142.513.513,0,0,1-.183.078.519.519,0,0,1-.1.011.5.5,0,0,1-.1-.009.522.522,0,0,1-.1-.028.553.553,0,0,0-.107-.035.561.561,0,0,0-.224,0,.537.537,0,0,0-.108.032.559.559,0,0,0-.256.213.556.556,0,0,0-.051.1l-.6,1.491H176.5Zm3.242,4.368h-2.87l.253-.626a1.566,1.566,0,0,0,.69-.13,1.6,1.6,0,0,0,.548-.4l1.267.488a1.614,1.614,0,0,0,.115.675Zm-6.041-1.2.32-.026-.5,1.248a1.912,1.912,0,0,0-.649.175v-.1C174.637,68.525,175.11,67.783,175.472,67.783Zm13.826,12.9a.369.369,0,0,1-.007.073.373.373,0,0,1-.021.07.379.379,0,0,1-.034.064.37.37,0,0,1-.047.057.358.358,0,0,1-.056.046.365.365,0,0,1-.065.034.369.369,0,0,1-.07.021.373.373,0,0,1-.073.007H175.472a.84.84,0,0,1-.319-.064.83.83,0,0,1-.271-.181.837.837,0,0,1-.181-.271.834.834,0,0,1-.063-.319v-9.3a.835.835,0,0,1,.371-.694.837.837,0,0,1,.3-.125.835.835,0,0,1,.163-.016h13.453a.375.375,0,0,1,.143.028.365.365,0,0,1,.065.034.355.355,0,0,1,.056.046.372.372,0,0,1,.081.121.374.374,0,0,1,.021.07.369.369,0,0,1,.007.073v2.325h-2.173q-.073,0-.146.007t-.145.022a1.455,1.455,0,0,0-.142.035q-.07.022-.138.05t-.132.062c-.043.023-.085.048-.125.075a1.462,1.462,0,0,0-.117.087c-.038.031-.074.064-.109.1s-.067.071-.1.108-.06.077-.087.117-.052.083-.075.126a1.473,1.473,0,0,0-.112.27c-.014.047-.026.094-.036.142s-.017.1-.021.145-.007.1-.007.146v2.937c0,.049,0,.1.007.146s.012.1.021.145.021.1.036.142a1.479,1.479,0,0,0,.112.27q.034.065.075.126c.027.041.056.08.087.117a1.424,1.424,0,0,0,.1.108c.035.035.071.067.109.1s.077.06.117.087.083.052.125.075a1.461,1.461,0,0,0,.132.062q.068.028.138.049a1.457,1.457,0,0,0,.142.035q.072.014.145.022t.146.007h2.169Zm2.2-3.481a.369.369,0,0,1-.007.073.373.373,0,0,1-.021.07.378.378,0,0,1-.034.065.365.365,0,0,1-.047.056.38.38,0,0,1-.056.047.391.391,0,0,1-.065.034.368.368,0,0,1-.143.028h-4a.374.374,0,0,1-.207-.063.385.385,0,0,1-.057-.047.369.369,0,0,1-.081-.121.369.369,0,0,1-.028-.143V74.275a.37.37,0,0,1,.028-.143.386.386,0,0,1,.034-.064.379.379,0,0,1,.046-.056.385.385,0,0,1,.057-.047.375.375,0,0,1,.134-.056.371.371,0,0,1,.073-.007h4.006a.369.369,0,0,1,.143.028.37.37,0,0,1,.121.081.368.368,0,0,1,.046.056.371.371,0,0,1,.063.207Zm-2.743-1.468a.759.759,0,0,1-.014.145.746.746,0,0,1-.446.543.752.752,0,0,1-.14.042.743.743,0,0,1-.291,0,.75.75,0,0,1-.14-.042.751.751,0,0,1-.242-.161.75.75,0,0,1-.093-.113.745.745,0,0,1,0-.828.752.752,0,0,1,.093-.113.739.739,0,0,1,.113-.093.73.73,0,0,1,.129-.069.746.746,0,0,1,.571,0,.736.736,0,0,1,.129.069.745.745,0,0,1,.317.474A.759.759,0,0,1,188.757,75.732Zm0,0" transform="translate(-173.5 -63.305)" fill="#fff"/>
    </g>
  </g>
</svg>
