<svg id="_7dXPUW.tif" data-name="7dXPUW.tif" xmlns="http://www.w3.org/2000/svg" width="21.187" height="21.237" viewBox="0 0 21.187 21.237">
  <g id="Group_547" data-name="Group 547">
    <path id="Path_234" data-name="Path 234" d="M-987.773,771.99V768.9a1.66,1.66,0,0,1-1.552.318,1.523,1.523,0,0,1-.819-.6,1.582,1.582,0,0,1,.085-1.94c.558-.651,1.224-.715,2.281-.205v-3.011h3.04a1.637,1.637,0,0,0-.332,1.443,1.537,1.537,0,0,0,.585.879,1.577,1.577,0,0,0,1.974-.048c.659-.557.731-1.294.213-2.273h3.058v.237q0,3.5,0,7a1.127,1.127,0,0,1-.877,1.29Z" transform="translate(996.316 -750.753)" fill="#fff"/>
    <path id="Path_235" data-name="Path 235" d="M-821.886,472.028h-3.079a1.64,1.64,0,0,1,.321,1.5,1.523,1.523,0,0,1-.617.858,1.591,1.591,0,0,1-1.989-.138,1.632,1.632,0,0,1-.145-2.222h-3.014v-3.042a1.683,1.683,0,0,0,1.278.359,1.561,1.561,0,0,0,1.116-.725,1.579,1.579,0,0,0-.178-1.934c-.553-.6-1.238-.649-2.219-.149v-3.054h.238c2.319,0,4.638.012,6.956-.008a1.215,1.215,0,0,1,1.332.854Z" transform="translate(843.073 -463.477)" fill="#fff"/>
    <path id="Path_236" data-name="Path 236" d="M-1128.35,711.786a1.136,1.136,0,0,1-.821-.848,1.277,1.277,0,0,1-.024-.251q0-3.625,0-7.249c0-.055.006-.11.01-.188h3.048c-.528-1-.451-1.744.222-2.3a1.6,1.6,0,0,1,2.009,0c.672.553.75,1.314.223,2.295h1.744v1.391a2.89,2.89,0,0,0-2.22,1.374,2.76,2.76,0,0,0-.414,1.757,2.892,2.892,0,0,0,2.652,2.6v1.422Z" transform="translate(1129.196 -690.549)" fill="#fff"/>
    <path id="Path_237" data-name="Path 237" d="M-1120.667,561.7v3.076a1.645,1.645,0,0,1,1.51-.325,1.544,1.544,0,0,1,.858.616,1.585,1.585,0,0,1-.12,1.972,1.637,1.637,0,0,1-2.24.165v1.742h-1.392a2.9,2.9,0,0,0-1.326-2.189,2.791,2.791,0,0,0-1.687-.449,2.9,2.9,0,0,0-2.723,2.639h-1.4c0-.07-.009-.138-.009-.206q0-2.95,0-5.9a1.064,1.064,0,0,1,1.125-1.151q3.626-.007,7.253,0C-1120.782,561.689-1120.74,561.694-1120.667,561.7Z" transform="translate(1129.202 -557.526)" fill="#fff"/>
  </g>
</svg>
