<svg id="email_filled" xmlns="http://www.w3.org/2000/svg" width="17" height="11.757" viewBox="0 0 17 11.757">
  <g id="Group_546" data-name="Group 546">
    <path id="Path_230" data-name="Path 230" d="M32.023,328.1a1.592,1.592,0,0,0,1-.33l-4.854-4.239-.336.211q-.545.351-.884.547a5.793,5.793,0,0,1-.9.4,3.1,3.1,0,0,1-1.052.2h-.019a3.1,3.1,0,0,1-1.052-.2,5.774,5.774,0,0,1-.9-.4q-.34-.2-.884-.547l-.335-.212-4.855,4.241a1.592,1.592,0,0,0,1,.33Z" transform="translate(-16.486 -316.339)" fill="#fff"/>
    <path id="Path_231" data-name="Path 231" d="M.843,199.282A4.426,4.426,0,0,1,0,198.555V205l3.736-3.736Q2.615,200.486.843,199.282Z" transform="translate(0 -194.764)" fill="#fff"/>
    <path id="Path_232" data-name="Path 232" d="M416.209,199.282q-1.706,1.155-2.9,1.988l3.735,3.735v-6.45A4.606,4.606,0,0,1,416.209,199.282Z" transform="translate(-400.044 -194.764)" fill="#fff"/>
    <path id="Path_233" data-name="Path 233" d="M15.488,59.013H1.524A1.44,1.44,0,0,0,.4,59.447a1.555,1.555,0,0,0-.394,1.085,1.826,1.826,0,0,0,.522,1.14,4.484,4.484,0,0,0,1.11.964q.322.2,1.945,1.19c.584.356,1.092.667,1.528.934l.957.59.142.089.262.166q.308.2.512.317t.493.271a3.072,3.072,0,0,0,.546.225,1.7,1.7,0,0,0,.474.075h.019a1.7,1.7,0,0,0,.474-.075,3.065,3.065,0,0,0,.545-.225q.289-.15.493-.271t.512-.317l.261-.166.142-.089.96-.587,3.48-2.127a4.277,4.277,0,0,0,1.157-1.027,2.034,2.034,0,0,0,.465-1.261,1.211,1.211,0,0,0-.451-.944A1.573,1.573,0,0,0,15.488,59.013Z" transform="translate(-0.006 -59.013)" fill="#fff"/>
  </g>
</svg>
