<svg xmlns="http://www.w3.org/2000/svg" width="17" height="11.695" viewBox="0 0 17 11.695">
  <path id="Id_Card" data-name="Id Card" d="M17.023,81.721q0-.1,0-.209a1.6,1.6,0,0,0-1.7-1.478H8.548l-6.837-.007a1.554,1.554,0,0,0-.176,0A1.592,1.592,0,0,0,.027,81.695q0,4.176,0,8.345a1.924,1.924,0,0,0,0,.2,1.594,1.594,0,0,0,1.694,1.481H15.329a1.731,1.731,0,0,0,.186,0,1.593,1.593,0,0,0,1.508-1.674Q17.027,85.887,17.023,81.721ZM3.378,83.908a1.3,1.3,0,0,1,2.595.159,1.256,1.256,0,0,1-1.309,1.2h-.01a1.266,1.266,0,0,1-1.283-1.249C3.375,83.981,3.375,83.945,3.378,83.908Zm3.815,4.779c-.01.242-.182.375-.447.375q-1.034,0-2.075,0H2.619c-.318,0-.464-.149-.467-.471,0-.2.007-.394,0-.59a1.453,1.453,0,0,1,.762-1.359,3.289,3.289,0,0,1,3.192-.2,1.627,1.627,0,0,1,1.07,1.256A5.707,5.707,0,0,1,7.193,88.687Zm6.661-.152h-.046c-.746.007-1.485,0-2.227,0H9.354a.534.534,0,0,1-.046-1.067h4.5a.534.534,0,0,1,.557.51A.528.528,0,0,1,13.854,88.535ZM11.571,86.4H9.347a.529.529,0,0,1-.03-1.057c.239-.007.481,0,.719,0h3.752a.53.53,0,1,1,.083,1.057.357.357,0,0,1-.06,0c-.378,0-.752,0-1.13-.007s-.739,0-1.11,0Zm2.568-2.217a.717.717,0,0,1-.348.1q-2.217.01-4.428,0a.531.531,0,0,1-.57-.487.187.187,0,0,1,0-.043.54.54,0,0,1,.537-.54.323.323,0,0,1,.056,0c.732,0,1.465,0,2.2,0h2.227a.52.52,0,0,1,.537.394A.511.511,0,0,1,14.139,84.187Z" transform="translate(-0.025 -80.025)" fill="#fff"/>
</svg>
