<svg xmlns="http://www.w3.org/2000/svg" width="18.715" height="21.449" viewBox="0 0 18.715 21.449">
  <g id="Group_9101" data-name="Group 9101" transform="translate(-149.338 -102.867)">
    <path id="Path_5959" data-name="Path 5959" d="M167.993,378.3a6.97,6.97,0,0,0-1.208-2.591,3.206,3.206,0,0,0-2.133-1.313c-.721-.1-1.447-.157-2.171-.226a.2.2,0,0,0-.161.073,1.977,1.977,0,0,1-1.1.851,7.17,7.17,0,0,1-5.055,0,1.989,1.989,0,0,1-1.1-.849.233.233,0,0,0-.185-.073c-.5.031-.991.078-1.487.11a3.7,3.7,0,0,0-3.242,2.108,11.563,11.563,0,0,0-.68,1.632,1.713,1.713,0,0,0,.933,2.321,9.474,9.474,0,0,0,2,.717,27.076,27.076,0,0,0,6.187.6,29.953,29.953,0,0,0,6.154-.535,6.888,6.888,0,0,0,2.49-.925A1.689,1.689,0,0,0,167.993,378.3Z" transform="translate(0 -257.347)" fill="#fff"/>
    <path id="Path_5960" data-name="Path 5960" d="M197.987,112.4a1,1,0,0,0,1.168.47,1.137,1.137,0,0,0,.77-.967c.008-.712.005-1.423,0-2.135a.9.9,0,0,0-.39-.774.386.386,0,0,1-.162-.436,5.321,5.321,0,0,1,10.582.062.345.345,0,0,1-.159.363.942.942,0,0,0-.4.8c0,.694,0,1.389,0,2.083a.55.55,0,0,0,.022.2c.064.156-.007.229-.133.306a5.236,5.236,0,0,1-1.856.651l-.025,0h-.007l-.024,0h-.01l-.026,0h-.01l-.032,0h-.007l-.039,0h-.006l-.045,0h0l-.051,0h0c-.168.015-.383.031-.6.04h0a.876.876,0,0,0-.05-.12l0-.007c-.008-.016-.017-.031-.026-.047l-.011-.019-.028-.042-.015-.02-.031-.039-.014-.015a.882.882,0,0,0-.062-.063l-.024-.022-.031-.025-.03-.023-.031-.021-.036-.022-.029-.017-.058-.028-.021-.009-.062-.023-.026-.008-.052-.013-.028-.006-.055-.008-.026,0c-.027,0-.054,0-.082,0a.879.879,0,0,0,0,1.757c.027,0,.054,0,.08,0l.021,0,.069-.011.009,0c.025-.005.05-.012.074-.019l.02-.006.059-.021.015-.006c.023-.01.045-.02.066-.032l.018-.01.049-.03.017-.011q.029-.02.057-.043l.016-.014.04-.037.017-.017c.016-.017.032-.034.047-.052l.013-.016.033-.044.015-.021c.013-.019.025-.039.036-.06h0l.056-.01h0c.232-.039.5-.075.623-.091h0l.022,0,.041-.005a5.754,5.754,0,0,0,2.416-.8.423.423,0,0,1,.439-.054,1.036,1.036,0,0,0,1.427-.965c.011-.694,0-1.389,0-2.083a.875.875,0,0,0-.359-.761.6.6,0,0,1-.258-.514,6.26,6.26,0,0,0-8.795-5.078,6.1,6.1,0,0,0-3.676,5.088.594.594,0,0,1-.248.492.884.884,0,0,0-.369.757c0,.351,0,.7,0,1.054h0c0,.317-.021.636.007.951A1.7,1.7,0,0,0,197.987,112.4Z" transform="translate(-45.967)" fill="#fff"/>
    <path id="Path_5961" data-name="Path 5961" d="M249.114,144.063l-.02,0c-.19.025-.357.049-.5.071a1.393,1.393,0,1,1,.066-1.7c.245-.017.437-.037.494-.047a4.925,4.925,0,0,0,1.466-.466,3.28,3.28,0,0,0-.065-.523c-.006-.56,0-1.119,0-1.679a1.768,1.768,0,0,1,.429-1.182.409.409,0,0,0,.086-.291,4.656,4.656,0,0,0-9.183-.017.406.406,0,0,0,.072.294,1.8,1.8,0,0,1,.441,1.229c0,.634.007,1.269-.005,1.9a1.47,1.47,0,0,1-.107.626.668.668,0,0,0,.028.694c.037.067.064.14.1.209a6.739,6.739,0,0,0,2.345,2.834,2.965,2.965,0,0,0,2.127.509,4.553,4.553,0,0,0,2.959-2.1,3.631,3.631,0,0,0,.231-.33l.037-.054h0c.04-.066.076-.132.11-.2A8.508,8.508,0,0,1,249.114,144.063Z" transform="translate(-87.784 -29.869)" fill="#fff"/>
  </g>
</svg>
