<svg xmlns="http://www.w3.org/2000/svg" width="18.887" height="18.887" viewBox="0 0 18.887 18.887">
  <path id="repairing-service" d="M18.829,8.394a.615.615,0,0,0-.607-.465A2.085,2.085,0,0,1,16.795,4.3a.525.525,0,0,0,.058-.712,9.349,9.349,0,0,0-1.5-1.511.526.526,0,0,0-.718.058,2.177,2.177,0,0,1-2.355.529A2.1,2.1,0,0,1,11.008.614a.524.524,0,0,0-.464-.552A9.424,9.424,0,0,0,8.42.057.526.526,0,0,0,7.952.6,2.1,2.1,0,0,1,6.659,2.612a2.182,2.182,0,0,1-2.338-.532.526.526,0,0,0-.713-.06A9.388,9.388,0,0,0,2.081,3.53a.525.525,0,0,0,.056.717A2.093,2.093,0,0,1,2.665,6.6,2.183,2.183,0,0,1,.61,7.881a.514.514,0,0,0-.546.464,9.467,9.467,0,0,0,0,2.147.625.625,0,0,0,.619.465A2.072,2.072,0,0,1,2.623,12.25,2.1,2.1,0,0,1,2.1,14.586a.524.524,0,0,0-.057.711,9.382,9.382,0,0,0,1.494,1.512.525.525,0,0,0,.719-.057A2.173,2.173,0,0,1,6.6,16.222a2.1,2.1,0,0,1,1.278,2.05.524.524,0,0,0,.463.552,9.4,9.4,0,0,0,2.125.006.526.526,0,0,0,.467-.541,2.1,2.1,0,0,1,1.292-2.014,2.18,2.18,0,0,1,2.339.532.527.527,0,0,0,.713.06,9.4,9.4,0,0,0,1.528-1.511.525.525,0,0,0-.056-.718,2.092,2.092,0,0,1-.529-2.356A2.114,2.114,0,0,1,18.156,11l.117,0a.526.526,0,0,0,.553-.463A9.425,9.425,0,0,0,18.829,8.394ZM9.445,14.887a5.444,5.444,0,1,1,4.674-2.653L11.735,9.851A3.34,3.34,0,0,0,7.782,5.327a.378.378,0,0,0-.261.263.369.369,0,0,0,.1.361S8.8,7.137,9.2,7.531a.244.244,0,0,1,.035.175l0,.026a7.527,7.527,0,0,1-.179,1.152l-.025.024L9,8.935a7.419,7.419,0,0,1-1.17.182v0l-.02,0H7.788a.252.252,0,0,1-.181-.077c-.41-.41-1.541-1.533-1.541-1.533a.384.384,0,0,0-.275-.122.374.374,0,0,0-.352.284,3.34,3.34,0,0,0,4.525,3.948l2.41,2.41A5.417,5.417,0,0,1,9.445,14.887Z" transform="translate(-0.002 0.001)" fill="#fff"/>
</svg>
