<svg xmlns="http://www.w3.org/2000/svg" width="67.526" height="67.526" viewBox="0 0 67.526 67.526">
  <g id="Group_526" data-name="Group 526" transform="translate(-3664.308 -1477.233)">
    <path id="Path_212" data-name="Path 212" d="M3704.4,1509.086c-5.121,0-9.286,3.185-9.286,7.1s4.165,7.1,9.286,7.1a11.748,11.748,0,0,0,3.163-.435.692.692,0,0,1,.192-.027.7.7,0,0,1,.318.076l2.1,1.044-.494-1.229a.705.705,0,0,1,.3-.878,6.664,6.664,0,0,0,3.7-5.65C3713.68,1512.27,3709.515,1509.086,3704.4,1509.086Z" fill="#fff"/>
    <path id="Path_213" data-name="Path 213" d="M3704.256,1507.668l-.349-2c-1.344-3.791-5.711-6.519-10.589-6.519-6.1,0-11.069,4.141-11.069,9.23a8.737,8.737,0,0,0,4.286,7.278.7.7,0,0,1,.248.912l-.7,1.39,2.021-1.149a.727.727,0,0,1,.611-.048,12.74,12.74,0,0,0,3.138.753l1.975.073a6.866,6.866,0,0,1-.156-1.4C3693.676,1511.521,3698.41,1507.726,3704.256,1507.668Z" fill="#fff"/>
    <path id="Path_214" data-name="Path 214" d="M3698.071,1477.233A33.763,33.763,0,1,0,3731.834,1511,33.763,33.763,0,0,0,3698.071,1477.233Zm17.032,38.95a7.992,7.992,0,0,1-3.878,6.556l.971,2.412a.713.713,0,0,1-.983.9l-3.54-1.761a13.164,13.164,0,0,1-3.282.415c-4.66,0-8.615-2.382-10.089-5.687l-2.553-.094a14.322,14.322,0,0,1-3.226-.724l-3.778,2.148a.691.691,0,0,1-.352.094.718.718,0,0,1-.491-.2.709.709,0,0,1-.149-.833l1.476-2.934a10.009,10.009,0,0,1-4.409-8.106c0-5.874,5.6-10.65,12.5-10.65,5.562,0,10.371,3.046,11.968,7.584l.429,2.425c5.282.522,9.387,4.106,9.387,8.448Z" fill="#fff"/>
  </g>
</svg>
