<svg id="Group_47" data-name="Group 47" xmlns="http://www.w3.org/2000/svg" xmlns:xlink="http://www.w3.org/1999/xlink" width="29.078" height="25.444" viewBox="0 0 29.078 25.444">
  <defs>
    <clipPath id="clip-path">
      <rect id="Rectangle_24" data-name="Rectangle 24" width="29.078" height="25.444" fill="#07a0f2"/>
    </clipPath>
  </defs>
  <g id="Group_46" data-name="Group 46" clip-path="url(#clip-path)">
    <path id="Path_38" data-name="Path 38" d="M576.527,199.465H568.16v-.813A3.171,3.171,0,0,0,565,195.474h-5.3a3.171,3.171,0,0,0-3.154,3.178v.813H548.18a.362.362,0,0,0-.362.364v5.5a6.5,6.5,0,0,0,1.5,4.155v11.071a.363.363,0,0,0,.362.364h25.355a.363.363,0,0,0,.362-.364v-11.07a6.5,6.5,0,0,0,1.5-4.157v-5.5a.362.362,0,0,0-.362-.364m-19.256-.813A2.443,2.443,0,0,1,559.7,196.2H565a2.443,2.443,0,0,1,2.431,2.449v.813H557.271Zm17.4,21.538H550.038v-9.964a6.388,6.388,0,0,0,4.231,1.6h.647v2.016a.362.362,0,0,0,.36.364h2.377a.363.363,0,0,0,.362-.364v-2.016h8.679v2.016a.363.363,0,0,0,.362.364h2.375a.363.363,0,0,0,.362-.364v-2.016h.646a6.392,6.392,0,0,0,4.232-1.6Zm-19.032-6.712v-3.954h1.653v3.954Zm11.779,0v-3.954h1.652v3.954Zm8.749-8.15a5.755,5.755,0,0,1-5.728,5.77h-.646v-1.938a.363.363,0,0,0-.362-.364h-2.375a.363.363,0,0,0-.362.364V211.1h-8.679v-1.938a.363.363,0,0,0-.362-.364h-2.377a.362.362,0,0,0-.36.364V211.1h-.647a5.754,5.754,0,0,1-5.727-5.77v-5.134h27.624Z" transform="translate(-547.813 -195.474)" fill="#07a0f2"/>
  </g>
</svg>
