<svg id="Group_7" data-name="Group 7" xmlns="http://www.w3.org/2000/svg" width="87.774" height="87.774" viewBox="0 0 87.774 87.774">
  <circle id="Ellipse_1" data-name="Ellipse 1" cx="43.887" cy="43.887" r="43.887" fill="#f93069"/>
  <g id="Group_23" data-name="Group 23" transform="translate(27 18)">
    <path id="Path_17" data-name="Path 17" d="M-295.535,846.444a.822.822,0,0,1-.137-.011.825.825,0,0,1-.533-.337.833.833,0,0,1,.2-1.153,9.593,9.593,0,0,0,2.26-13.274.839.839,0,0,1,.2-1.154.813.813,0,0,1,.472-.15.823.823,0,0,1,.671.345,11.268,11.268,0,0,1-2.654,15.585.817.817,0,0,1-.473.15Z" transform="translate(314.084 -827.926)" fill="#fff"/>
    <path id="Path_18" data-name="Path 18" d="M-450.208,822.866a.808.808,0,0,1-.135-.011.818.818,0,0,1-.532-.336,11.255,11.255,0,0,1,2.654-15.585.812.812,0,0,1,.471-.15.821.821,0,0,1,.669.345.839.839,0,0,1-.2,1.153,9.593,9.593,0,0,0-2.261,13.275.833.833,0,0,1-.2,1.155A.8.8,0,0,1-450.208,822.866Z" transform="translate(454.452 -806.784)" fill="#fff"/>
    <path id="Path_19" data-name="Path 19" d="M-453.067,871.98c-4.537,0-7.84-7.484-10.755-14.088a44.693,44.693,0,0,0-3.127-6.321,5.56,5.56,0,0,1-.911-3.051,4.022,4.022,0,0,1,1.014-2.905,3.735,3.735,0,0,1,2.631-1.088,3.439,3.439,0,0,1,2.459.995l2.9,3.182V836.06l-.1-.06a7.544,7.544,0,0,1-2.442-2.207,7.7,7.7,0,0,1,1.814-10.648,7.487,7.487,0,0,1,4.375-1.405,7.545,7.545,0,0,1,6.166,3.2,7.707,7.707,0,0,1-1.813,10.649.761.761,0,0,1-.326.124l-.174.028v5.132l.308-.174a3.821,3.821,0,0,1,1.874-.489,3.828,3.828,0,0,1,3.544,2.507l.089.248.22-.145a3.769,3.769,0,0,1,2.081-.618,3.831,3.831,0,0,1,3.546,2.507l.088.247.219-.144a3.789,3.789,0,0,1,2.081-.614,3.766,3.766,0,0,1,3.747,3.684v10.8c0,8.081-7.528,12.947-7.912,13.19a.878.878,0,0,1-.423.114Zm-11.154-25.909a2.143,2.143,0,0,0-1.526.667c-.808.816-.644,2.9.073,3.92a43.4,43.4,0,0,1,3.207,6.425l.08.18c2.45,5.543,5.806,13.135,9.321,13.135h10.937l.053-.037c1.16-.811,6.947-5.183,6.947-11.69v-10.8a2.171,2.171,0,0,0-2.183-2.1,2.153,2.153,0,0,0-2.183,2.061.788.788,0,0,1-.782.791.788.788,0,0,1-.782-.791v-1.954a2.172,2.172,0,0,0-2.183-2.1,2.153,2.153,0,0,0-2.183,2.06.787.787,0,0,1-.78.791.788.788,0,0,1-.782-.791v-1.953a2.172,2.172,0,0,0-2.183-2.1,2.153,2.153,0,0,0-2.183,2.06.788.788,0,0,1-.782.791.788.788,0,0,1-.782-.791V831.876a2.153,2.153,0,0,0-2.183-2.06,2.173,2.173,0,0,0-2.185,2.1v18.818a.789.789,0,0,1-.5.739.751.751,0,0,1-.278.053.8.8,0,0,1-.58-.254l-4.238-4.647A1.881,1.881,0,0,0-464.221,846.072Zm9.01-22.753a5.937,5.937,0,0,0-3.473,1.117,6.112,6.112,0,0,0-1.438,8.441,6.21,6.21,0,0,0,.926,1.038l.345.308v-2.308a3.765,3.765,0,0,1,3.748-3.682,3.7,3.7,0,0,1,3.747,3.645v2.113l.354-.356a6.082,6.082,0,0,0,.683-7.775A5.985,5.985,0,0,0-455.212,823.318Z" transform="translate(467.86 -820.194)" fill="#fff"/>
  </g>
</svg>
