<svg id="Group_7" data-name="Group 7" xmlns="http://www.w3.org/2000/svg" width="87.774" height="87.774" viewBox="0 0 87.774 87.774">
  <circle id="Ellipse_1" data-name="Ellipse 1" cx="43.887" cy="43.887" r="43.887" fill="#f93069"/>
  <g id="Group_24" data-name="Group 24" transform="translate(22 21)">
    <path id="Path_20" data-name="Path 20" d="M-1901.366,439.7a3.121,3.121,0,0,1-1.918-.65,3.167,3.167,0,0,1-1.115-1.649l-.047-.171-.048.171a3.165,3.165,0,0,1-1.114,1.649,3.115,3.115,0,0,1-1.915.65,3.147,3.147,0,0,1-2.529-1.268,3.269,3.269,0,0,1-.607-2.125l.677-14.949v-4.444l-.086.094a8.731,8.731,0,0,1-2.105,1.683l-1.5.861a2.765,2.765,0,0,1-1.361.359,2.819,2.819,0,0,1-1.1-.221l-.015-.006-.016,0a2.878,2.878,0,0,1-.681.083,2.621,2.621,0,0,1-.826-.132l-2.294-.767a8.723,8.723,0,0,1-3.6-2.334l-.085-.092V421.4l-.112,15.063a3.072,3.072,0,0,1-.872,2.274,3.113,3.113,0,0,1-2.271.97,3.124,3.124,0,0,1-1.914-.646,3.163,3.163,0,0,1-1.115-1.641l-.048-.17-.047.171a3.144,3.144,0,0,1-3.032,2.286,3.118,3.118,0,0,1-2.275-.97,3.119,3.119,0,0,1-.869-2.316l1.484-15.1v-.779l-.048,0a3.147,3.147,0,0,1-1.763-.622,3.108,3.108,0,0,1-1.095-1.517l-1.334-4a3.949,3.949,0,0,1,.53-3.538l1.428-2a8.764,8.764,0,0,1,4.7-3.32l.312-.087c.235-.068.473-.128.708-.177a9.183,9.183,0,0,1,1.878-.194,10.077,10.077,0,0,1,8.479,4.886l1.269,2.067a3.248,3.248,0,0,0,1.333,1.216l2.32,1.141,1.336-.876a3.249,3.249,0,0,0,1.273-1.608l.212-.589a9.721,9.721,0,0,1,1.4-2.566,9.69,9.69,0,0,1,2.04-1.994,9.019,9.019,0,0,1,5.3-1.752h.076a8.61,8.61,0,0,1,1.674.177c.25.05.478.106.694.171l.892.253a8.7,8.7,0,0,1,4.38,2.9,8.462,8.462,0,0,1,1.8,5.337v7.046a2.82,2.82,0,0,1-2.3,2.816,2.789,2.789,0,0,1-.449.037h0a2.7,2.7,0,0,1-1.073-.22l-.073-.031.58,12.82a3.263,3.263,0,0,1-.607,2.122A3.146,3.146,0,0,1-1901.366,439.7Zm-27.811-17.46h.035a.749.749,0,0,1,.7.755l-.112,13.687h0a1.569,1.569,0,0,0,.508,1.072,1.66,1.66,0,0,0,1.134.446,1.642,1.642,0,0,0,1.2-.508,1.64,1.64,0,0,0,.453-1.21l.112-15.1v-6.678a.105.105,0,0,1,0-.019.164.164,0,0,0,.008-.046v-.017l-1.448-1.85a.737.737,0,0,1-.156-.549.743.743,0,0,1,.281-.5.735.735,0,0,1,.461-.161.744.744,0,0,1,.589.287l2.513,3.2a7.159,7.159,0,0,0,3.4,2.4l2.294.767a1.239,1.239,0,0,0,.393.064,1.226,1.226,0,0,0,.721-.236,1.217,1.217,0,0,0,.513-1,1.223,1.223,0,0,0-.688-1.108l-2.725-1.34a4.725,4.725,0,0,1-1.95-1.777l-1.278-2.086a8.536,8.536,0,0,0-7.176-4.154c-.073,0-.146,0-.219,0a7.389,7.389,0,0,0-1.278.147c-.216.04-.444.095-.7.166l-.309.087a7.292,7.292,0,0,0-3.9,2.75l-1.422,2a2.443,2.443,0,0,0-.331,2.192l1.334,4.006a1.63,1.63,0,0,0,1.43,1.1l.053,0,0-6.681a.75.75,0,0,1,.749-.749.749.749,0,0,1,.749.749V421.4l-1.484,15.136a1.6,1.6,0,0,0,.453,1.168,1.639,1.639,0,0,0,1.192.508,1.649,1.649,0,0,0,1.649-1.564l1.484-13.731A.746.746,0,0,1-1929.177,422.245Zm24.731,0a.75.75,0,0,1,.749.711l.679,13.6a1.8,1.8,0,0,0,.455,1.108,1.576,1.576,0,0,0,1.053.532c.048,0,.1.006.143.006a1.643,1.643,0,0,0,1.193-.507,1.646,1.646,0,0,0,.453-1.215l-.686-15.422v-8.708a.75.75,0,0,1,.749-.749.75.75,0,0,1,.749.749V421a1.248,1.248,0,0,0,1.247,1.246,1.248,1.248,0,0,0,1.247-1.246v-7.2a6.9,6.9,0,0,0-1.432-4.305,7.19,7.19,0,0,0-3.666-2.445l-.895-.256c-.222-.064-.437-.117-.656-.16a7.253,7.253,0,0,0-1.394-.132,7.518,7.518,0,0,0-4.434,1.477,8.141,8.141,0,0,0-2.87,3.822l-.224.62a4.739,4.739,0,0,1-1.858,2.348l-.84.55.033.042a2.711,2.711,0,0,1,.579,1.681,2.725,2.725,0,0,1-.218,1.032l-.054.133,1.531-.872a8.343,8.343,0,0,0,2.717-2.859.7.7,0,0,1,.1-.126l.014-.014V412.32a.75.75,0,0,1,.749-.749.75.75,0,0,1,.749.749V421.4l-.686,15.087a1.636,1.636,0,0,0,.453,1.215,1.624,1.624,0,0,0,1.184.507c.056,0,.113,0,.169-.008a1.721,1.721,0,0,0,1.494-1.661l.677-13.58A.749.749,0,0,1-1904.446,422.246Zm0-17.657a4.744,4.744,0,0,1-4.739-4.739,4.744,4.744,0,0,1,4.739-4.739,4.744,4.744,0,0,1,4.739,4.739A4.744,4.744,0,0,1-1904.446,404.589Zm0-8.174a3.437,3.437,0,0,0-3.432,3.435,3.436,3.436,0,0,0,3.432,3.432,3.436,3.436,0,0,0,3.432-3.432A3.437,3.437,0,0,0-1904.446,396.415Zm-23.943,8.174a4.744,4.744,0,0,1-4.739-4.739,4.744,4.744,0,0,1,4.739-4.739,4.744,4.744,0,0,1,4.739,4.739A4.744,4.744,0,0,1-1928.389,404.589Zm0-8.174a3.437,3.437,0,0,0-3.432,3.435,3.436,3.436,0,0,0,3.432,3.432,3.436,3.436,0,0,0,3.432-3.432A3.437,3.437,0,0,0-1928.389,396.415Zm15.962,4.982a.749.749,0,0,1-.749-.748v-1.6a.749.749,0,0,1,.749-.749.749.749,0,0,1,.749.749v1.6A.749.749,0,0,1-1912.427,401.4Zm-3.99,0a.749.749,0,0,1-.749-.748v-1.6a.75.75,0,0,1,.749-.749.749.749,0,0,1,.749.749v1.6A.749.749,0,0,1-1916.417,401.4Zm-3.99,0a.749.749,0,0,1-.749-.748v-1.6a.75.75,0,0,1,.749-.749.75.75,0,0,1,.749.749v1.6A.749.749,0,0,1-1920.408,401.4Z" transform="translate(1939.162 -395.111)" fill="#fff"/>
  </g>
</svg>
