<svg id="Group_7" data-name="Group 7" xmlns="http://www.w3.org/2000/svg" width="87.774" height="87.774" viewBox="0 0 87.774 87.774">
  <circle id="Ellipse_1" data-name="Ellipse 1" cx="43.887" cy="43.887" r="43.887" fill="#f93069"/>
  <path id="Path_21" data-name="Path 21" d="M1143.6,963.07c-2.065,0-3.869,2.093-3.869,2.093a5.057,5.057,0,0,0-3.869-2.09,4.539,4.539,0,0,0-4.426,4.533,4.361,4.361,0,0,0,1.455,3.046l6.843,7.028,6.863-7.031a3.914,3.914,0,0,0,1.429-3.042A4.545,4.545,0,0,0,1143.6,963.07Zm-3.869-11.017a17.549,17.549,0,1,1-17.549,17.549A17.522,17.522,0,0,1,1139.731,952.053Zm0-2.358a19.907,19.907,0,1,0,19.907,19.907A19.932,19.932,0,0,0,1139.731,949.7Z" transform="translate(-1095.824 -925.695)" fill="#fff"/>
</svg>
