<svg xmlns="http://www.w3.org/2000/svg" xmlns:xlink="http://www.w3.org/1999/xlink" width="32.5" height="34.597" viewBox="0 0 32.5 34.597">
  <defs>
    <clipPath id="clip-path">
      <path id="Path_4097" data-name="Path 4097" d="M202.75,321h32.5v34.6h-32.5Zm0,0" transform="translate(-202.75 -321)"/>
    </clipPath>
  </defs>
  <g id="Group_4458" data-name="Group 4458" transform="translate(-6477 18472)">
    <g id="Group_4456" data-name="Group 4456" transform="translate(6477 -18472)" clip-path="url(#clip-path)">
      <path id="Path_4096" data-name="Path 4096" d="M235.316,338.3h-3.257v-8.649L223.375,321H206.007v17.3H202.75V349.11h3.257V355.6h26.051V349.11h3.257V338.3" transform="translate(-202.75 -321)" fill="#c00"/>
    </g>
    <path id="Path_4098" data-name="Path 4098" d="M215.172,356.528h23.882v-5.406H215.172Zm16.284-31.985v7.119H238.6Zm-1.085,8.2v-8.649h-15.2v16.217h23.882v-7.568Zm.035,12.822a2.862,2.862,0,0,0-1.1-2.444,4.2,4.2,0,0,0-2.665-.693,13.284,13.284,0,0,0-1.99.135v6.367a12.626,12.626,0,0,0,1.671.1,4.68,4.68,0,0,0,3-.837A3.278,3.278,0,0,0,230.406,345.565Zm-3.766,2.318a2.736,2.736,0,0,1-.512-.029v-4.243a3.086,3.086,0,0,1,.666-.057,1.863,1.863,0,0,1,2.048,2.059A2.014,2.014,0,0,1,226.64,347.883Zm-5.884-1.212a3.02,3.02,0,0,0,2.115-.684,2.064,2.064,0,0,0,.6-1.538,1.9,1.9,0,0,0-.693-1.5,3.133,3.133,0,0,0-1.99-.52,12.176,12.176,0,0,0-1.99.135v6.4h1.459v-2.318A3.741,3.741,0,0,0,220.756,346.671Zm-.5-3.078a2.525,2.525,0,0,1,.609-.057c.733,0,1.148.356,1.148.951,0,.665-.483,1.058-1.264,1.058a2.272,2.272,0,0,1-.493-.038Zm15.341.087v-1.2h-3.979v6.483h1.478v-2.607h2.336v-1.192h-2.336V343.68h2.5" transform="translate(6266.169 -18795.012)" fill="#fff"/>
  </g>
</svg>
