<svg id="Group_49" data-name="Group 49" xmlns="http://www.w3.org/2000/svg" xmlns:xlink="http://www.w3.org/1999/xlink" width="28.38" height="29.67" viewBox="0 0 28.38 29.67">
  <defs>
    <clipPath id="clip-path">
      <rect id="Rectangle_25" data-name="Rectangle 25" width="28.38" height="29.67" fill="#75d150"/>
    </clipPath>
  </defs>
  <g id="Group_48" data-name="Group 48" clip-path="url(#clip-path)">
    <path id="Path_39" data-name="Path 39" d="M688.692,218.019V205.962a1.311,1.311,0,0,0-.632-1.158,1.609,1.609,0,0,0-.883-.155h-5.838c-.707,0-1.652-.152-2.087.566a2.972,2.972,0,0,0-.2,1.553v11.176a.517.517,0,0,0,1.034,0v-12c0-.392.761-.246,1.01-.246h5.915a2.766,2.766,0,0,1,.49,0c.185.035.155.232.155.371v11.949a.517.517,0,0,0,1.034,0" transform="translate(-669.888 -193.012)" fill="#75d150"/>
    <path id="Path_40" data-name="Path 40" d="M679.1,218.239V206.8a1.27,1.27,0,0,0-1.229-1.36h-3.223a.523.523,0,0,0,0,1.045H677.2c.226,0,.667-.092.843.087.061.061.028.29.028.362v11.307a.518.518,0,0,0,1.035,0" transform="translate(-671.749 -192.707)" fill="#75d150"/>
    <path id="Path_41" data-name="Path 41" d="M692.777,205.438h-3.814a1.671,1.671,0,0,0-1.147.282c-.56.446-.454,1.194-.454,1.832V216.5a.517.517,0,0,0,1.034,0v-9.729c0-.192.086-.284.28-.284h4.1a.523.523,0,0,0,0-1.045" transform="translate(-666.727 -192.707)" fill="#75d150"/>
    <path id="Path_42" data-name="Path 42" d="M693.539,198.958a13.8,13.8,0,0,0-16.729.188.539.539,0,0,0-.185.715.514.514,0,0,0,.707.188,12.8,12.8,0,0,1,15.686-.188.515.515,0,0,0,.707-.188.539.539,0,0,0-.185-.715" transform="translate(-670.835 -196.212)" fill="#75d150"/>
    <path id="Path_43" data-name="Path 43" d="M673.039,204.905a14.09,14.09,0,0,0,2.265,10.476c-.017-.134-.034-.269-.051-.4q-.758,2.052-1.514,4.1-.377,1.027-.756,2.053a1.445,1.445,0,0,0-.157.91,1.182,1.182,0,0,0,.464.661c.581.389,1.186.025,1.76-.191l2.039-.769,4.2-1.583-.4-.054a13.964,13.964,0,0,0,10.591.449,14.12,14.12,0,0,0,7.032-5.738,14.339,14.339,0,0,0,1.85-10.364c-.13-.66-1.126-.38-1,.279a13.289,13.289,0,0,1-1.793,9.635,12.827,12.827,0,0,1-11.857,5.951,12.62,12.62,0,0,1-2.978-.6,12.073,12.073,0,0,1-1.325-.516c-.287-.131-.507-.011-.781.091-.3.113-.595.225-.892.337l-3.186,1.2-1.528.577-.765.287-.382.145c-.022.007-.014.014-.053-.046,0,0,.161-.417.2-.514q.143-.383.283-.769l.616-1.668q.59-1.6,1.182-3.208a1.111,1.111,0,0,0,.142-.661,2.511,2.511,0,0,0-.367-.6,13.07,13.07,0,0,1-1.608-3.654,12.613,12.613,0,0,1-.238-5.542c.119-.658-.878-.94-1-.279" transform="translate(-672.265 -193.224)" fill="#75d150"/>
    <path id="Path_44" data-name="Path 44" d="M683.684,198.338a3.234,3.234,0,0,1,1.347,6.155,3.194,3.194,0,0,1-3.872-.95,3.291,3.291,0,0,1,.087-4.063,3.216,3.216,0,0,1,2.438-1.143.523.523,0,0,0,0-1.045,4.275,4.275,0,0,0-3.789,2.383,4.346,4.346,0,0,0,.507,4.573,4.207,4.207,0,0,0,7.395-1.7,4.3,4.3,0,0,0-4.112-5.257.523.523,0,0,0,0,1.045" transform="translate(-669.728 -195.806)" fill="#75d150"/>
    <path id="Path_45" data-name="Path 45" d="M676.131,200.021a2.709,2.709,0,1,1-2.68,2.71,2.725,2.725,0,0,1,2.68-2.71.524.524,0,0,0,0-1.046,3.762,3.762,0,0,0-2,6.919,3.721,3.721,0,0,0,4.464-.353,3.821,3.821,0,0,0,.883-4.437,3.735,3.735,0,0,0-3.346-2.129.524.524,0,0,0,0,1.046" transform="translate(-672.411 -195.166)" fill="#75d150"/>
    <path id="Path_46" data-name="Path 46" d="M691.127,200.021a2.709,2.709,0,1,1-2.679,2.71,2.726,2.726,0,0,1,2.679-2.71.524.524,0,0,0,0-1.046,3.762,3.762,0,0,0-2,6.919,3.722,3.722,0,0,0,4.466-.353,3.825,3.825,0,0,0,.882-4.437,3.735,3.735,0,0,0-3.346-2.129.524.524,0,0,0,0,1.046" transform="translate(-666.706 -195.166)" fill="#75d150"/>
  </g>
</svg>
