<svg xmlns="http://www.w3.org/2000/svg" width="25.499" height="30.585" viewBox="0 0 25.499 30.585">
  <g id="Group_4207_8_" transform="translate(-42.594 -0.003)">
    <g id="Group_4207_9_" transform="translate(42.594 0.003)">
      <g id="bell_1_" transform="translate(0 0)">
        <g id="Group_4070_1_">
          <g id="Group_4069_1_">
            <path id="Path_3995_1_" d="M54,13.8l-2.187-3.65a10.841,10.841,0,0,1-1.547-5.574v-3.2a8.926,8.926,0,0,0-6.381-8.543V-9.449A2.555,2.555,0,0,0,41.324-12a2.55,2.55,0,0,0-2.551,2.551v2.288a8.932,8.932,0,0,0-6.381,8.543v3.2a10.835,10.835,0,0,1-1.541,5.574L28.682,13.8a.634.634,0,0,0,.221.872.617.617,0,0,0,.329.09h24.22a.635.635,0,0,0,.639-.633A.622.622,0,0,0,54,13.8Z" transform="translate(-28.592 12)" fill="#5271FF"/>
          </g>
        </g>
        <g id="Group_4072_1_" transform="translate(8.733 28.037)">
          <g id="Group_4071_1_" transform="translate(0)">
            <path id="Path_3996_1_" d="M168.6,437.5a4.433,4.433,0,0,0,8.024,0Z" transform="translate(-168.6 -437.5)" fill="#5271FF"/>
          </g>
        </g>
      </g>
    </g>
  </g>
</svg>
