<svg xmlns="http://www.w3.org/2000/svg" xmlns:xlink="http://www.w3.org/1999/xlink" width="42.728" height="42.729" viewBox="0 0 42.728 42.729">
  <defs>
    <filter id="Union_8" x="0" y="0" width="42.728" height="42.729" filterUnits="userSpaceOnUse">
      <feOffset input="SourceAlpha"/>
      <feGaussianBlur stdDeviation="3" result="blur"/>
      <feFlood flood-opacity="0.529"/>
      <feComposite operator="in" in2="blur"/>
      <feComposite in="SourceGraphic"/>
    </filter>
  </defs>
  <g transform="matrix(1, 0, 0, 1, 0, 0)" filter="url(#Union_8)">
    <path id="Union_8-2" data-name="Union 8" d="M-4435.536,9768.724a23.594,23.594,0,0,1-14.278-7.186A23.641,23.641,0,0,1-4457,9747.26a.836.836,0,0,1,.468-.844l4.879-2.3a.858.858,0,0,1,1.105.314l3.048,4.722a.85.85,0,0,1-.125,1.059l-1.912,1.908a.861.861,0,0,0-.243.711,9.962,9.962,0,0,0,3.013,5.663,9.97,9.97,0,0,0,5.666,3.016.841.841,0,0,0,.711-.243l1.9-1.912a.847.847,0,0,1,1.052-.12l4.729,3.042a.845.845,0,0,1,.314,1.1l-2.3,4.884a.836.836,0,0,1-.751.473A.731.731,0,0,1-4435.536,9768.724Zm1.559-12.354a10.678,10.678,0,0,0-10.66-10.665.854.854,0,0,1-.855-.855.854.854,0,0,1,.855-.851,12.382,12.382,0,0,1,12.364,12.366.851.851,0,0,1-.854.853A.85.85,0,0,1-4433.977,9756.37Zm-4.261,0a6.4,6.4,0,0,0-6.394-6.4.853.853,0,0,1-.855-.854.855.855,0,0,1,.855-.855,8.107,8.107,0,0,1,8.1,8.1.859.859,0,0,1-.855.853A.85.85,0,0,1-4438.237,9756.37Z" transform="translate(4466 -9735)" fill="#fff"/>
  </g>
</svg>
