<svg xmlns="http://www.w3.org/2000/svg" viewBox="0 0 119.48 119.48"><defs><style>.cls-1{fill:#4f85c5;}.cls-2{fill:#fff;}</style></defs><g id="Layer_2" data-name="Layer 2"><g id="Layer_1-2" data-name="Layer 1"><circle class="cls-1" cx="59.74" cy="59.74" r="59.74"/><path class="cls-2" d="M83.16,91.74c-.67-.07-1.33-.17-2-.22A55.59,55.59,0,0,1,67,88.5,56.89,56.89,0,0,1,47.79,77.17,57.6,57.6,0,0,1,30.89,51a56.24,56.24,0,0,1-2.27-11.19c-.19-1.93-.26-3.88-.27-5.81a5,5,0,0,1,5-5.06q5.73,0,11.46,0a4.94,4.94,0,0,1,5,4.79,44.5,44.5,0,0,0,1,8.38c.28,1.13.62,2.24.91,3.36a5,5,0,0,1-1,4.49q-2.64,3.45-5.25,6.94a.83.83,0,0,0,0,.69A38.59,38.59,0,0,0,61.52,74c1.35.74,1.34.77,2.58-.17,2.09-1.59,4.15-3.2,6.25-4.74a4.9,4.9,0,0,1,4.2-.78c2,.47,4,1,6.07,1.4a32.05,32.05,0,0,0,5.18.44,5.2,5.2,0,0,1,5.25,4.16.79.79,0,0,0,.08.16v13a16.45,16.45,0,0,1-1.06,2.29,5.09,5.09,0,0,1-3.23,2Z"/></g></g></svg>