<svg xmlns="http://www.w3.org/2000/svg" width="22.141" height="22.141" viewBox="0 0 22.141 22.141">
  <path id="Subtraction_1" data-name="Subtraction 1" d="M11.071,22.141a11.07,11.07,0,1,1,11.07-11.07A11.083,11.083,0,0,1,11.071,22.141ZM5.479,9.674a1.118,1.118,0,0,0-.8.329l-.76.76a1.127,1.127,0,0,0,0,1.593l4.136,4.136a1.112,1.112,0,0,0,.616.314,1.177,1.177,0,0,0,.228.022,1.153,1.153,0,0,0,.822-.339l8.481-8.481a1.165,1.165,0,0,0,0-1.645L17.5,5.654a1.166,1.166,0,0,0-1.646,0L8.891,12.618,6.276,10A1.119,1.119,0,0,0,5.479,9.674Z" fill="#fff"/>
</svg>
