<svg xmlns="http://www.w3.org/2000/svg" xmlns:xlink="http://www.w3.org/1999/xlink" width="14.477" height="18.127" viewBox="0 0 14.477 18.127">
  <defs>
    <clipPath id="clip-path">
      <path id="Path_4681" data-name="Path 4681" d="M590.8,243h14.477v18.127H590.8Zm0,0" transform="translate(-590.805 -243)" fill="#f44336"/>
    </clipPath>
  </defs>
  <g id="surface1" transform="translate(0)">
    <g id="Group_5497" data-name="Group 5497" clip-path="url(#clip-path)">
      <path id="Path_4680" data-name="Path 4680" d="M604.114,259.2l.6-11.386h.4a.268.268,0,0,0,.284-.283v-1.218a1.338,1.338,0,0,0-1.364-1.331h-2.414l-.086-.4A2.121,2.121,0,0,0,599.541,243H597.3a2.121,2.121,0,0,0-1.988,1.586l-.085.4H592.44a1.514,1.514,0,0,0-1.534,1.331v1.218a.268.268,0,0,0,.284.283h.71l.937,11.386a2.118,2.118,0,0,0,2.074,1.926h7.129A2.1,2.1,0,0,0,604.114,259.2Zm-8.237-14.5a1.543,1.543,0,0,1,1.42-1.133h2.244a1.544,1.544,0,0,1,1.42,1.133l.057.283h-5.2Zm-4.4,1.614c0-.4.483-.765.966-.765h11.589a.769.769,0,0,1,.8.765v.935H591.474Zm1.931,12.831-.937-11.33h11.674l-.6,11.33a1.539,1.539,0,0,1-1.505,1.416h-7.1A1.544,1.544,0,0,1,593.406,259.145Zm0,0" transform="translate(-590.901 -243)" fill="#f44336"/>
    </g>
    <path id="Path_4682" data-name="Path 4682" d="M718.108,405a.268.268,0,0,0-.284.283v7.364a.284.284,0,0,0,.568,0v-7.364A.268.268,0,0,0,718.108,405Zm0,0" transform="translate(-710.718 -395.936)" fill="#f44336"/>
    <path id="Path_4683" data-name="Path 4683" d="M718.108,339.188a.268.268,0,0,0-.284.283v1.983a.284.284,0,0,0,.568,0v-1.983A.268.268,0,0,0,718.108,339.188Zm0,0" transform="translate(-710.718 -333.806)" fill="#f44336"/>
    <path id="Path_4684" data-name="Path 4684" d="M665.307,339.188a.284.284,0,0,0-.284.283l.426,11.046a.28.28,0,0,0,.284.255.268.268,0,0,0,.284-.283l-.426-11.046A.262.262,0,0,0,665.307,339.188Zm0,0" transform="translate(-660.871 -333.806)" fill="#f44336"/>
    <path id="Path_4685" data-name="Path 4685" d="M768.114,419.68a.268.268,0,0,0-.284.283l-.256,6.543a.268.268,0,0,0,.284.283.28.28,0,0,0,.284-.255l.227-6.543A.286.286,0,0,0,768.114,419.68Zm0,0" transform="translate(-757.684 -409.795)" fill="#f44336"/>
    <path id="Path_4686" data-name="Path 4686" d="M773.558,339.7a.284.284,0,0,0-.284.283l-.114,2.747a.318.318,0,0,0,.284.34.333.333,0,0,0,.284-.312l.114-2.776A.268.268,0,0,0,773.558,339.7Zm0,0" transform="translate(-762.958 -334.285)" fill="#f44336"/>
  </g>
</svg>
