<svg id="diamond" xmlns="http://www.w3.org/2000/svg" width="25.303" height="21.421" viewBox="0 0 25.303 21.421">
  <g id="Group_3819" data-name="Group 3819" transform="translate(13.907 5.627)">
    <g id="Group_3818" data-name="Group 3818">
      <path id="Path_3888" data-name="Path 3888" d="M286.118,153.145,281.4,168.078l11.4-14.933Z" transform="translate(-281.402 -153.145)" fill="#fff"/>
    </g>
  </g>
  <g id="Group_3821" data-name="Group 3821" transform="translate(0.053 0.345)">
    <g id="Group_3820" data-name="Group 3820">
      <path id="Path_3889" data-name="Path 3889" d="M4.7,46.263l-3.62,4.344H7.236Z" transform="translate(-1.082 -46.263)" fill="#fff"/>
    </g>
  </g>
  <g id="Group_3823" data-name="Group 3823" transform="translate(19.095 0.345)">
    <g id="Group_3822" data-name="Group 3822">
      <path id="Path_3890" data-name="Path 3890" d="M388.92,46.263l-2.534,4.344h6.154Z" transform="translate(-386.386 -46.263)" fill="#fff"/>
    </g>
  </g>
  <g id="Group_3825" data-name="Group 3825" transform="translate(0 5.627)">
    <g id="Group_3824" data-name="Group 3824">
      <path id="Path_3891" data-name="Path 3891" d="M6.681,153.145H0l11.4,14.933Z" transform="translate(0 -153.145)" fill="#fff"/>
    </g>
  </g>
  <g id="Group_3827" data-name="Group 3827" transform="translate(13.784 0)">
    <g id="Group_3826" data-name="Group 3826">
      <path id="Path_3892" data-name="Path 3892" d="M278.906,39.279l4.4,4.4,2.565-4.4Z" transform="translate(-278.906 -39.279)" fill="#fff"/>
    </g>
  </g>
  <g id="Group_3829" data-name="Group 3829" transform="translate(4.558 0)">
    <g id="Group_3828" data-name="Group 3828">
      <path id="Path_3893" data-name="Path 3893" d="M92.232,39.279l2.565,4.4,4.4-4.4Z" transform="translate(-92.232 -39.279)" fill="#fff"/>
    </g>
  </g>
  <g id="Group_3831" data-name="Group 3831" transform="translate(7.664 5.627)">
    <g id="Group_3830" data-name="Group 3830">
      <path id="Path_3894" data-name="Path 3894" d="M155.076,153.145l4.988,15.794,4.988-15.794Z" transform="translate(-155.076 -153.145)" fill="#fff"/>
    </g>
  </g>
  <g id="Group_3833" data-name="Group 3833" transform="translate(8.156 0.194)">
    <g id="Group_3832" data-name="Group 3832" transform="translate(0 0)">
      <path id="Path_3895" data-name="Path 3895" d="M169.535,43.208l-4.5,4.5h8.991Z" transform="translate(-165.04 -43.208)" fill="#fff"/>
    </g>
  </g>
</svg>
