<svg xmlns="http://www.w3.org/2000/svg" xmlns:xlink="http://www.w3.org/1999/xlink" width="27.4" height="15.14" viewBox="0 0 27.4 15.14">
  <defs>
    <clipPath id="clip-path">
      <path id="Path_4100" data-name="Path 4100" d="M180,233.551h27.4v15.14H180Zm0,0" transform="translate(-180 -233.551)" fill="#5271FF"/>
    </clipPath>
  </defs>
  <g id="surface1" transform="translate(-180 -233.551)">
    <g id="Group_4468" data-name="Group 4468" transform="translate(180 233.551)" clip-path="url(#clip-path)">
      <path id="Path_4099" data-name="Path 4099" d="M204.448,240.819a3.209,3.209,0,0,0-1.12.2,5.35,5.35,0,0,0-5.1-4.793,4.715,4.715,0,0,0-1.754.339v3.7h2.937a.529.529,0,0,1,.37.894l-4.976,4.967a.532.532,0,0,1-.743,0L189.1,241.19a.506.506,0,0,1-.062-.069.531.531,0,0,1,.359-.847.538.538,0,0,1,.061-.005h2.8V233.85a5.784,5.784,0,0,0-1.721-.264,6.441,6.441,0,0,0-6.075,5.076,4.966,4.966,0,0,0-3.74,4.978,4.855,4.855,0,0,0,4.605,5.071,4.229,4.229,0,0,0,.83-.086,1.922,1.922,0,0,0,.319.029h17.551a1.952,1.952,0,0,0,.656-.114,3.9,3.9,0,0,0-.24-7.721Zm0,0" transform="translate(-180.644 -233.582)" fill="#5271FF"/>
    </g>
  </g>
</svg>
