<svg xmlns="http://www.w3.org/2000/svg" xmlns:xlink="http://www.w3.org/1999/xlink" width="46.309" height="37.578" viewBox="0 0 46.309 37.578">
  <defs>
    <filter id="Union_7" x="0" y="0" width="46.309" height="37.578" filterUnits="userSpaceOnUse">
      <feOffset input="SourceAlpha"/>
      <feGaussianBlur stdDeviation="3" result="blur"/>
      <feFlood flood-opacity="0.529"/>
      <feComposite operator="in" in2="blur"/>
      <feComposite in="SourceGraphic"/>
    </filter>
  </defs>
  <g transform="matrix(1, 0, 0, 1, 0, 0)" filter="url(#Union_7)">
    <path id="Union_7-2" data-name="Union 7" d="M-4454.563,9763.578a2.654,2.654,0,0,1-1.671-.551l8.086-7.06c.2.125.39.245.559.351q.908.584,1.473.911a9.427,9.427,0,0,0,1.5.667,5.161,5.161,0,0,0,1.752.343h.032a5.161,5.161,0,0,0,1.752-.343,9.528,9.528,0,0,0,1.5-.667q.566-.327,1.473-.911.268-.166.559-.351l8.086,7.06a2.654,2.654,0,0,1-1.671.551Zm19.654-8.745q1.989-1.389,4.83-3.31a7.6,7.6,0,0,0,1.389-1.211v10.742Zm-22.09-4.521a7.294,7.294,0,0,0,1.4,1.211q2.952,2.005,4.817,3.308l-6.221,6.224Zm14.156,6.147h-.018a2.8,2.8,0,0,1-.789-.125,4.936,4.936,0,0,1-.909-.377c-.321-.167-.6-.316-.821-.451s-.512-.311-.853-.529c-.179-.112-.323-.2-.436-.276s-.186-.115-.235-.147c-.441-.271-.975-.6-1.6-.982-.728-.443-1.573-.963-2.546-1.556q-2.7-1.646-3.237-1.98a7.475,7.475,0,0,1-1.85-1.607,3.037,3.037,0,0,1-.867-1.9,2.593,2.593,0,0,1,.654-1.808,2.4,2.4,0,0,1,1.872-.724h23.256a2.627,2.627,0,0,1,1.777.652,2.022,2.022,0,0,1,.75,1.573,3.393,3.393,0,0,1-.772,2.1,7.125,7.125,0,0,1-1.928,1.71l-5.795,3.541c-.718.441-1.255.768-1.6.978-.052.032-.132.081-.238.147s-.257.164-.434.276q-.515.328-.853.529c-.228.135-.5.284-.823.451a4.936,4.936,0,0,1-.909.377,2.8,2.8,0,0,1-.789.125Z" transform="translate(4466 -9735)" fill="#fff"/>
  </g>
</svg>
