<svg xmlns="http://www.w3.org/2000/svg" width="21.188" height="11.757" viewBox="0 0 21.188 11.757">
  <g id="Group_7412" data-name="Group 7412" transform="translate(0 0)">
    <path id="Path_230" data-name="Path 230" d="M35.736,328.1a2.321,2.321,0,0,0,1.25-.33l-6.05-4.239-.419.211q-.679.351-1.1.547a8.2,8.2,0,0,1-1.126.4,4.707,4.707,0,0,1-1.311.2h-.024a4.705,4.705,0,0,1-1.311-.2,8.177,8.177,0,0,1-1.126-.4q-.423-.2-1.1-.547L23,323.525l-6.051,4.241a2.322,2.322,0,0,0,1.25.33Z" transform="translate(-16.372 -316.339)" fill="#545454"/>
    <path id="Path_231" data-name="Path 231" d="M1.051,199.282A5.367,5.367,0,0,1,0,198.555V205l4.657-3.736Q3.259,200.486,1.051,199.282Z" transform="translate(0 -194.764)" fill="#545454"/>
    <path id="Path_232" data-name="Path 232" d="M416.923,199.282q-2.126,1.155-3.614,1.988l4.655,3.735v-6.45A5.568,5.568,0,0,1,416.923,199.282Z" transform="translate(-396.776 -194.764)" fill="#545454"/>
    <path id="Path_233" data-name="Path 233" d="M19.3,59.013H1.9a2.047,2.047,0,0,0-1.4.434,1.389,1.389,0,0,0-.491,1.085,1.682,1.682,0,0,0,.65,1.14,5.43,5.43,0,0,0,1.383.964q.4.2,2.424,1.19c.728.356,1.361.667,1.9.934l1.193.59.177.089.326.166q.384.2.638.317t.615.271a4.4,4.4,0,0,0,.68.225,2.6,2.6,0,0,0,.591.075h.024a2.6,2.6,0,0,0,.591-.075,4.394,4.394,0,0,0,.68-.225q.361-.15.615-.271t.638-.317l.326-.166.177-.089,1.2-.587,4.337-2.127a5.133,5.133,0,0,0,1.442-1.027,1.811,1.811,0,0,0,.579-1.261,1.137,1.137,0,0,0-.562-.944A2.265,2.265,0,0,0,19.3,59.013Z" transform="translate(-0.006 -59.013)" fill="#545454"/>
  </g>
</svg>
