<svg xmlns="http://www.w3.org/2000/svg" width="20.759" height="12.374" viewBox="0 0 20.759 12.374">
  <g id="eye" transform="translate(-2 -98.725)">
    <path id="Path_4868" data-name="Path 4868" d="M10.38,98.725c-3.966,0-7.563,2.17-10.217,5.695a.822.822,0,0,0,0,.981c2.654,3.529,6.251,5.7,10.217,5.7s7.563-2.17,10.217-5.695a.822.822,0,0,0,0-.981C17.943,100.895,14.346,98.725,10.38,98.725Zm.285,10.544a4.366,4.366,0,1,1,4.072-4.072A4.369,4.369,0,0,1,10.664,109.269Zm-.132-2.013a2.351,2.351,0,1,1,2.2-2.2A2.347,2.347,0,0,1,10.532,107.256Z" transform="translate(2 0)" fill="#545454"/>
  </g>
</svg>
