<svg xmlns="http://www.w3.org/2000/svg" xmlns:xlink="http://www.w3.org/1999/xlink" width="27.619" height="26.67" viewBox="0 0 27.619 26.67">
  <defs>
    <clipPath id="clip-path">
      <path id="Path_4109" data-name="Path 4109" d="M180,259h27.619v18.045H180Zm0,0" transform="translate(-180 -259)"/>
    </clipPath>
    <clipPath id="clip-path-2">
      <path id="Path_4119" data-name="Path 4119" d="M319,184.051h7.48v7.82H319Zm0,0" transform="translate(-319 -184.051)"/>
    </clipPath>
  </defs>
  <g id="surface1" transform="translate(-180 -184.051)">
    <path id="Path_4107" data-name="Path 4107" d="M232.951,287.938h-.92v.92h.92v-.92" transform="translate(-46.043 -91.931)" fill="#fcfcfc"/>
    <g id="Group_4499" data-name="Group 4499" transform="translate(180 192.676)" clip-path="url(#clip-path)">
      <path id="Path_4108" data-name="Path 4108" d="M206.741,276.982h-.92v-5.518a.46.46,0,0,1,.92,0Zm-2.761,0v-1.839h.92v1.839Zm-2.761-2.3V273.3h.459a.457.457,0,0,0,.368-.185l1.656-2.205a1.38,1.38,0,0,0-2.207-1.656l-.162.215a1.836,1.836,0,0,1,3.568.613v4.138h-2.3a.46.46,0,1,0,0,.919h.46v1.839h-1.84Zm-6.9,2.3H193.4v-1.839h.921Zm-6.9-3.679H200.3v.92H187.417Zm-.92,3.679h-1.84v-1.839h.46a.46.46,0,1,0,0-.919h-2.3v-4.138a1.836,1.836,0,0,1,3.568-.613l-.162-.215a1.38,1.38,0,1,0-2.207,1.656l1.656,2.205a.456.456,0,0,0,.368.185h.459Zm-3.681-1.839h.92v1.839h-.92Zm-1.84-3.678a.46.46,0,0,1,.92,0v5.518h-.92Zm.46-7.357a3.221,3.221,0,1,1,3.221,3.219A3.224,3.224,0,0,1,181.435,264.107Zm8.586,7.357a.917.917,0,0,1,.893.7l.056.223h-4.7l-1.519-2.024a.454.454,0,0,1-.043-.481.477.477,0,0,1,.78-.07l1.1,1.471a.457.457,0,0,0,.368.185Zm6.781.7a.917.917,0,0,1,.893-.7h3.063a.457.457,0,0,0,.368-.185l1.1-1.47a.476.476,0,0,1,.78.068.457.457,0,0,1-.043.483l-1.519,2.022h-4.7Zm3.038-8.054a3.221,3.221,0,1,1,3.22,3.219A3.223,3.223,0,0,1,199.84,264.107Zm6.441,5.978a1.4,1.4,0,0,0-.46.084v-.084a2.751,2.751,0,0,0-1.092-2.193,4.141,4.141,0,1,0-3.336,0,2.752,2.752,0,0,0-1.093,2.193v.459h-2.6a1.84,1.84,0,0,0-1.786,1.394l-.111.445h-3.879l-.111-.445a1.84,1.84,0,0,0-1.786-1.394h-2.6v-.459a2.752,2.752,0,0,0-1.093-2.193,4.141,4.141,0,1,0-3.336,0,2.752,2.752,0,0,0-1.092,2.193v.084a1.369,1.369,0,0,0-1.841,1.3v5.978a.461.461,0,0,0,.46.46h6.441a.461.461,0,0,0,.46-.46v-2.3h5.061v2.3a.461.461,0,0,0,.46.46h1.84a.461.461,0,0,0,.46-.46v-2.3H200.3v2.3a.461.461,0,0,0,.46.46H207.2a.461.461,0,0,0,.46-.46v-5.978a1.38,1.38,0,0,0-1.381-1.379" transform="translate(-180.048 -259.857)" fill="#fcfcfc"/>
    </g>
    <path id="Path_4110" data-name="Path 4110" d="M359.973,288.857h.92v-.92h-.92v.92" transform="translate(-159.261 -91.931)" fill="#fcfcfc"/>
    <path id="Path_4111" data-name="Path 4111" d="M212.733,208.943a.23.23,0,1,1,.23-.23A.229.229,0,0,1,212.733,208.943Zm.69-.23a.69.69,0,1,0-.69.69.69.69,0,0,0,.69-.69" transform="translate(-28.355 -21.214)" fill="#fcfcfc"/>
    <path id="Path_4112" data-name="Path 4112" d="M232.721,208.483a.23.23,0,1,1-.23.23A.229.229,0,0,1,232.721,208.483Zm0,.92a.69.69,0,1,0-.69-.69.69.69,0,0,0,.69.69" transform="translate(-46.043 -21.214)" fill="#fcfcfc"/>
    <path id="Path_4113" data-name="Path 4113" d="M252.713,208.483a.23.23,0,1,1-.23.23A.229.229,0,0,1,252.713,208.483Zm0,.92a.69.69,0,1,0-.69-.69.69.69,0,0,0,.69.69" transform="translate(-63.735 -21.214)" fill="#fcfcfc"/>
    <path id="Path_4114" data-name="Path 4114" d="M197.891,196.181a.922.922,0,0,1-.92-.92v-1.38a.922.922,0,0,1,.92-.92h5.981a.922.922,0,0,1,.92.92v1.38a.922.922,0,0,1-.92.92h-2.761a.463.463,0,0,0-.287.1l-1.553,1.241v-.882a.461.461,0,0,0-.46-.46Zm.721,2.714a.462.462,0,0,0,.487-.056l2.175-1.739h2.6a1.841,1.841,0,0,0,1.84-1.839v-1.38a1.841,1.841,0,0,0-1.84-1.839h-5.981a1.841,1.841,0,0,0-1.84,1.839v1.38a1.841,1.841,0,0,0,1.84,1.839h.46v1.38a.459.459,0,0,0,.261.415" transform="translate(-14.204 -7.072)" fill="#fcfcfc"/>
    <path id="Path_4115" data-name="Path 4115" d="M341.956,220.147a.841.841,0,0,1-1.19,0,.46.46,0,1,0-.65.65,1.762,1.762,0,0,0,2.491,0,.46.46,0,0,0-.65-.65" transform="translate(-141.57 -31.823)" fill="#fcfcfc"/>
    <path id="Path_4116" data-name="Path 4116" d="M340.266,208.943a.447.447,0,0,0,.174.038.454.454,0,0,0,.46-.46.521.521,0,0,0-.133-.327.463.463,0,0,0-.787.327.453.453,0,0,0,.133.327.5.5,0,0,0,.153.1" transform="translate(-141.57 -21.252)" fill="#fcfcfc"/>
    <path id="Path_4117" data-name="Path 4117" d="M356.76,208.151a.464.464,0,0,0-.415-.124.272.272,0,0,0-.086.029.269.269,0,0,0-.083.04c-.023.02-.047.038-.07.056a.5.5,0,0,0-.133.327.453.453,0,0,0,.133.327.506.506,0,0,0,.153.1.422.422,0,0,0,.349,0,.5.5,0,0,0,.152-.1.461.461,0,0,0,.133-.327.521.521,0,0,0-.133-.327" transform="translate(-155.722 -21.208)" fill="#fcfcfc"/>
    <g id="Group_4500" data-name="Group 4500" transform="translate(195.996 184.051)" clip-path="url(#clip-path-2)">
      <path id="Path_4118" data-name="Path 4118" d="M326.434,190.8l-1.612-.462a.507.507,0,0,0-.128-.016.456.456,0,0,0-.146.023,2.752,2.752,0,1,1,1.885-3.043Zm-2.761-6.748a3.679,3.679,0,1,0,0,7.357,3.739,3.739,0,0,0,1.028-.147l2.066.589a.426.426,0,0,0,.126.018.462.462,0,0,0,.46-.46v-4.138c0-.02,0-.041,0-.061a3.692,3.692,0,0,0-3.677-3.158" transform="translate(-319.878 -184.051)" fill="#fcfcfc"/>
    </g>
  </g>
</svg>
