<?xml version="1.0" encoding="UTF-8"?>
<svg xmlns="http://www.w3.org/2000/svg" xmlns:xlink="http://www.w3.org/1999/xlink" width="50.366" height="50.704" viewBox="0 0 1440 809.999993" version="1.2">
<defs>
<clipPath id="clip1">
  <path d="M 490.371094 290 L 949.371094 290 L 949.371094 426 L 490.371094 426 Z M 490.371094 290 "/>
</clipPath>
<clipPath id="clip2">
  <path d="M 532 135.640625 L 617 135.640625 L 617 221 L 532 221 Z M 532 135.640625 "/>
</clipPath>
<clipPath id="clip3">
  <path d="M 677 135.640625 L 763 135.640625 L 763 221 L 677 221 Z M 677 135.640625 "/>
</clipPath>
<clipPath id="clip4">
  <path d="M 823 135.640625 L 908 135.640625 L 908 221 L 823 221 Z M 823 135.640625 "/>
</clipPath>
</defs>
<g id="surface1">
<g clip-path="url(#clip1)" clip-rule="nonzero">
<path style=" stroke:none;fill-rule:nonzero;fill:rgb(32.159424%,44.309998%,100%);fill-opacity:1;" d="M 605.089844 320.253906 C 540.976562 330.859375 511.964844 348.246094 511.964844 357.828125 C 511.964844 371.769531 571.085938 398.914062 688.890625 403.382812 C 709.097656 404.136719 730.859375 404.136719 751.070312 403.382812 C 868.875 398.914062 927.992188 371.769531 927.992188 357.828125 C 927.992188 348.246094 898.980469 330.859375 834.867188 320.253906 C 834.054688 325.390625 829.609375 329.324219 824.246094 329.324219 L 761.246094 329.324219 C 755.300781 329.324219 750.480469 324.511719 750.480469 318.566406 L 750.480469 312.304688 C 729.761719 311.5 710.195312 311.5 689.476562 312.304688 L 689.476562 318.566406 C 689.476562 324.511719 684.65625 329.324219 678.710938 329.324219 L 615.710938 329.324219 C 610.347656 329.324219 605.90625 325.390625 605.089844 320.253906 Z M 719.980469 425.464844 C 709.117188 425.464844 698.453125 425.273438 688.074219 424.878906 C 596.910156 421.425781 490.457031 401.789062 490.457031 357.828125 C 490.457031 320.269531 567.992188 303.660156 614.203125 297.089844 C 617.277344 296.636719 620.414062 297.574219 622.769531 299.621094 C 625.125 301.660156 626.472656 304.625 626.472656 307.746094 L 626.472656 307.804688 L 667.957031 307.804688 L 667.957031 302.011719 C 667.957031 296.269531 672.460938 291.554688 678.175781 291.261719 C 706.609375 289.828125 733.347656 289.828125 761.78125 291.261719 C 767.496094 291.554688 772 296.269531 772 302.011719 L 772 307.804688 L 813.484375 307.746094 C 813.484375 304.625 814.832031 301.660156 817.1875 299.621094 C 819.542969 297.574219 822.660156 296.636719 825.753906 297.089844 C 871.964844 303.660156 949.503906 320.269531 949.503906 357.828125 C 949.503906 401.789062 843.046875 421.425781 751.882812 424.878906 C 741.503906 425.273438 730.84375 425.464844 719.980469 425.464844 "/>
</g>
<path style=" stroke:none;fill-rule:nonzero;fill:rgb(32.159424%,44.309998%,100%);fill-opacity:1;" d="M 719.980469 673.769531 C 705.015625 673.769531 690.046875 669.683594 676.699219 661.542969 C 673.5 659.589844 671.546875 656.113281 671.546875 652.363281 L 671.546875 581.523438 L 615.710938 552.105469 C 553.546875 519.359375 514.921875 455.351562 514.921875 385.066406 C 514.921875 379.121094 519.742188 374.308594 525.675781 374.308594 C 531.621094 374.308594 536.441406 379.121094 536.441406 385.066406 C 536.441406 447.339844 570.65625 504.050781 625.738281 533.066406 L 687.3125 565.511719 C 690.84375 567.371094 693.054688 571.035156 693.054688 575.027344 L 693.054688 646 C 710.097656 654.316406 729.863281 654.316406 746.902344 646 L 746.902344 575.027344 C 746.902344 571.035156 749.117188 567.371094 752.644531 565.511719 L 814.210938 533.066406 C 869.300781 504.050781 903.515625 447.339844 903.515625 385.066406 C 903.515625 379.121094 908.335938 374.308594 914.28125 374.308594 C 920.214844 374.308594 925.035156 379.121094 925.035156 385.066406 C 925.035156 455.351562 886.417969 519.359375 824.246094 552.105469 L 768.410156 581.523438 L 768.410156 652.363281 C 768.410156 656.113281 766.457031 659.589844 763.257812 661.542969 C 749.910156 669.683594 734.941406 673.769531 719.980469 673.769531 "/>
<path style=" stroke:none;fill-rule:nonzero;fill:rgb(32.159424%,44.309998%,100%);fill-opacity:1;" d="M 699.191406 403.683594 C 712.84375 404.003906 727.113281 404.003906 740.765625 403.683594 L 740.765625 368.542969 L 699.191406 368.542969 Z M 719.980469 425.433594 C 709.089844 425.433594 698.476562 425.257812 688.050781 424.878906 C 682.265625 424.675781 677.671875 419.914062 677.671875 414.132812 L 677.671875 357.785156 C 677.671875 351.832031 682.492188 347.03125 688.4375 347.03125 L 751.519531 347.03125 C 757.464844 347.03125 762.285156 351.832031 762.285156 357.785156 L 762.285156 414.132812 C 762.285156 419.914062 757.691406 424.675781 751.90625 424.878906 C 741.480469 425.257812 730.867188 425.433594 719.980469 425.433594 "/>
<g clip-path="url(#clip2)" clip-rule="nonzero">
<path style=" stroke:none;fill-rule:nonzero;fill:rgb(32.159424%,44.309998%,100%);fill-opacity:1;" d="M 553.707031 198.828125 L 595.207031 198.828125 L 595.207031 157.320312 L 553.707031 157.320312 Z M 605.964844 220.347656 L 542.953125 220.347656 C 537.011719 220.347656 532.191406 215.535156 532.191406 209.589844 L 532.191406 146.5625 C 532.191406 140.613281 537.011719 135.800781 542.953125 135.800781 L 605.964844 135.800781 C 611.90625 135.800781 616.726562 140.613281 616.726562 146.5625 L 616.726562 209.589844 C 616.726562 215.535156 611.90625 220.347656 605.964844 220.347656 "/>
</g>
<g clip-path="url(#clip3)" clip-rule="nonzero">
<path style=" stroke:none;fill-rule:nonzero;fill:rgb(32.159424%,44.309998%,100%);fill-opacity:1;" d="M 699.222656 198.828125 L 740.734375 198.828125 L 740.734375 157.320312 L 699.222656 157.320312 Z M 751.488281 220.347656 L 688.46875 220.347656 C 682.527344 220.347656 677.714844 215.535156 677.714844 209.589844 L 677.714844 146.5625 C 677.714844 140.613281 682.527344 135.800781 688.46875 135.800781 L 751.488281 135.800781 C 757.429688 135.800781 762.242188 140.613281 762.242188 146.5625 L 762.242188 209.589844 C 762.242188 215.535156 757.429688 220.347656 751.488281 220.347656 "/>
</g>
<g clip-path="url(#clip4)" clip-rule="nonzero">
<path style=" stroke:none;fill-rule:nonzero;fill:rgb(32.159424%,44.309998%,100%);fill-opacity:1;" d="M 844.75 198.828125 L 886.25 198.828125 L 886.25 157.320312 L 844.75 157.320312 Z M 897.003906 220.347656 L 833.996094 220.347656 C 828.050781 220.347656 823.230469 215.535156 823.230469 209.589844 L 823.230469 146.5625 C 823.230469 140.613281 828.050781 135.800781 833.996094 135.800781 L 897.003906 135.800781 C 902.945312 135.800781 907.765625 140.613281 907.765625 146.5625 L 907.765625 209.589844 C 907.765625 215.535156 902.945312 220.347656 897.003906 220.347656 "/>
</g>
<path style=" stroke:none;fill-rule:nonzero;fill:rgb(32.159424%,44.309998%,100%);fill-opacity:1;" d="M 772 307.804688 L 813.484375 307.804688 L 813.484375 266.320312 L 772 266.320312 Z M 824.246094 329.324219 L 761.246094 329.324219 C 755.300781 329.324219 750.480469 324.511719 750.480469 318.566406 L 750.480469 255.558594 C 750.480469 249.613281 755.300781 244.800781 761.246094 244.800781 L 824.246094 244.800781 C 830.179688 244.800781 835 249.613281 835 255.558594 L 835 318.566406 C 835 324.511719 830.179688 329.324219 824.246094 329.324219 "/>
<path style=" stroke:none;fill-rule:nonzero;fill:rgb(32.159424%,44.309998%,100%);fill-opacity:1;" d="M 626.472656 307.804688 L 667.957031 307.804688 L 667.957031 266.320312 L 626.472656 266.320312 Z M 678.710938 329.324219 L 615.710938 329.324219 C 609.777344 329.324219 604.957031 324.511719 604.957031 318.566406 L 604.957031 255.558594 C 604.957031 249.613281 609.777344 244.800781 615.710938 244.800781 L 678.710938 244.800781 C 684.65625 244.800781 689.476562 249.613281 689.476562 255.558594 L 689.476562 318.566406 C 689.476562 324.511719 684.65625 329.324219 678.710938 329.324219 "/>
</g>
</svg>
