<svg id="Group_548" data-name="Group 548" xmlns="http://www.w3.org/2000/svg" width="26.129" height="15.018" viewBox="0 0 26.129 15.018">
  <path id="Path_238" data-name="Path 238" d="M-2795.931,396.173a6.791,6.791,0,0,0-3.608-1.8l-.309-.065a4.287,4.287,0,0,0,.875-6.532,4.269,4.269,0,0,0-6.22-.014,4.287,4.287,0,0,0,.861,6.547l-.309.064a7.906,7.906,0,0,0-2,.661,5.192,5.192,0,0,0-3.013,3.961.231.231,0,0,0,.121.283,14.865,14.865,0,0,0,6.724,2.143,14.393,14.393,0,0,0,8.162-2.143.222.222,0,0,0,.125-.262A4.956,4.956,0,0,0-2795.931,396.173Z" transform="translate(2815.154 -386.42)" fill="#5271FF"/>
  <path id="Path_239" data-name="Path 239" d="M-2928.119,419.029c.457-.275.949-.492,1.448-.748a4.944,4.944,0,0,0-2.4-1.062,2.882,2.882,0,0,0,.6-4.341,2.862,2.862,0,0,0-4.083-.138,2.887,2.887,0,0,0,.45,4.478c-.076.018-.14.029-.2.048a10.874,10.874,0,0,0-1.315.446,3.415,3.415,0,0,0-2.005,2.576.226.226,0,0,0,.123.282,10.092,10.092,0,0,0,4.687,1.414.214.214,0,0,0,.244-.152A5.934,5.934,0,0,1-2928.119,419.029Z" transform="translate(2935.639 -410.838)" fill="#5271FF"/>
  <path id="Path_240" data-name="Path 240" d="M-2533.708,420.285a3.315,3.315,0,0,0-.708-1.593,4.272,4.272,0,0,0-2.439-1.417c-.123-.029-.246-.056-.39-.089a2.875,2.875,0,0,0,.551-4.384,2.855,2.855,0,0,0-4.128,0,2.882,2.882,0,0,0,.554,4.39,4.888,4.888,0,0,0-2.432,1.09l.232.092a6.4,6.4,0,0,1,3.711,3.445.2.2,0,0,0,.232.135,10.075,10.075,0,0,0,4.7-1.421A.2.2,0,0,0-2533.708,420.285Z" transform="translate(2559.832 -410.807)" fill="#5271FF"/>
</svg>
