<?xml version="1.0" encoding="utf-8"?>
<!-- Generator: Adobe Illustrator 25.2.0, SVG Export Plug-In . SVG Version: 6.00 Build 0)  -->
<svg version="1.1" id="Layer_1" xmlns="http://www.w3.org/2000/svg" xmlns:xlink="http://www.w3.org/1999/xlink" x="0px" y="0px"
	 viewBox="0 0 18 18" style="enable-background:new 0 0 18 18;" xml:space="preserve">
<style type="text/css">
	.st0{fill:#59d424;}
	.st1{fill:#FFFFFF;}
</style>
<g id="Group_9322" transform="translate(0 -0.317)">
	<g id="Rectangle_1571">
		<path class="st0" d="M9,0.3L9,0.3c5,0,9,4,9,9l0,0c0,5-4,9-9,9l0,0c-5,0-9-4-9-9l0,0C0,4.3,4,0.3,9,0.3z"/>
	</g>
	<g id="Path_4067">
		<path class="st1" d="M7.5,13C7.3,13,7.2,13,7,12.8L5,11c-0.3-0.3-0.3-0.7-0.1-1.1C5.2,9.6,5.7,9.6,6,9.9l1.5,1.3l4.2-4.5
			c0.3-0.3,0.8-0.3,1.1,0c0.3,0.3,0.3,0.8,0,1.1l-4.7,5.1C7.9,12.9,7.7,13,7.5,13z"/>
	</g>
</g>
</svg>
