<svg xmlns="http://www.w3.org/2000/svg" width="36" height="36" viewBox="0 0 36 36">
  <g id="Group_9420" data-name="Group 9420" transform="translate(-532.5 -30)">
    <g id="Rectangle_2339" data-name="Rectangle 2339" transform="translate(532.5 30)" fill="none" stroke="#d4d4d4" stroke-width="1">
      <rect width="36" height="36" rx="18" stroke="none"/>
      <rect x="0.5" y="0.5" width="35" height="35" rx="17.5" fill="none"/>
    </g>
    <path id="Path_6444" data-name="Path 6444" d="M610.282,547.148a3.8,3.8,0,0,0-7.489-.872,3.795,3.795,0,0,0-7.489.872,3.261,3.261,0,0,0,.975,2.5l.359.359,6.172,5.677,6.173-5.694c.085-.069.1-.1.17-.154l.018-.017a3.835,3.835,0,0,0,1.111-2.668" transform="translate(-52.293 -500.352)" fill="#d4d4d4"/>
  </g>
</svg>
