<svg id="Group_6591" data-name="Group 6591" xmlns="http://www.w3.org/2000/svg" width="130.061" height="130.04" viewBox="0 0 130.061 130.04">
  <defs>
    <style>
      .cls-1 {
        fill: #5271FF;
      }

      .cls-2 {
        fill: #545454;
      }
    </style>
  </defs>
  <path id="Path_4932" data-name="Path 4932" class="cls-1" d="M183.068,241.548q23.635,0,47.271,0c10.32,0,17.674,7.333,17.675,17.63q.005,47.4,0,94.8c0,10.23-7.355,17.6-17.567,17.6q-47.474.008-94.949,0c-10.124,0-17.536-7.4-17.538-17.5q-.008-47.534,0-95.068c0-10.049,7.4-17.458,17.429-17.464Q159.229,241.536,183.068,241.548Zm17.993,71.634c4.082-4.348,8.026-8.564,11.989-12.764,4.4-4.664,10.257-4.767,14.782-.246,3.513,3.51,6.991,7.054,10.488,10.58.266.268.561.508,1.025.925v-1.438q0-25.527,0-51.054c0-5.5-3.463-8.965-8.962-8.966q-47.406,0-94.812,0c-5.487,0-8.938,3.472-8.939,8.983q-.005,24.986,0,49.971v1.5c.558-.4.92-.65,1.264-.919q16.472-12.893,32.943-25.788c4.585-3.586,9.845-3.187,13.829,1.044q5.756,6.113,11.482,12.254Z" transform="translate(-117.956 -241.545)"/>
  <path id="Path_4933" data-name="Path 4933" class="cls-2" d="M349.307,335.295a11.879,11.879,0,0,1-23.758-.041,11.879,11.879,0,1,1,23.758.041Z" transform="translate(-253.644 -296.946)"/>
</svg>
