<?xml version="1.0" encoding="UTF-8"?>
<svg xmlns="http://www.w3.org/2000/svg" xmlns:xlink="http://www.w3.org/1999/xlink" width="1440pt" height="809.999993pt" viewBox="0 0 1440 809.999993" version="1.2">
<defs>
<clipPath id="clip1">
  <path d="M 422.617188 107.617188 L 1017.355469 107.617188 L 1017.355469 702.355469 L 422.617188 702.355469 Z M 422.617188 107.617188 "/>
</clipPath>
</defs>
<g id="surface1">
<g clip-path="url(#clip1)" clip-rule="nonzero">
<path style=" stroke:none;fill-rule:nonzero;fill:rgb(0%,0%,0%);fill-opacity:1;" d="M 719.988281 702.355469 C 556.027344 702.355469 422.617188 568.949219 422.617188 404.988281 C 422.617188 241.027344 556.027344 107.617188 719.988281 107.617188 C 883.949219 107.617188 1017.355469 241.027344 1017.355469 404.988281 C 1017.355469 568.949219 883.949219 702.355469 719.988281 702.355469 Z M 719.988281 150.738281 C 579.757812 150.738281 465.699219 264.757812 465.699219 404.988281 C 465.699219 545.179688 579.757812 659.238281 719.988281 659.238281 C 860.179688 659.238281 974.273438 545.179688 974.273438 404.988281 C 974.273438 264.757812 860.179688 150.738281 719.988281 150.738281 Z M 719.988281 150.738281 "/>
</g>
<path style=" stroke:none;fill-rule:nonzero;fill:rgb(0%,0%,0%);fill-opacity:1;" d="M 726.121094 559.304688 C 723.835938 558.429688 721.363281 557.015625 721.363281 551.03125 C 721.363281 548.5625 721.753906 545.699219 722.625 542.203125 L 760.1875 360.121094 C 761.023438 355.847656 761.453125 351.367188 761.453125 346.90625 C 761.453125 335.144531 757.828125 326.183594 750.671875 320.253906 C 734.632812 307.078125 706.570312 309.660156 659.882812 325.441406 L 655.347656 326.964844 L 653.488281 350.457031 L 661.332031 350.457031 C 685.101562 350.457031 690.84375 352.316406 692.035156 352.890625 C 693.632812 353.652344 694.507812 354.566406 694.507812 357.242188 C 694.507812 358.726562 694.320312 360.402344 693.929688 362.257812 C 693.464844 364.730469 692.90625 367.59375 692.371094 370.679688 L 657.949219 537.910156 C 656.351562 546.332031 655.515625 553.558594 655.515625 559.320312 C 655.515625 572.648438 659.359375 582.945312 666.871094 589.894531 C 674.230469 596.679688 684.320312 600.136719 696.847656 600.136719 C 711.511719 600.136719 731.195312 596.066406 756.992188 587.722656 L 761.601562 586.234375 L 763.460938 562.425781 L 755.671875 562.425781 C 738.035156 562.425781 729.894531 560.714844 726.121094 559.304688 Z M 726.121094 559.304688 "/>
<path style=" stroke:none;fill-rule:nonzero;fill:rgb(0%,0%,0%);fill-opacity:1;" d="M 775.558594 220.042969 C 768.476562 213.296875 759.371094 209.839844 748.515625 209.839844 C 737.273438 209.839844 727.757812 213.539062 720.265625 220.804688 C 712.71875 228.109375 708.875 237.941406 708.875 250.058594 C 708.875 261.210938 712.535156 270.464844 719.726562 277.640625 C 726.917969 284.867188 736.136719 288.53125 747.066406 288.53125 C 758.21875 288.53125 767.640625 284.644531 775.167969 277.0625 C 782.640625 269.480469 786.410156 259.628906 786.410156 247.773438 C 786.414062 236.191406 782.789062 226.863281 775.558594 220.042969 Z M 775.558594 220.042969 "/>
</g>
</svg>
