<?xml version="1.0" encoding="UTF-8"?>
<svg xmlns="http://www.w3.org/2000/svg" xmlns:xlink="http://www.w3.org/1999/xlink" width="600pt" height="599.999999pt" viewBox="0 0 600 599.999999" version="1.2">
<defs>
<clipPath id="clip1">
  <path d="M 111.140625 111.140625 L 489 111.140625 L 489 489 L 111.140625 489 Z M 111.140625 111.140625 "/>
</clipPath>
</defs>
<g id="surface1">
<g clip-path="url(#clip1)" clip-rule="nonzero">
<path style=" stroke:none;fill-rule:nonzero;fill:rgb(65.098572%,65.098572%,65.098572%);fill-opacity:1;" d="M 299.976562 111.027344 C 195.621094 111.027344 111.027344 195.621094 111.027344 299.976562 C 111.027344 404.328125 195.621094 488.925781 299.976562 488.925781 C 404.328125 488.925781 488.925781 404.328125 488.925781 299.976562 C 488.925781 195.621094 404.328125 111.027344 299.976562 111.027344 Z M 344.832031 400.722656 C 335.125 404.554688 327.375 407.46875 321.601562 409.476562 C 315.816406 411.484375 309.109375 412.488281 301.453125 412.488281 C 289.703125 412.488281 280.5625 409.609375 274.046875 403.890625 C 267.527344 398.152344 264.265625 390.878906 264.265625 382.050781 C 264.265625 378.632812 264.503906 375.121094 264.996094 371.542969 C 265.492188 367.957031 266.28125 363.917969 267.359375 359.40625 L 279.488281 316.476562 C 280.566406 312.363281 281.484375 308.46875 282.21875 304.785156 C 282.964844 301.121094 283.324219 297.753906 283.324219 294.722656 C 283.324219 289.242188 282.1875 285.40625 279.929688 283.25 C 277.667969 281.097656 273.355469 280.007812 266.953125 280.007812 C 263.816406 280.007812 260.59375 280.511719 257.308594 281.480469 C 254.007812 282.453125 251.1875 283.398438 248.820312 284.273438 L 252.066406 271.035156 C 260.011719 267.800781 267.605469 265.03125 274.871094 262.730469 C 282.136719 260.425781 289.003906 259.273438 295.496094 259.273438 C 307.164062 259.273438 316.171875 262.089844 322.496094 267.734375 C 328.820312 273.378906 331.980469 280.695312 331.980469 289.714844 C 331.980469 291.578125 331.773438 294.867188 331.328125 299.566406 C 330.890625 304.273438 330.078125 308.589844 328.894531 312.511719 L 316.816406 355.273438 C 315.828125 358.710938 314.941406 362.636719 314.160156 367.050781 C 313.363281 371.445312 312.984375 374.796875 312.984375 377.046875 C 312.984375 382.726562 314.25 386.601562 316.785156 388.664062 C 319.34375 390.726562 323.746094 391.75 330 391.75 C 332.9375 391.75 336.28125 391.230469 339.996094 390.203125 C 343.703125 389.179688 346.402344 388.277344 348.074219 387.496094 Z M 342.683594 227.015625 C 337.054688 232.265625 330.273438 234.894531 322.339844 234.894531 C 314.378906 234.894531 307.578125 232.265625 301.886719 227.015625 C 296.203125 221.78125 293.355469 215.421875 293.355469 207.972656 C 293.355469 200.535156 296.203125 194.164062 301.886719 188.863281 C 307.570312 183.574219 314.378906 180.929688 322.339844 180.929688 C 330.273438 180.929688 337.054688 183.582031 342.683594 188.863281 C 348.328125 194.164062 351.136719 200.535156 351.136719 207.972656 C 351.136719 215.421875 348.328125 221.785156 342.683594 227.015625 Z M 342.683594 227.015625 "/>
</g>
</g>
</svg>
