<svg xmlns="http://www.w3.org/2000/svg" width="73.439" height="62.171" viewBox="0 0 73.439 62.171">
  <g id="Group_6557" data-name="Group 6557" transform="translate(0 0)">
    <g id="diamond" transform="translate(0 0)">
      <g id="Group_3819" data-name="Group 3819" transform="translate(40.363 16.332)">
        <g id="Group_3818" data-name="Group 3818">
          <path id="Path_3888" data-name="Path 3888" d="M295.089,153.145,281.4,196.486l33.076-43.341Z" transform="translate(-281.402 -153.145)" fill="#f93069"/>
        </g>
      </g>
      <g id="Group_3821" data-name="Group 3821" transform="translate(0.155 1.002)">
        <g id="Group_3820" data-name="Group 3820">
          <path id="Path_3889" data-name="Path 3889" d="M11.589,46.263,1.082,58.872H18.944Z" transform="translate(-1.082 -46.263)" fill="#f93069"/>
        </g>
      </g>
      <g id="Group_3823" data-name="Group 3823" transform="translate(55.422 1.002)">
        <g id="Group_3822" data-name="Group 3822">
          <path id="Path_3890" data-name="Path 3890" d="M393.741,46.263l-7.355,12.609h17.862Z" transform="translate(-386.386 -46.263)" fill="#f93069"/>
        </g>
      </g>
      <g id="Group_3825" data-name="Group 3825" transform="translate(0 16.332)">
        <g id="Group_3824" data-name="Group 3824">
          <path id="Path_3891" data-name="Path 3891" d="M19.389,153.145H0l33.076,43.341Z" transform="translate(0 -153.145)" fill="#f93069"/>
        </g>
      </g>
      <g id="Group_3827" data-name="Group 3827" transform="translate(40.005 0)">
        <g id="Group_3826" data-name="Group 3826">
          <path id="Path_3892" data-name="Path 3892" d="M278.906,39.279,291.667,52.04l7.443-12.761Z" transform="translate(-278.906 -39.279)" fill="#f93069"/>
        </g>
      </g>
      <g id="Group_3829" data-name="Group 3829" transform="translate(13.229 0)">
        <g id="Group_3828" data-name="Group 3828">
          <path id="Path_3893" data-name="Path 3893" d="M92.232,39.279,99.675,52.04l12.761-12.761Z" transform="translate(-92.232 -39.279)" fill="#f93069"/>
        </g>
      </g>
      <g id="Group_3831" data-name="Group 3831" transform="translate(22.243 16.332)">
        <g id="Group_3830" data-name="Group 3830">
          <path id="Path_3894" data-name="Path 3894" d="M155.076,153.145l14.476,45.839,14.476-45.839Z" transform="translate(-155.076 -153.145)" fill="#f93069"/>
        </g>
      </g>
      <g id="Group_3833" data-name="Group 3833" transform="translate(23.673 0.564)">
        <g id="Group_3832" data-name="Group 3832" transform="translate(0 0)">
          <path id="Path_3895" data-name="Path 3895" d="M178.087,43.208,165.04,56.255h26.094Z" transform="translate(-165.04 -43.208)" fill="#f93069"/>
        </g>
      </g>
    </g>
  </g>
</svg>
