<svg id="Component_43_7" data-name="Component 43 – 7" xmlns="http://www.w3.org/2000/svg" width="13.646" height="29.93" viewBox="0 0 13.646 29.93">
  <path id="Path_4085" data-name="Path 4085" d="M-1475.44-1104.35h-.08a6.778,6.778,0,0,1-4.8-2.054,6.778,6.778,0,0,1-1.943-4.847v-18.155a4.856,4.856,0,0,1,1.426-3.438,4.857,4.857,0,0,1,3.435-1.436,4.852,4.852,0,0,1,3.43,1.434,4.856,4.856,0,0,1,1.428,3.437v15.537a2.9,2.9,0,0,1-2.894,2.89h0a2.9,2.9,0,0,1-2.89-2.9v-11.164a.935.935,0,0,1,.934-.934.927.927,0,0,1,.927.926v11.182a1.037,1.037,0,0,0,1.034,1.031,1.012,1.012,0,0,0,.542-.152,1.04,1.04,0,0,0,.492-.887v-15.487a3.022,3.022,0,0,0-3-3.038l-.134,0a2.985,2.985,0,0,0-2.028.921,2.984,2.984,0,0,0-.835,2.074v18.147c0,.066,0,.132,0,.2a4.934,4.934,0,0,0,1.49,3.446,4.934,4.934,0,0,0,3.47,1.416h.1a4.969,4.969,0,0,0,4.861-5.058v-13.751a.97.97,0,0,1,.97-.969h.023a.869.869,0,0,1,.868.868v13.855c0,.056,0,.109,0,.161a6.781,6.781,0,0,1-2.027,4.775A6.781,6.781,0,0,1-1475.44-1104.35Z" transform="translate(1482.265 1134.281)" fill="#737373"/>
</svg>
