<svg id="search_icon" xmlns="http://www.w3.org/2000/svg" width="19.32" height="19.319" viewBox="0 0 19.32 19.319">
  <g id="Group_4366">
    <g id="Group_4417" data-name="Group 4417" transform="translate(1.138 0.141)">
      <path id="Path_4074" data-name="Path 4074" d="M226.147,117.5a6.646,6.646,0,0,0-6.647,6.647A6.655,6.655,0,0,1,226.147,117.5Z" transform="translate(-219.5 -117.5)" fill="#5271FF"/>
      <path id="Path_4075" data-name="Path 4075" d="M219.5,317.2a6.646,6.646,0,0,0,6.647,6.647A6.65,6.65,0,0,1,219.5,317.2Z" transform="translate(-219.5 -310.554)" fill="#5271FF"/>
      <path id="Path_4076" data-name="Path 4076" d="M425.946,124.147A6.646,6.646,0,0,0,419.3,117.5,6.655,6.655,0,0,1,425.946,124.147Z" transform="translate(-412.65 -117.5)" fill="#5271FF"/>
    </g>
    <path id="Path_4077" data-name="Path 4077" d="M238.368,133.607l-4.721-4.725a.08.08,0,0,0-.019-.015,7.535,7.535,0,1,0-2.661,2.661c0,.008.011.011.015.019l4.721,4.721a1.883,1.883,0,1,0,2.664-2.661Zm-16.677-8.571a5.446,5.446,0,1,1,9.344,3.8.3.3,0,0,0-.049.049.6.6,0,0,1-.049.049,5.444,5.444,0,0,1-9.246-3.895Z" transform="translate(-219.6 -117.5)" fill="#5271FF"/>
  </g>
</svg>
