<svg xmlns="http://www.w3.org/2000/svg" width="23.807" height="23.626" viewBox="0 0 41.807 26.626">
  <path id="Users-3" d="M-220.65-14445.374c1.562-6.984,6.294-12.064,11.894-12.064s10.332,5.08,11.89,12.064Zm24.289-3.138a16.7,16.7,0,0,0-6.272-8.4,9.2,9.2,0,0,1,3.051-.53c4.714,0,8.811,3.613,10.917,8.927Zm-32.638,0c2.11-5.313,6.2-8.927,10.921-8.927a9.225,9.225,0,0,1,3.145.563,16.7,16.7,0,0,0-6.218,8.364Zm25.713-10.976a7.643,7.643,0,0,0,2.052-5.2,7.645,7.645,0,0,0-2.052-5.208,6.258,6.258,0,0,1,3.555-1.1,6.307,6.307,0,0,1,6.3,6.309,6.307,6.307,0,0,1-6.3,6.309A6.261,6.261,0,0,1-203.287-14459.487Zm-21.249-5.2a6.308,6.308,0,0,1,6.308-6.309,6.27,6.27,0,0,1,3.639,1.17,7.644,7.644,0,0,0-1.99,5.139,7.634,7.634,0,0,0,1.99,5.135,6.273,6.273,0,0,1-3.639,1.174A6.308,6.308,0,0,1-224.536-14464.691Zm9.323,0a6.31,6.31,0,0,1,6.308-6.309,6.307,6.307,0,0,1,6.3,6.309,6.3,6.3,0,0,1-6.3,6.3A6.307,6.307,0,0,1-215.213-14464.691Z" transform="translate(229.736 14471.5)" fill="#fff" stroke="rgba(0,0,0,0)" stroke-miterlimit="10" stroke-width="1"/>
</svg>
