<svg xmlns="http://www.w3.org/2000/svg" xmlns:xlink="http://www.w3.org/1999/xlink" width="51.271" height="42.941" viewBox="0 0 51.271 42.941">
  <defs>
    <filter id="Union_9" x="0" y="0" width="51.271" height="42.941" filterUnits="userSpaceOnUse">
      <feOffset input="SourceAlpha"/>
      <feGaussianBlur stdDeviation="3" result="blur"/>
      <feFlood flood-opacity="0.529"/>
      <feComposite operator="in" in2="blur"/>
      <feComposite in="SourceGraphic"/>
    </filter>
  </defs>
  <g transform="matrix(1, 0, 0, 1, 0, 0)" filter="url(#Union_9)">
    <path id="Union_9-2" data-name="Union 9" d="M-4455.167,9767.91a2.146,2.146,0,0,1-1.782-1.7,2.853,2.853,0,0,1-.049-.613q0-2.279,0-4.564v-14.024a2.814,2.814,0,0,1,.358-1.719,2.129,2.129,0,0,1,1.8-.971c1.763-.012,3.528-.007,5.29,0q4.438,0,8.875.01c1.951,0,3.9-.007,5.851-.01h.557a6.426,6.426,0,0,0-1.549,2.662c-2.135-.007-4.268,0-6.4,0h-11.667c-.527,0-.537.01-.537.527v15.226c0,.355.013.711,0,1.062-.012.243.081.3.307.3,2.388-.008,4.778,0,7.166,0h19.231c.468,0,.426.044.426-.414v-8.7a6.671,6.671,0,0,0,2.327-1.522c.083-.081.164-.164.24-.25,0,3.155,0,7.361-.007,10.2,0,.755.01,1.51.007,2.267a2.149,2.149,0,0,1-1.858,2.246Zm9.593-5.491v-2.831a2.653,2.653,0,0,1,2.194-2.611.826.826,0,0,1,.571.12,3.686,3.686,0,0,0,1.941.547,3.688,3.688,0,0,0,1.941-.547.826.826,0,0,1,.571-.12,2.651,2.651,0,0,1,2.194,2.611v2.831Zm1.787-8.5a2.918,2.918,0,0,1,2.919-2.917,2.918,2.918,0,0,1,2.919,2.917,2.919,2.919,0,0,1-2.919,2.92A2.919,2.919,0,0,1-4443.787,9753.922Zm8.413-.431q.3-1.585.6-3.175c.167-.878.3-1.761.5-2.628a4.84,4.84,0,0,1,7.225-2.972,4.82,4.82,0,0,1,.89,7.533,4.7,4.7,0,0,1-4.917,1.194,4.111,4.111,0,0,1-.782-.336.385.385,0,0,0-.385-.01q-1.574.746-3.155,1.48a1.634,1.634,0,0,1-.187.068C-4435.511,9754.243-4435.445,9753.868-4435.374,9753.491Z" transform="translate(4466.5 -9734.47)" fill="#fff" stroke="rgba(0,0,0,0)" stroke-miterlimit="10" stroke-width="1"/>
  </g>
</svg>
