<?xml version="1.0" encoding="utf-8"?>
<!-- Generator: Adobe Illustrator 25.2.0, SVG Export Plug-In . SVG Version: 6.00 Build 0)  -->
<svg version="1.1" id="Layer_1" xmlns="http://www.w3.org/2000/svg" xmlns:xlink="http://www.w3.org/1999/xlink" x="0px" y="0px"
	 viewBox="0 0 266.7 266.7" style="enable-background:new 0 0 266.7 266.7;" xml:space="preserve">
<g>
	<path d="M132.9,266.6c-29.8,0-59.7,0-89.5,0c-25.5,0-43.1-17.4-43.2-43c-0.1-31.2-0.1-62.3-0.1-93.5c0-28.3,0.7-56.6-0.1-84.9
		C-0.7,18.9,19.4-0.6,44.9,0.1c31.1,0.8,62.3,0.2,93.5,0.2c1.7,0,3.4-0.1,5,0.2c4,0.7,6.9,4.3,6.6,8.2c-0.3,4.1-2.5,6.9-6.6,7.7
		c-1.6,0.3-3.3,0.2-5,0.2c-31.2,0-62.3,0-93.5,0c-18.1,0-28.3,10.1-28.3,28.1c0,24.8,0,49.7,0,74.5c0,34,0,68,0,101.9
		c0,19.1,9.9,29,28.9,29c58.8,0,117.7,0,176.5,0c18.1,0,28.3-10,28.3-28.1c0.1-22.5,0-45,0-67.5c0-9.3,0-18.6,0-27.9
		c0-6.2,3.2-9.8,8.2-9.8c5,0,8.2,3.7,8.2,9.8c0,33,0.1,66-0.1,99c-0.1,22.9-18.2,40.8-41.1,40.9
		C194.6,266.7,163.8,266.6,132.9,266.6z"/>
	<path d="M266.6,49.2c0,6.7-4.4,17.2-13.1,25.8c-19.3,19.1-38.6,38.2-57.8,57.4c-13.6,13.5-27,27.2-40.4,40.8
		c-6.1,6.2-13.3,10.3-21.8,12.4c-18,4.4-35.9,9-53.8,13.5c-9.6,2.4-14.4-2.3-12-11.7c4.9-19.5,9.5-39.1,15-58.5
		c1.6-5.7,5.2-11.4,9.4-15.6c33.3-33.8,66.8-67.5,100.7-100.8C206.2-0.6,222.6-3.2,240,3.7C256.3,10.2,266.5,26,266.6,49.2z
		 M95.8,145.4c4.4,1.6,8.9,3.4,13.5,4.7c3.7,1,6.1,3,7.3,6.7c1.5,4.9,3.3,9.7,4.9,14.4c9.7-1.2,17.5-4.8,24.1-11.6
		c21-21.5,42.5-42.7,63.8-63.9c1.2-1.2,2.4-2.6,3.1-3.3C199.6,79.6,187.1,67,174,53.8c-0.9,1.1-1.9,2.7-3.2,4
		c-19.4,19.5-38.7,39.1-58.3,58.2C104.1,124.2,96.2,132.3,95.8,145.4z M225.9,79.7c4.8-5,9.9-10.2,15-15.4c1.4-1.4,2.8-2.9,4-4.5
		c7.9-10.7,6.9-25.3-2.4-34.8c-9.4-9.7-24.5-11.6-34.9-3.1c-7.2,5.9-13.1,13.6-19.2,20.2C200.3,54.1,212.9,66.6,225.9,79.7z M91,162
		c-1.5,6-2.9,11.8-4.5,18.4c6.9-1.8,12.8-3.2,18.2-4.6C104.5,166.6,99.8,162.6,91,162z"/>
</g>
</svg>
