<svg id="flag" xmlns="http://www.w3.org/2000/svg" width="20.112" height="13.635" viewBox="0 0 20.112 13.635">
  <path id="Path_4810" data-name="Path 4810" d="M238.181,127.948h1.943l-.487-.86a.565.565,0,0,1,0-.549l.493-.89h-2.08v2.166A.133.133,0,0,0,238.181,127.948Z" transform="translate(-228.761 -124.416)" fill="#5271FF"/>
  <path id="Path_4811" data-name="Path 4811" d="M279.405,249.453h5.886l-5.636-7.416-3.559,3.514Z" transform="translate(-265.18 -235.818)" fill="#5271FF"/>
  <path id="Path_4812" data-name="Path 4812" d="M28.206,102.551V99.679h1.941V97.514a.133.133,0,0,0-.133-.133H28.206v-.295a.214.214,0,1,0-.428,0v5.425l-6.489,8H34.952Zm-1.627,3.162-2.474,3.068a.214.214,0,1,1-.334-.269l2.474-3.068a.214.214,0,0,1,.334.269Zm.753-.934-.054.067a.214.214,0,0,1-.334-.269L27,104.51a.214.214,0,0,1,.334.269Z" transform="translate(-21.289 -96.872)" fill="#5271FF"/>
</svg>
