<svg id="hourglass" xmlns="http://www.w3.org/2000/svg" width="10.716" height="14.068" viewBox="0 0 10.716 14.068">
  <g id="Group_5874" data-name="Group 5874">
    <path id="Path_4813" data-name="Path 4813" d="M68.574,5.572A6.034,6.034,0,0,0,70.883.824h.833V0H61V.824h.833a6.034,6.034,0,0,0,2.309,4.748c.626.57.98.92.98,1.462s-.354.891-.98,1.462a6.034,6.034,0,0,0-2.309,4.748H61v.824H71.716v-.824h-.833A6.034,6.034,0,0,0,68.574,8.5c-.626-.57-.98-.92-.98-1.462S67.948,6.143,68.574,5.572Zm-2.628,4.551a2.084,2.084,0,0,0-.376.115l-2.524,1.045A5.623,5.623,0,0,1,64.7,9.1a2.81,2.81,0,0,0,1.249-2.071ZM68.019,9.1a5.624,5.624,0,0,1,1.652,2.178l-2.524-1.045a2.084,2.084,0,0,0-.376-.115V7.034A2.81,2.81,0,0,0,68.019,9.1ZM63.031,2.748A6.107,6.107,0,0,1,62.658.824h7.4a6.106,6.106,0,0,1-.373,1.923Z" transform="translate(-61)" fill="#5271FF"/>
  </g>
</svg>
