<svg xmlns="http://www.w3.org/2000/svg" width="23.822" height="23.726" viewBox="0 0 23.822 23.726">
  <g id="Group_9445" data-name="Group 9445" transform="translate(-1446.905 -255.274)">
    <g id="Group_9442" data-name="Group 9442" transform="translate(1446.905 256.106)">
      <path id="Path_6445" data-name="Path 6445" d="M1465.01,288.654c-4.24,0-8.108-1.892-12.16-5.944a22.827,22.827,0,0,1-4.478-6.052,13.927,13.927,0,0,1-1.466-6.235,2.641,2.641,0,0,1,.776-1.857l2.192-2.192a2.1,2.1,0,0,1,2.966,0l3.336,3.336a2.1,2.1,0,0,1,0,2.966l-2.018,2.018a18.019,18.019,0,0,0,6.709,6.709l2.018-2.018a2.1,2.1,0,0,1,2.966,0l3.336,3.336a2.1,2.1,0,0,1,0,2.966l-2.193,2.192a2.642,2.642,0,0,1-1.857.775Zm-13.654-21.978a1.172,1.172,0,0,0-.835.346l-2.193,2.192a1.732,1.732,0,0,0-.507,1.217c-.035,3.917,1.875,7.83,5.675,11.631,3.87,3.87,7.532,5.676,11.514,5.676h.117a1.73,1.73,0,0,0,1.216-.507l2.193-2.192a1.182,1.182,0,0,0,0-1.669l-3.336-3.336a1.181,1.181,0,0,0-1.669,0l-2.265,2.265a.459.459,0,0,1-.548.076,19.006,19.006,0,0,1-7.534-7.534.458.458,0,0,1,.076-.548l2.265-2.265a1.182,1.182,0,0,0,0-1.669l-3.336-3.336A1.172,1.172,0,0,0,1451.356,266.676Z" transform="translate(-1446.905 -265.759)" fill="#5271ff"/>
    </g>
    <g id="Group_9443" data-name="Group 9443" transform="translate(1459.2 259.103)">
      <path id="Path_6446" data-name="Path 6446" d="M1609.253,311.267a.459.459,0,0,1-.455-.407,7.234,7.234,0,0,0-6.4-6.381.458.458,0,0,1,.1-.912,8.172,8.172,0,0,1,4.881,2.339,8.061,8.061,0,0,1,2.336,4.851.458.458,0,0,1-.4.507Z" transform="translate(-1601.985 -303.565)" fill="#5271ff"/>
    </g>
    <g id="Group_9444" data-name="Group 9444" transform="translate(1459.146 255.274)">
      <path id="Path_6447" data-name="Path 6447" d="M1612.425,266.506a.458.458,0,0,1-.455-.413,11.044,11.044,0,0,0-10.239-9.9.458.458,0,0,1,.062-.915A11.96,11.96,0,0,1,1612.881,266a.458.458,0,0,1-.41.5Z" transform="translate(-1601.303 -255.274)" fill="#5271ff"/>
    </g>
  </g>
</svg>
