<?xml version="1.0" encoding="utf-8"?>
<!-- Generator: Adobe Illustrator 25.2.0, SVG Export Plug-In . SVG Version: 6.00 Build 0)  -->
<svg version="1.1" id="Layer_1" xmlns="http://www.w3.org/2000/svg" xmlns:xlink="http://www.w3.org/1999/xlink" x="0px" y="0px"
	 viewBox="0 0 47 23" style="enable-background:new 0 0 47 23;" xml:space="preserve">
<style type="text/css">
	.st0{fill:#5271FF;}
</style>
<g>
	<circle class="st0" cx="24.2" cy="14.2" r="1.5"/>
	<circle class="st0" cx="30.2" cy="14.2" r="1.5"/>
	<circle class="st0" cx="36.2" cy="14.2" r="1.5"/>
	<path class="st0" d="M40.8,7.2h-6.7c0-0.3,0.1-0.6,0.1-1c0-3.5-2.8-6.3-6.3-6.3H6.3C2.8,0,0,2.8,0,6.3c0,1.6,0.7,3.2,1.9,4.5
		c1.2,1.1,2.7,1.8,4.4,1.8h1.3l1.7,3.2l1.8-3.2H13c0,0.3-0.1,0.6-0.1,1c0,1.6,0.7,3.2,1.9,4.5c1.2,1.1,2.7,1.8,4.4,1.8h1.3l1.7,3.2
		l1.8-3.2h16.8c3.5,0,6.3-2.8,6.3-6.3S44.3,7.2,40.8,7.2z M10.7,11.8l-1.3,2.4l-1.3-2.4H6.3c-3,0-5.5-2.5-5.5-5.5s2.5-5.5,5.5-5.5
		h21.6c3,0,5.5,2.5,5.5,5.5c0,0.3,0,0.6-0.1,1H19.2c-2.9,0-5.3,1.9-6.1,4.5H10.7z M40.8,19H23.7l-1.3,2.4L21,19h-1.8
		c-3,0-5.5-2.5-5.5-5.5S16.2,8,19.2,8h21.6c3,0,5.5,2.5,5.5,5.5S43.8,19,40.8,19z"/>
</g>
</svg>
