<svg xmlns="http://www.w3.org/2000/svg" width="29.244" height="25.794" viewBox="0 0 29.244 25.794">
  <g id="Group_9438" data-name="Group 9438" transform="translate(-128.938 -257.541)">
    <g id="Group_9435" data-name="Group 9435" transform="translate(128.938 257.541)">
      <path id="Path_6440" data-name="Path 6440" d="M152.485,276.169h-5.631a.5.5,0,0,1,0-.992h5.631a4.706,4.706,0,0,0,0-9.411h-.91a.5.5,0,0,1-.5-.49,6.819,6.819,0,0,0-13.637.077v1.371a.5.5,0,0,1-.5.5h-3.037a3.979,3.979,0,1,0,0,7.958h5.91a.5.5,0,0,1,0,.992h-5.91a4.971,4.971,0,1,1,0-9.942h2.541v-.875a7.811,7.811,0,0,1,15.6-.579h.435a5.7,5.7,0,1,1,0,11.4Z" transform="translate(-128.938 -257.541)" fill="#5271ff"/>
    </g>
    <g id="Group_9436" data-name="Group 9436" transform="translate(140.529 273.051)">
      <path id="Path_6441" data-name="Path 6441" d="M266.706,446.132a.5.5,0,0,1-.394-.2l-2.427-3.185a.5.5,0,0,1,.394-.8h.982v-3.479a.5.5,0,0,1,.5-.5h1.957a.5.5,0,0,1,.5.5v3.479h.924a.5.5,0,0,1,.394.8l-2.427,3.185A.5.5,0,0,1,266.706,446.132Zm-1.426-3.185,1.426,1.871,1.426-1.871h-.419a.5.5,0,0,1-.5-.5v-3.479h-.965v3.479a.5.5,0,0,1-.5.5Z" transform="translate(-263.783 -437.98)" fill="#5271ff"/>
    </g>
    <g id="Group_9437" data-name="Group 9437" transform="translate(136.78 280.211)">
      <path id="Path_6442" data-name="Path 6442" d="M233.022,524.4H220.67a.5.5,0,0,1-.5-.5v-2.132a.5.5,0,1,1,.992,0v1.636h11.36v-1.636a.5.5,0,0,1,.992,0v2.132A.5.5,0,0,1,233.022,524.4Z" transform="translate(-220.174 -521.28)" fill="#5271ff"/>
    </g>
  </g>
</svg>
