<svg xmlns="http://www.w3.org/2000/svg" width="31.08" height="23.306" viewBox="0 0 31.08 23.306">
  <g id="surface1" transform="translate(-503.999 -243.07)">
    <path id="Path_4687" data-name="Path 4687" d="M535.077,243.559a.415.415,0,0,0-.006-.083c0-.008,0-.016,0-.025s-.009-.024-.012-.035a.474.474,0,0,0-.018-.048.445.445,0,0,0-.036-.074c0-.005,0-.011-.007-.015s-.015-.013-.022-.021l0,0c-.007-.009-.009-.019-.016-.028s-.009-.005-.011-.009-.008-.012-.013-.017a.4.4,0,0,0-.05-.035.433.433,0,0,0-.044-.031c-.01-.006-.019-.013-.03-.019s-.024-.008-.036-.012a.524.524,0,0,0-.063-.021c-.01,0-.018-.008-.028-.01a.332.332,0,0,0-.033,0,.367.367,0,0,0-.058,0,.477.477,0,0,0-.069,0c-.017,0-.033.009-.051.013s-.031.007-.046.012-.015,0-.022.006l-30.11,13.113a.489.489,0,0,0-.046.029.52.52,0,0,0-.049.031.477.477,0,0,0-.093.093.3.3,0,0,0-.023.028.5.5,0,0,0-.066.154c0,.013,0,.028,0,.042a.485.485,0,0,0-.01.09.3.3,0,0,0,.009.042c0,.01,0,.019,0,.029s.01.021.012.032a.5.5,0,0,0,.035.091.544.544,0,0,0,.03.054.452.452,0,0,0,.064.073.5.5,0,0,0,.041.04.462.462,0,0,0,.093.052.373.373,0,0,0,.043.022l.005,0,7.147,2.382,5.252,6.685,0,0,0,0a.471.471,0,0,0,.1.078.5.5,0,0,0,.069.053.484.484,0,0,0,.193.044.123.123,0,0,0,.015,0h.01c.017,0,.031-.008.048-.01a.482.482,0,0,0,.112-.023.465.465,0,0,0,.121-.068s.011-.005.016-.009l.013-.01a.4.4,0,0,0,.04-.032l4.6-3.764,4.605,1.466h.008a.481.481,0,0,0,.14.022l.023,0,.033,0a.485.485,0,0,0,.135-.036l.022-.008.008,0c.016-.009.026-.023.041-.033a.485.485,0,0,0,.1-.079.465.465,0,0,0,.049-.077.45.45,0,0,0,.042-.067l7.77-19.912a.44.44,0,0,0,.013-.055.481.481,0,0,0,.012-.053c0-.012.006-.025.007-.037S535.077,243.567,535.077,243.559Zm-8.313,18.721-3.894-7.589,10.533-9.423Zm-9.666-2.423,5.025-4.5,3.737,7.284Zm-5.4-1.3-5.3-1.766,11-2.118Zm7.731-5.264L508.7,255.356l21.34-9.293Zm-6.954,5.909,7.411-5.046,0,0,8.914-6.069L515.823,259.7h0l-.005.005-.006.008a.473.473,0,0,0-.1.129.382.382,0,0,0-.018.034.486.486,0,0,0-.04.158c0,.008,0,.016,0,.025a.5.5,0,0,0,0,.088l.659,3.955Zm4.98,5.784-.7-4.217,4.218,1.342Zm0,0" transform="translate(0)" fill="#5271FF"/>
  </g>
</svg>
