<svg xmlns="http://www.w3.org/2000/svg" width="19.985" height="27.127" viewBox="0 0 19.985 27.127">
  <g id="Group_9441" data-name="Group 9441" transform="translate(-1144.562 -250.898)">
    <g id="Group_9439" data-name="Group 9439" transform="translate(1148.678 255.014)">
      <path id="Path_6443" data-name="Path 6443" d="M1197.171,309.384a5.877,5.877,0,1,1,5.877-5.877A5.883,5.883,0,0,1,1197.171,309.384Zm0-10.76a4.883,4.883,0,1,0,4.883,4.883A4.889,4.889,0,0,0,1197.171,298.625Z" transform="translate(-1191.294 -297.631)" fill="#5271ff"/>
    </g>
    <g id="Group_9440" data-name="Group 9440" transform="translate(1144.562 250.898)">
      <path id="Path_6444" data-name="Path 6444" d="M1154.417,278.025h0a.5.5,0,0,1-.407-.217l-7.972-11.7-.019-.029h0l-.019-.03a9.993,9.993,0,1,1,17.117,0l-.012.019h0l-.008.011h0l-8.27,11.734A.5.5,0,0,1,1154.417,278.025Zm-7.577-12.5,7.584,11.13,7.765-11.017c.021-.03.046-.065.075-.1h0a9,9,0,1,0-15.422-.01Zm15.847.267h0Z" transform="translate(-1144.562 -250.898)" fill="#5271ff"/>
    </g>
  </g>
</svg>
