<?xml version="1.0" encoding="utf-8"?>
<!-- Generator: Adobe Illustrator 25.2.0, SVG Export Plug-In . SVG Version: 6.00 Build 0)  -->
<svg version="1.1" id="Component_36_33" xmlns="http://www.w3.org/2000/svg" xmlns:xlink="http://www.w3.org/1999/xlink" x="0px"
	 y="0px" viewBox="0 0 28 28" style="enable-background:new 0 0 28 28;" xml:space="preserve">
<style type="text/css">
	.st0{fill:none;}
	.st1{fill:#5271FF;}
</style>
<g id="Rectangle_5">
	<g>
		<path class="st0" d="M14,0L14,0c7.7,0,14,6.3,14,14l0,0c0,7.7-6.3,14-14,14l0,0C6.3,28,0,21.7,0,14l0,0C0,6.3,6.3,0,14,0z"/>
	</g>
	<g>
		<path class="st1" d="M14,28C6.3,28,0,21.7,0,14S6.3,0,14,0s14,6.3,14,14S21.7,28,14,28z M14,1C6.8,1,1,6.8,1,14
			c0,7.2,5.8,13,13,13c7.2,0,13-5.8,13-13C27,6.8,21.2,1,14,1z"/>
	</g>
</g>
<g id="Group_6588" transform="translate(-600.5 -273.5)">
	<g id="Line_296">
		<path class="st1" d="M614.5,293c-0.3,0-0.5-0.2-0.5-0.5v-10c0-0.3,0.2-0.5,0.5-0.5s0.5,0.2,0.5,0.5v10
			C615,292.8,614.8,293,614.5,293z"/>
	</g>
	<g id="Line_297">
		<path class="st1" d="M619.5,288h-10c-0.3,0-0.5-0.2-0.5-0.5s0.2-0.5,0.5-0.5h10c0.3,0,0.5,0.2,0.5,0.5S619.8,288,619.5,288z"/>
	</g>
</g>
</svg>
