<svg xmlns="http://www.w3.org/2000/svg" width="28" height="28" viewBox="0 0 28 28">
  <path id="Union_11" data-name="Union 11" d="M8.988,28a.439.439,0,1,1,0-.875h2.218V25.812H.934A.908.908,0,0,1,0,24.937V10.059a.908.908,0,0,1,.934-.875H2.311a.438.438,0,1,1,0,.875H.934V21.436h.934v-4.9a.454.454,0,0,1,.467-.438.455.455,0,0,1,.467.438v4.879h7.564c-.046-.066-2.614-4.223-2.614-4.223a.856.856,0,0,1-.21.087,2.536,2.536,0,0,1-.747.11,3.786,3.786,0,0,1-2.965-1.466,2.887,2.887,0,0,1,.654-3.982c.3-.2,1.214-.744,1.26-.766a18.329,18.329,0,0,0,6.186-5.558,1.684,1.684,0,0,1,.047-.5.935.935,0,0,1,.467-.635c1.214-.656,3.409,1.554,4.926,3.873,1.4,2.166,2.148,4.2,1.891,5.185a1,1,0,0,1-.607.7,1.468,1.468,0,0,1-1.1-.132,13.052,13.052,0,0,0-7,1.554l2.5,4.135a1.391,1.391,0,0,1,.14,1.138,2.148,2.148,0,0,1-.281.5H24.746v-4.9a.468.468,0,0,1,.934,0v4.9h.934V10.059H25.189a.439.439,0,1,1,0-.875h1.424a.909.909,0,0,1,.934.875V24.937a.909.909,0,0,1-.934.875H16.342v1.313h2.218a.438.438,0,1,1,0,.875Zm3.152-.875h3.268V25.812H12.139ZM.934,24.937h25.68V22.311H.934Zm8.708-8.73c-.35.219-.7.416-1.051.613l2.451,4a.713.713,0,0,0,.934.241.593.593,0,0,0,.257-.831L9.758,16.141C9.712,16.163,9.688,16.185,9.642,16.207ZM5.019,12.662a2.07,2.07,0,0,0-.4,2.823,2.75,2.75,0,0,0,2.591.985,5.082,5.082,0,0,0,.7-.306L5.6,12.291C5.393,12.422,5.206,12.531,5.019,12.662ZM6.4,11.809l2.311,3.917a4.045,4.045,0,0,0,.42-.241A12.286,12.286,0,0,1,13.587,13.6a16.8,16.8,0,0,1-1.7-2.232,15.941,15.941,0,0,1-1.4-2.626A19.583,19.583,0,0,1,6.4,11.809Zm6.98-4.288a3.643,3.643,0,0,1,1.984.788,3.045,3.045,0,0,1,.91,3.632c1.051,1.138,1.821,1.553,2.031,1.488.21-.2.024-1.9-1.751-4.595-1.7-2.6-3.2-3.588-3.595-3.588H12.91C12.77,5.377,12.793,6.186,13.377,7.521Zm-2.194.46a13.688,13.688,0,0,0,1.494,2.932,14.954,14.954,0,0,0,2.008,2.494c.514-.066,1.051-.131,1.658-.153A14.32,14.32,0,0,1,13.867,10.3a13.661,13.661,0,0,1-1.728-3.457C11.813,7.258,11.486,7.652,11.182,7.98Zm3.455,1.882q.49.689.91,1.247a2.176,2.176,0,0,0-.817-2.144,2.938,2.938,0,0,0-.91-.46C14.054,8.921,14.31,9.381,14.637,9.862Zm9.641,14.2a.438.438,0,1,1,0-.875h.934a.438.438,0,1,1,0,.875Zm-1.8-13.04-2.638-1.2a1.384,1.384,0,0,1-.7-1.86,1.476,1.476,0,0,1,.84-.722,1.717,1.717,0,0,1,1.144.066l.4.175.187-.394a1.341,1.341,0,0,1,.84-.722,1.641,1.641,0,0,1,1.12.066,1.419,1.419,0,0,1,.747.787,1.365,1.365,0,0,1-.047,1.051l-1.26,2.56a.5.5,0,0,1-.257.219.424.424,0,0,1-.163.022A.712.712,0,0,1,22.481,11.022Zm-2.195-3a.62.62,0,0,0-.3.285.6.6,0,0,0,.21.722l2.218,1.006,1.074-2.144a.461.461,0,0,0,.024-.394.529.529,0,0,0-.28-.306.533.533,0,0,0-.7.241l-.4.788a.493.493,0,0,1-.257.219.488.488,0,0,1-.35-.022l-.817-.372A1.044,1.044,0,0,0,20.45,8,.425.425,0,0,0,20.287,8.024ZM16.482,5.639a1.073,1.073,0,0,1-.77-.328.318.318,0,0,0-.094-.066.986.986,0,0,1-.187-.569V1.854A1.015,1.015,0,0,1,16.482.87H19.96a1.015,1.015,0,0,1,1.05.984v2.8a1.015,1.015,0,0,1-1.05.984ZM19,4.02l.42.766h.537a.107.107,0,0,0,.117-.109h-.024V4.436l-.63-.722Zm-2.194.744H18.4l-.373-.7-.281-.5Zm-.42-2.91V3.845l1.051-1.357a.493.493,0,0,1,.42-.175.488.488,0,0,1,.374.241l.35.657.63-.481a.5.5,0,0,1,.654.066l.21.24V1.854a.1.1,0,0,0-.094-.109H16.5A.107.107,0,0,0,16.388,1.854ZM22.435,3.67l-.444-1.226a1.034,1.034,0,0,1,.07-.831,1.1,1.1,0,0,1,.677-.547L26.053.06a1.176,1.176,0,0,1,1.471.678l.42,1.247a1.034,1.034,0,0,1-.07.831,1.1,1.1,0,0,1-.677.547L23.882,4.37a1.894,1.894,0,0,1-.35.044A1.144,1.144,0,0,1,22.435,3.67Zm.607-1.794a.235.235,0,0,0-.14.109.17.17,0,0,0-.023.153l.444,1.225a.248.248,0,0,0,.3.131l3.292-1.006a.235.235,0,0,0,.14-.109.131.131,0,0,0,0-.131l-.444-1.225A.222.222,0,0,0,26.4.87h-.07ZM24.7,2.27l-.14-.416.513.066.537.066-.747.7Z" transform="translate(0 0)" fill="#545454"/>
</svg>
