<svg id="Group_7" data-name="Group 7" xmlns="http://www.w3.org/2000/svg" xmlns:xlink="http://www.w3.org/1999/xlink" width="87.774" height="87.774" viewBox="0 0 87.774 87.774">
  <defs>
    <clipPath id="clip-path">
      <rect id="Rectangle_6" data-name="Rectangle 6" width="48.181" height="48.181" fill="none"/>
    </clipPath>
  </defs>
  <circle id="Ellipse_1" data-name="Ellipse 1" cx="43.887" cy="43.887" r="43.887" fill="#1a1d3d"/>
  <g id="Group_6" data-name="Group 6" transform="translate(20.784 18.895)">
    <g id="Group_5" data-name="Group 5" transform="translate(0)" clip-path="url(#clip-path)">
      <path id="Path_1" data-name="Path 1" d="M65.876,531.1a.551.551,0,0,0-.552.552V541.9a.7.7,0,0,1-.7.7h-8a3.365,3.365,0,1,0-.011,1.1h8.015a1.805,1.805,0,0,0,1.8-1.8V531.651a.55.55,0,0,0-.552-.552M53.3,545.376a2.264,2.264,0,1,1,2.264-2.264A2.266,2.266,0,0,1,53.3,545.376Z" transform="translate(-49.938 -502.613)" fill="#88d01c"/>
      <path id="Path_2" data-name="Path 2" d="M79.826,539.745A3.371,3.371,0,0,0,76.5,542.6h-8a.7.7,0,0,1-.7-.7V531.651a.552.552,0,0,0-1.1,0V541.9a1.805,1.805,0,0,0,1.8,1.8h8.015a3.366,3.366,0,1,0,3.312-3.955m0,5.631a2.264,2.264,0,1,1,2.264-2.264A2.266,2.266,0,0,1,79.826,545.376Z" transform="translate(-35.026 -502.613)" fill="#88d01c"/>
      <path id="Path_3" data-name="Path 3" d="M64.816,544.034V531.651a.552.552,0,0,0-1.1,0v12.384a3.367,3.367,0,1,0,1.1,0m-.552,5.581a2.264,2.264,0,1,1,2.264-2.264A2.265,2.265,0,0,1,64.264,549.616Z" transform="translate(-40.185 -502.613)" fill="#88d01c"/>
      <path id="Path_4" data-name="Path 4" d="M84.573,545.387H61.293a10.244,10.244,0,0,1,0-20.487c.295,0,.591.013.892.04a10.718,10.718,0,0,1,21.124.04,10.243,10.243,0,1,1,1.264,20.408M61.293,526a9.14,9.14,0,0,0,0,18.281h23.28a9.14,9.14,0,1,0-1.632-18.131.555.555,0,0,1-.648-.482,9.613,9.613,0,0,0-19.091-.057.553.553,0,0,1-.625.482A9.012,9.012,0,0,0,61.293,526Z" transform="translate(-48.943 -515.987)" fill="#fff"/>
    </g>
  </g>
</svg>
