<svg id="Group_7" data-name="Group 7" xmlns="http://www.w3.org/2000/svg" width="87.774" height="87.774" viewBox="0 0 87.774 87.774">
  <circle id="Ellipse_1" data-name="Ellipse 1" cx="43.887" cy="43.887" r="43.887" fill="#1a1d3d"/>
  <g id="Group_18" data-name="Group 18" transform="translate(29.758 28.94)">
    <rect id="Rectangle_10" data-name="Rectangle 10" width="0.93" height="0.93" transform="translate(13.484 26.039)" fill="#fff"/>
    <rect id="Rectangle_11" data-name="Rectangle 11" width="0.93" height="0.93" transform="translate(13.484 24.179)" fill="#fff"/>
    <path id="Path_10" data-name="Path 10" d="M688.223,520.786l.642.672a7.906,7.906,0,0,1,1.07-.861l-.516-.771A8.654,8.654,0,0,0,688.223,520.786Z" transform="translate(-683.633 -514.612)" fill="#fff"/>
    <path id="Path_11" data-name="Path 11" d="M689.582,519.806l.469.8a8.012,8.012,0,0,1,6.584-.614l.312-.875A8.955,8.955,0,0,0,689.582,519.806Z" transform="translate(-683.307 -514.899)" fill="#fff"/>
    <path id="Path_12" data-name="Path 12" d="M713.349,524.819V521.3l-1.273-.317a6.674,6.674,0,0,0-.336-.82l.672-1.122-2.485-2.486-1.122.673a6.513,6.513,0,0,0-.82-.336l-.317-1.273h-3.516l-.318,1.273a6.6,6.6,0,0,0-.82.336l-1.122-.673-2,2a10.688,10.688,0,0,0-15.367,9.615v5.449l1.425.476.475,5.234h3.68v5.115h.93v-5.142a4.189,4.189,0,0,0,3.72-4.157v-.465h-.93v.465a3.258,3.258,0,0,1-3.255,3.255h-3.294l-.454-4.994-1.366-.454v-4.781a9.7,9.7,0,0,1,1.221-4.717c1.932.692,2.8,2.2,3.722,3.787s1.87,3.223,3.9,4.071c0,.038-.006.077-.006.114a3.258,3.258,0,0,0,3.255,3.255,3.291,3.291,0,0,0,.668-.068l2.754,2.753,0,0-1.094.8v6.28h.93v-5.808l.71-.516a10.645,10.645,0,0,0,4.352-7.625h1.81l.317-1.272a6.7,6.7,0,0,0,.82-.336l1.122.673,2.485-2.486-.672-1.123a6.579,6.579,0,0,0,.336-.818Zm-15.809,8.936a2.325,2.325,0,1,1,2.325-2.325A2.326,2.326,0,0,1,697.54,533.755Zm4.149,3.028-2.531-2.532a3.315,3.315,0,0,0,1.2-1.2l2.5,2.5A9.723,9.723,0,0,1,701.689,536.782Zm1.724-2-2.686-2.687a3.253,3.253,0,0,0-6.259-1.731c-1.612-.753-2.423-2.128-3.268-3.587-.938-1.623-1.912-3.3-4.03-4.124a9.746,9.746,0,0,1,12.5-3.166l.405.675a6.713,6.713,0,0,0-.336.82l-1.273.317v3.516l1.273.319a6.617,6.617,0,0,0,.336.818l-.672,1.123,2.485,2.486,1.122-.673a6.789,6.789,0,0,0,.82.336l.318,1.272h.774A9.754,9.754,0,0,1,703.412,534.785Zm7.927-10.421-.074.255a5.614,5.614,0,0,1-.465,1.128l-.129.234.572.953-1.458,1.458-.953-.572-.234.129a5.613,5.613,0,0,1-1.128.465l-.257.074-.27,1.08h-2.063l-.27-1.08-.257-.074a5.57,5.57,0,0,1-1.127-.465l-.234-.129-.954.572-1.459-1.458.573-.953-.129-.234a5.593,5.593,0,0,1-.465-1.128l-.074-.255-1.081-.272v-2.063l1.081-.27.074-.255a5.593,5.593,0,0,1,.465-1.128l.129-.234-.573-.953,1.459-1.458.954.572.234-.129a5.57,5.57,0,0,1,1.127-.465l.257-.074.27-1.081h2.063l.27,1.081.257.074a5.613,5.613,0,0,1,1.128.465l.234.129.953-.572,1.458,1.458-.572.953.129.234a5.614,5.614,0,0,1,.465,1.128l.074.255,1.08.27v2.063Z" transform="translate(-684.521 -515.621)" fill="#fff"/>
    <path id="Path_13" data-name="Path 13" d="M702.311,519.371a2.79,2.79,0,1,0,2.79,2.79A2.793,2.793,0,0,0,702.311,519.371Zm0,4.65a1.86,1.86,0,1,1,1.86-1.86A1.861,1.861,0,0,1,702.311,524.021Z" transform="translate(-680.922 -514.721)" fill="#fff"/>
  </g>
</svg>
