<svg xmlns="http://www.w3.org/2000/svg" width="67.526" height="67.526" viewBox="0 0 67.526 67.526">
  <g id="Group_525" data-name="Group 525" transform="translate(-3665.161 -1399.051)">
    <path id="Path_209" data-name="Path 209" d="M3679.416,1427.2a1.61,1.61,0,0,0,2.263-.256l0,0a1.783,1.783,0,0,0-.189-2.443c-.023-.02-.046-.04-.07-.059a1.611,1.611,0,0,0-2.267.25,1.782,1.782,0,0,0,.182,2.439C3679.363,1427.155,3679.389,1427.177,3679.416,1427.2Z" fill="#fff"/>
    <path id="Path_210" data-name="Path 210" d="M3680.414,1437.938a1.62,1.62,0,0,0-1.07.408,1.788,1.788,0,0,0-.193,2.44,1.636,1.636,0,0,0,1.268.613,1.608,1.608,0,0,0,1.07-.411,1.742,1.742,0,0,0,.582-1.178,1.777,1.777,0,0,0-.387-1.261A1.626,1.626,0,0,0,3680.414,1437.938Z" fill="#fff"/>
    <path id="Path_211" data-name="Path 211" d="M3698.924,1399.051a33.763,33.763,0,1,0,33.763,33.763A33.763,33.763,0,0,0,3698.924,1399.051Zm-20.551,24.7a2.808,2.808,0,0,1,2.048-.9,2.735,2.735,0,0,1,1.7.59,2.988,2.988,0,0,1,1.123,2.053,3.067,3.067,0,0,1-.665,2.253.26.26,0,0,0,.025.358l0,0,2.33,2.085-1.7,1.684-.052-.056a3.91,3.91,0,0,1-.634-.85l-.252-.46a3.514,3.514,0,0,0-2.433-1.773,2.806,2.806,0,0,1-1.3-.656l-.008-.007A3.06,3.06,0,0,1,3678.373,1423.749Zm17.43,14.645h-6.119v0h-.008l-2.919-2.964,2.037-1.805,4.563,4.062h2.446Zm2.246-14.636-15.434,13.631a.261.261,0,0,0-.029.357,3.064,3.064,0,0,1,.655,2.259,2.977,2.977,0,0,1-1.131,2.047,2.74,2.74,0,0,1-1.693.582h0a2.8,2.8,0,0,1-2.058-.906,3.059,3.059,0,0,1,.2-4.32l.008-.008a2.8,2.8,0,0,1,1.308-.65,3.512,3.512,0,0,0,2.438-1.76l.257-.46a3.963,3.963,0,0,1,.636-.848l7.579-7.623a9.962,9.962,0,0,1,7.016-2.987.367.367,0,0,1,.354.256A.4.4,0,0,1,3698.049,1423.758Zm6.425,14.636h-6.122v-.71h6.122Zm8.669,0h-6.12v-.71h6.12Zm8.67,0h-6.122v-.71h6.122Z" fill="#fff"/>
  </g>
</svg>
