<svg xmlns="http://www.w3.org/2000/svg" width="67.526" height="67.526" viewBox="0 0 67.526 67.526">
  <g id="Group_527" data-name="Group 527" transform="translate(-3661.958 -1555.415)">
    <path id="Path_215" data-name="Path 215" d="M3702.31,1590.018l-.342-1.372a7.381,7.381,0,0,1-.883-.361l-1.209.726-2.679-2.681.724-1.211a7.355,7.355,0,0,1-.363-.882l-1.373-.344V1580.1l1.373-.342a7.391,7.391,0,0,1,.363-.885l-.437-.727a10.51,10.51,0,0,0-13.48,3.412,8.812,8.812,0,0,1,4.344,4.446,8.331,8.331,0,0,0,3.524,3.868,3.5,3.5,0,0,1,6.747,1.866l2.9,2.9,0,0a10.51,10.51,0,0,0,1.64-4.614Zm-15.523-8.665-.692-.725a9.332,9.332,0,0,1,1.285-1.034l.56.831A8.553,8.553,0,0,0,3686.787,1581.353Zm8.728-1.885a8.638,8.638,0,0,0-7.1.662l-.506-.868a9.655,9.655,0,0,1,7.94-.737Z" fill="#fff"/>
    <path id="Path_216" data-name="Path 216" d="M3696.928,1594.061l2.728,2.729v-.005a10.613,10.613,0,0,0,1.265-1.323l-2.7-2.7A3.576,3.576,0,0,1,3696.928,1594.061Z" fill="#fff"/>
    <path id="Path_217" data-name="Path 217" d="M3704.2,1579.988a2.005,2.005,0,1,0,2.005,2.005A2,2,0,0,0,3704.2,1579.988Z" fill="#fff"/>
    <path id="Path_218" data-name="Path 218" d="M3697.688,1591.02h0a2.506,2.506,0,1,0-2.5,2.508v-.005A2.506,2.506,0,0,0,3697.688,1591.02Z" fill="#fff"/>
    <path id="Path_219" data-name="Path 219" d="M3709.99,1580.316a6.065,6.065,0,0,0-.5-1.216l-.14-.253.617-1.028-1.572-1.572-1.028.616-.252-.14a6.014,6.014,0,0,0-1.216-.5l-.28-.08-.292-1.166H3703.1l-.292,1.166-.28.08a5.983,5.983,0,0,0-1.215.5l-.252.14-1.029-.616-1.582,1.571.618,1.028-.14.252a6.03,6.03,0,0,0-.5,1.216l-.08.281-1.166.291v2.224l1.166.293.08.28a6.034,6.034,0,0,0,.5,1.216l.14.252-.618,1.029,1.574,1.572,1.028-.616.253.14a5.981,5.981,0,0,0,1.214.5l.281.08.291,1.165h2.224l.291-1.165.281-.08a6.014,6.014,0,0,0,1.216-.5l.252-.14,1.027.616,1.573-1.572-.617-1.029.14-.252a6.034,6.034,0,0,0,.5-1.216l.081-.28,1.172-.292v-2.223l-1.164-.292ZM3704.2,1585a3.007,3.007,0,1,1,3.007-3.007A3.007,3.007,0,0,1,3704.2,1585Z" fill="#fff"/>
    <path id="Path_220" data-name="Path 220" d="M3695.721,1555.415a33.763,33.763,0,1,0,33.763,33.762A33.763,33.763,0,0,0,3695.721,1555.415Zm.964,47.63h-1v-1h1Zm0-2.005h-1v-1h1Zm15.54-17.147-1.345.336a7.2,7.2,0,0,1-.362.883l.725,1.211-2.679,2.68-1.21-.725a7.417,7.417,0,0,1-.882.361l-.342,1.372h-1.952a11.479,11.479,0,0,1-4.692,8.22l-.766.56v6.261h-1v-6.782l1.178-.858-2.969-2.967a3.516,3.516,0,0,1-4.229-3.435v-.123a8.963,8.963,0,0,1-4.2-4.389,7.777,7.777,0,0,0-4.014-4.082,10.474,10.474,0,0,0-1.317,5.085v5.154l1.473.489.489,5.384h3.551a3.514,3.514,0,0,0,3.5-3.5v-.5h1v.5a4.517,4.517,0,0,1-4.011,4.484v5.543h-1v-5.507H3683.2l-.512-5.641-1.541-.513v-5.874a11.52,11.52,0,0,1,16.567-10.369l2.16-2.159,1.21.725a7.379,7.379,0,0,1,.882-.363l.342-1.373h3.791l.342,1.373a6.99,6.99,0,0,1,.882.363l1.21-.725,2.679,2.679-.725,1.209a7.19,7.19,0,0,1,.362.884l1.373.342Z" fill="#fff"/>
  </g>
</svg>
