<svg xmlns="http://www.w3.org/2000/svg" width="67.526" height="67.526" viewBox="0 0 67.526 67.526">
  <g id="Group_524" data-name="Group 524" transform="translate(-3669.511 -1316.347)">
    <path id="Path_204" data-name="Path 204" d="M3702.189,1366.182a1.838,1.838,0,1,0,1.838-1.838A1.838,1.838,0,0,0,3702.189,1366.182Z" fill="#fff"/>
    <path id="Path_205" data-name="Path 205" d="M3720.836,1345.42a7.418,7.418,0,0,0-8.758-7.311.451.451,0,0,1-.523-.364l0-.028a7.81,7.81,0,0,0-15.5-.045.448.448,0,0,1-.5.392h-.009a7.42,7.42,0,1,0-1.044,14.767h18.9A7.421,7.421,0,0,0,3720.836,1345.42Z" fill="#fff"/>
    <path id="Path_206" data-name="Path 206" d="M3687.2,1360.9a1.838,1.838,0,0,0,0,3.675v.005h0a1.84,1.84,0,0,0,0-3.68Z" fill="#fff"/>
    <path id="Path_207" data-name="Path 207" d="M3703.274,1316.347a33.763,33.763,0,1,0,33.763,33.763A33.763,33.763,0,0,0,3703.274,1316.347Zm18.054,49.076a2.733,2.733,0,0,1-3.169-2.212h-6.507a1.467,1.467,0,0,1-1.464-1.465v-8.02h-5.714v9.761a2.733,2.733,0,1,1-.9,0v-9.761h-5.715v8.02a1.467,1.467,0,0,1-1.464,1.465h-6.508a2.732,2.732,0,1,1,.01-.9h6.5a.569.569,0,0,0,.568-.569v-8.02H3694.5a8.317,8.317,0,0,1,0-16.634c.24,0,.48.011.724.033a8.7,8.7,0,0,1,17.151.033,8.316,8.316,0,1,1,1.026,16.569h-2.319v8.025a.569.569,0,0,0,.568.569h6.5a2.736,2.736,0,0,1,2.7-2.314l0-.006a2.733,2.733,0,0,1,.48,5.423Z" fill="#fff"/>
    <path id="Path_208" data-name="Path 208" d="M3720.848,1360.9a1.838,1.838,0,0,0,0,3.675l0,.005a1.84,1.84,0,0,0,0-3.68Z" fill="#fff"/>
  </g>
</svg>
