<svg xmlns="http://www.w3.org/2000/svg" width="19.216" height="23.049" viewBox="0 0 19.216 23.049">
  <g id="Group_4207_8_" transform="translate(-42.594 -0.003)">
    <g id="Group_4207_9_" transform="translate(42.594 0.003)">
      <g id="bell_1_" transform="translate(0 0)">
        <g id="Group_4070_1_" transform="translate(0 0)">
          <g id="Group_4069_1_">
            <path id="Path_3995_1_" d="M47.736,7.446,46.089,4.695a8.17,8.17,0,0,1-1.166-4.2V-1.915a6.727,6.727,0,0,0-4.809-6.438v-1.724A1.925,1.925,0,0,0,38.187-12a1.922,1.922,0,0,0-1.923,1.923v1.724a6.731,6.731,0,0,0-4.809,6.438V.494a8.165,8.165,0,0,1-1.162,4.2L28.66,7.446a.478.478,0,0,0,.167.657.465.465,0,0,0,.248.068H47.327a.478.478,0,0,0,.482-.477A.468.468,0,0,0,47.736,7.446Z" transform="translate(-28.592 12)" fill="#545454"/>
          </g>
        </g>
        <g id="Group_4072_1_" transform="translate(6.581 21.129)">
          <g id="Group_4071_1_" transform="translate(0)">
            <path id="Path_3996_1_" d="M168.6,437.5a3.34,3.34,0,0,0,6.047,0Z" transform="translate(-168.6 -437.5)" fill="#545454"/>
          </g>
        </g>
      </g>
    </g>
  </g>
</svg>
