<svg xmlns="http://www.w3.org/2000/svg" xmlns:xlink="http://www.w3.org/1999/xlink" width="25.284" height="25.284" viewBox="0 0 25.284 25.284">
  <defs>
    <clipPath id="clip-path">
      <rect id="Rectangle_1633" data-name="Rectangle 1633" width="25.284" height="25.284" transform="translate(0 0)" fill="#fff"/>
    </clipPath>
  </defs>
  <g id="Group_4494" data-name="Group 4494" transform="translate(-225.801 -27.938)">
    <g id="Group_4493" data-name="Group 4493" transform="translate(225.801 27.938)" clip-path="url(#clip-path)">
      <g id="Group_4492" data-name="Group 4492" transform="translate(0 0)">
        <path id="Path_4106" data-name="Path 4106" d="M249.522,29.322h-1.779v-.988a.4.4,0,1,0-.791,0V31.5a.593.593,0,1,1-1.186,0V28.334a.4.4,0,1,0-.791,0v.988h-5.14v-.988a.4.4,0,1,0-.791,0V31.5a.593.593,0,1,1-1.186,0V28.334a.4.4,0,1,0-.791,0v.988h-5.139v-.988a.4.4,0,1,0-.791,0V31.5a.593.593,0,1,1-1.186,0V28.334a.4.4,0,1,0-.791,0v.988h-1.779A1.586,1.586,0,0,0,225.8,30.9V51.659a1.586,1.586,0,0,0,1.582,1.581h22.139a1.586,1.586,0,0,0,1.581-1.581V30.9A1.586,1.586,0,0,0,249.522,29.322Zm-4.349,2.906a1.363,1.363,0,0,0,1.186.652,1.412,1.412,0,0,0,1.186-.652v.1a1.186,1.186,0,1,1-2.372,0Zm-7.907,0a1.363,1.363,0,0,0,1.186.652,1.412,1.412,0,0,0,1.186-.652v.1a1.186,1.186,0,1,1-2.372,0Zm-7.907,0a1.363,1.363,0,0,0,1.186.652,1.414,1.414,0,0,0,1.187-.652v.1a1.186,1.186,0,1,1-2.372,0Zm2.372,18.64a.4.4,0,0,1-.4.4h-1.582a.4.4,0,0,1-.4-.4V49.286a.4.4,0,0,1,.4-.4h1.582a.4.4,0,0,1,.4.4Zm0-3.953a.4.4,0,0,1-.4.4h-1.582a.4.4,0,0,1-.4-.4V45.333a.4.4,0,0,1,.4-.4h1.582a.4.4,0,0,1,.4.4Zm0-3.954a.4.4,0,0,1-.4.4h-1.582a.4.4,0,0,1-.4-.4V41.38a.4.4,0,0,1,.4-.4h1.582a.4.4,0,0,1,.4.4Zm3.953,7.907a.4.4,0,0,1-.4.4h-1.581a.4.4,0,0,1-.4-.4V49.286a.4.4,0,0,1,.4-.4h1.581a.4.4,0,0,1,.4.4Zm0-3.953a.4.4,0,0,1-.4.4h-1.581a.4.4,0,0,1-.4-.4V45.333a.4.4,0,0,1,.4-.4h1.581a.4.4,0,0,1,.4.4Zm0-3.954a.4.4,0,0,1-.4.4h-1.581a.4.4,0,0,1-.4-.4V41.38a.4.4,0,0,1,.4-.4h1.581a.4.4,0,0,1,.4.4Zm3.953,7.907a.4.4,0,0,1-.4.4h-1.582a.4.4,0,0,1-.4-.4V49.286a.4.4,0,0,1,.4-.4h1.582a.4.4,0,0,1,.4.4Zm0-3.953a.4.4,0,0,1-.4.4h-1.582a.4.4,0,0,1-.4-.4V45.333a.4.4,0,0,1,.4-.4h1.582a.4.4,0,0,1,.4.4Zm0-3.954a.4.4,0,0,1-.4.4h-1.582a.4.4,0,0,1-.4-.4V41.38a.4.4,0,0,1,.4-.4h1.582a.4.4,0,0,1,.4.4Zm0-3.953a.4.4,0,0,1-.4.4h-1.582a.4.4,0,0,1-.4-.4V37.427a.4.4,0,0,1,.4-.4h1.582a.4.4,0,0,1,.4.4Zm3.953,11.86a.4.4,0,0,1-.4.4h-1.582a.4.4,0,0,1-.4-.4V49.286a.4.4,0,0,1,.4-.4H243.2a.4.4,0,0,1,.4.4Zm0-3.953a.4.4,0,0,1-.4.4h-1.582a.4.4,0,0,1-.4-.4V45.333a.4.4,0,0,1,.4-.4H243.2a.4.4,0,0,1,.4.4Zm0-3.954a.4.4,0,0,1-.4.4h-1.582a.4.4,0,0,1-.4-.4V41.38a.4.4,0,0,1,.4-.4H243.2a.4.4,0,0,1,.4.4Zm0-3.953a.4.4,0,0,1-.4.4h-1.582a.4.4,0,0,1-.4-.4V37.427a.4.4,0,0,1,.4-.4H243.2a.4.4,0,0,1,.4.4Zm3.953,7.907a.4.4,0,0,1-.4.4h-1.582a.4.4,0,0,1-.4-.4V45.333a.4.4,0,0,1,.4-.4h1.582a.4.4,0,0,1,.4.4Zm0-3.954a.4.4,0,0,1-.4.4h-1.582a.4.4,0,0,1-.4-.4V41.38a.4.4,0,0,1,.4-.4h1.582a.4.4,0,0,1,.4.4Zm0-3.953a.4.4,0,0,1-.4.4h-1.582a.4.4,0,0,1-.4-.4V37.427a.4.4,0,0,1,.4-.4h1.582a.4.4,0,0,1,.4.4Zm2.767-3.953h-23.72V30.9a.793.793,0,0,1,.791-.791h1.779V30.9a1.976,1.976,0,1,0,2.767,0v-.791h5.139V30.9a1.977,1.977,0,1,0,2.767,0v-.791h5.14V30.9a1.976,1.976,0,1,0,2.767,0v-.791h1.779a.793.793,0,0,1,.79.791Z" transform="translate(-225.801 -27.938)" fill="#fff"/>
      </g>
    </g>
  </g>
</svg>
