<svg id="Component_21_1" data-name="Component 21 – 1" xmlns="http://www.w3.org/2000/svg" width="27" height="27" viewBox="0 0 27 27">
  <path id="Union_22" data-name="Union 22" d="M23.437,26.994a25.757,25.757,0,0,1-15.59-7.845A25.806,25.806,0,0,1,.006,3.56a.912.912,0,0,1,.511-.921L5.844.123A.937.937,0,0,1,7.051.466l3.328,5.155a.927.927,0,0,1-.137,1.156L8.154,8.86a.94.94,0,0,0-.265.776,10.875,10.875,0,0,0,3.29,6.183,10.885,10.885,0,0,0,6.186,3.293.918.918,0,0,0,.776-.265l2.078-2.088a.925.925,0,0,1,1.148-.132l5.163,3.322a.922.922,0,0,1,.343,1.2l-2.516,5.332a.914.914,0,0,1-.82.517A.762.762,0,0,1,23.437,26.994Zm1.7-13.488A11.66,11.66,0,0,0,13.5,1.862.931.931,0,1,1,13.5,0,13.52,13.52,0,0,1,27,13.5a.93.93,0,0,1-1.861.005Zm-4.652,0a6.993,6.993,0,0,0-6.982-6.984.933.933,0,1,1,0-1.866A8.853,8.853,0,0,1,22.35,13.5a.938.938,0,0,1-.934.931A.928.928,0,0,1,20.487,13.506Z" transform="translate(0 0)" fill="#171c3c"/>
</svg>
