<svg id="Group_4491" data-name="Group 4491" xmlns="http://www.w3.org/2000/svg" xmlns:xlink="http://www.w3.org/1999/xlink" width="21.46" height="25.284" viewBox="0 0 21.46 25.284">
  <defs>
    <clipPath id="clip-path">
      <rect id="Rectangle_1632" data-name="Rectangle 1632" width="21.46" height="25.284" fill="#fff"/>
    </clipPath>
  </defs>
  <path id="Path_4104" data-name="Path 4104" d="M252.528,248.973a8.3,8.3,0,1,0,8.341,8.3A8.318,8.318,0,0,0,252.528,248.973Zm-6.356,8.692h-.794a.4.4,0,1,1,0-.79h.794a.4.4,0,1,1,0,.79Zm2.145,4.345-.556.553a.385.385,0,0,1-.556,0,.381.381,0,0,1,0-.553l.556-.553a.385.385,0,0,1,.556,0A.381.381,0,0,1,248.318,262.01Zm0-8.928a.386.386,0,0,1-.556,0l-.576-.553a.38.38,0,0,1,0-.553.385.385,0,0,1,.556,0l.556.553A.366.366,0,0,1,248.318,253.082Zm4.607,11.3a.4.4,0,0,1-.794,0v-.79a.4.4,0,0,1,.794,0Zm0-7.111a.4.4,0,0,1-.4.4h-3.535a.4.4,0,1,1,0-.79h3.138v-3.418a.4.4,0,0,1,.794,0Zm0-6.321a.4.4,0,0,1-.794,0v-.79a.4.4,0,0,1,.794,0Zm4.945,11.635a.385.385,0,0,1-.556,0l-.576-.573a.381.381,0,0,1,0-.553.385.385,0,0,1,.556,0l.556.553A.387.387,0,0,1,257.87,262.583Zm0-10.054-.576.553a.386.386,0,0,1-.556,0,.381.381,0,0,1,0-.553l.556-.553a.385.385,0,0,1,.556,0A.365.365,0,0,1,257.87,252.528Zm1.807,5.136h-.794a.4.4,0,1,1,0-.79h.794a.4.4,0,1,1,0,.79Z" transform="translate(-241.781 -242.652)" fill="#fff"/>
  <g id="Group_4490" data-name="Group 4490">
    <g id="Group_4489" data-name="Group 4489" clip-path="url(#clip-path)">
      <g id="Group_4488" data-name="Group 4488" transform="translate(0.025 0)">
        <path id="Path_4105" data-name="Path 4105" d="M245.424,210.848l.6-.592.556.553a.77.77,0,0,0,1.112,0l.278-.277a1.178,1.178,0,0,0,.358-.83,1.1,1.1,0,0,0-.358-.83l-2.244-2.232a1.192,1.192,0,0,0-.834-.355,1.115,1.115,0,0,0-.834.355l-.278.277a.777.777,0,0,0-.239.553.746.746,0,0,0,.239.553l.556.553-.795.79a10.776,10.776,0,0,0-4.448-1.541v-1.639h.794a.8.8,0,0,0,.795-.79V205a1.192,1.192,0,0,0-1.192-1.186h-3.178A1.192,1.192,0,0,0,235.117,205v.395a.8.8,0,0,0,.795.79h.794v1.639a10.749,10.749,0,0,0-4.448,1.521l-.794-.79.556-.553a.776.776,0,0,0,.238-.553.746.746,0,0,0-.238-.553l-.278-.276a1.192,1.192,0,0,0-.834-.355,1.113,1.113,0,0,0-.834.355l-2.264,2.232a1.2,1.2,0,0,0,0,1.679l.278.277a.77.77,0,0,0,1.112,0l.556-.553.6.592a10.622,10.622,0,0,0,.04,15.191,10.839,10.839,0,0,0,7.07,3.062h.437a10.7,10.7,0,0,0,10.724-10.667A10.58,10.58,0,0,0,245.424,210.848ZM237.9,227.52a9.087,9.087,0,1,1,9.135-9.086A9.112,9.112,0,0,1,237.9,227.52Z" transform="translate(-227.175 -203.816)" fill="#fff"/>
      </g>
    </g>
  </g>
</svg>
