<svg xmlns="http://www.w3.org/2000/svg" width="22.122" height="22.122" viewBox="0 0 22.122 22.122">
  <g id="Group_368" data-name="Group 368" transform="translate(0 0)">
    <path id="Path_164" data-name="Path 164" d="M162.22,153.078h-7.7a1.44,1.44,0,0,0-1.438,1.438v7.7a1.44,1.44,0,0,0,1.438,1.438h7.7a1.44,1.44,0,0,0,1.438-1.438v-7.7A1.44,1.44,0,0,0,162.22,153.078Zm.477,9.141a.477.477,0,0,1-.477.477h-7.7a.477.477,0,0,1-.477-.477v-7.7a.477.477,0,0,1,.477-.477h7.7a.477.477,0,0,1,.477.477Z" transform="translate(-147.308 -147.307)" fill="#545454"/>
    <path id="Path_165" data-name="Path 165" d="M150.43,149.76h1.67a.487.487,0,0,0,0-.975h-2.835a.483.483,0,0,0-.479.488v2.877a.479.479,0,1,0,.957,0v-1.711l4,3.979a.474.474,0,0,0,.678-.008.494.494,0,0,0-.009-.69Z" transform="translate(-148.786 -148.785)" fill="#545454"/>
    <path id="Path_166" data-name="Path 166" d="M166.241,148.785h-2.835a.487.487,0,0,0,0,.975h1.67l-3.983,3.96a.5.5,0,0,0-.008.69.474.474,0,0,0,.678.008l4-3.979v1.711a.479.479,0,1,0,.957,0v-2.877A.483.483,0,0,0,166.241,148.785Z" transform="translate(-144.598 -148.785)" fill="#545454"/>
    <path id="Path_167" data-name="Path 167" d="M153.744,161.086l-4,3.979v-1.711a.479.479,0,1,0-.957,0v2.878a.482.482,0,0,0,.479.487H152.1a.487.487,0,0,0,0-.975h-1.67l3.982-3.96a.493.493,0,0,0,.009-.688A.474.474,0,0,0,153.744,161.086Z" transform="translate(-148.786 -144.597)" fill="#545454"/>
    <path id="Path_168" data-name="Path 168" d="M166.241,162.868a.482.482,0,0,0-.479.487v1.711l-4-3.979a.474.474,0,0,0-.678.009.494.494,0,0,0,.008.688l3.983,3.96h-1.67a.487.487,0,0,0,0,.975h2.835a.483.483,0,0,0,.479-.487v-2.878A.482.482,0,0,0,166.241,162.868Z" transform="translate(-144.598 -144.597)" fill="#545454"/>
  </g>
</svg>
