<svg xmlns="http://www.w3.org/2000/svg" xmlns:xlink="http://www.w3.org/1999/xlink" width="20.455" height="18.335" viewBox="0 0 20.455 18.335">
  <defs>
    <clipPath id="clip-path">
      <path id="Path_5104" data-name="Path 5104" d="M118.344,167.664H138.8V186H118.344Zm0,0" transform="translate(-118.344 -167.664)" fill="#545454"/>
    </clipPath>
  </defs>
  <g id="surface1" transform="translate(0)">
    <g id="Group_7408" data-name="Group 7408" clip-path="url(#clip-path)">
      <path id="Path_5103" data-name="Path 5103" d="M118.48,167.664v17.573h13.314V186h7.133v-6.495H135.6V167.664Zm4.949,2.292a.661.661,0,0,1,.532.21c.721,0,.534.808.424,1.072a.329.329,0,0,1,.09.243c0,.173-.2.277-.2.277a.659.659,0,0,1-.351.448,3.055,3.055,0,0,0,0,.4c.205.443,1.575.318,1.638,1.173h-4.227c.064-.855,1.432-.73,1.637-1.173a3.047,3.047,0,0,0,0-.4.745.745,0,0,1-.361-.448.347.347,0,0,1-.2-.308.286.286,0,0,1,.1-.211C122.306,170.617,122.393,169.971,123.429,169.956Zm5.036.764h3.8a.391.391,0,1,1,0,.764h-3.8a.391.391,0,1,1,0-.764Zm0,1.91h3.8a.391.391,0,1,1,0,.764h-3.8a.391.391,0,1,1,0-.764Zm-6.657,3.82h6.657a.391.391,0,1,1,0,.764h-6.657a.391.391,0,1,1,0-.764Zm9.035,0h1.427a.391.391,0,1,1,0,.764h-1.427a.391.391,0,1,1,0-.764Zm-9.035,2.292h5.231a.391.391,0,1,1,0,.764h-5.231a.391.391,0,1,1,0-.764Zm10.937,1.528h5.231v1.146h-5.231Zm-10.937.764h6.657a.391.391,0,1,1,0,.764h-6.657a.391.391,0,1,1,0-.764Zm10.937,1.146h5.231v1.146h-5.231Zm0,1.91h5.231v1.146h-5.231Zm0,0" transform="translate(-118.475 -167.664)" fill="#545454"/>
    </g>
  </g>
</svg>
