<svg xmlns="http://www.w3.org/2000/svg" xmlns:xlink="http://www.w3.org/1999/xlink" width="75.615" height="75.612" viewBox="0 0 75.615 75.612">
  <defs>
    <filter id="Path_4709" x="0" y="0" width="75.615" height="75.612" filterUnits="userSpaceOnUse">
      <feOffset dy="3" input="SourceAlpha"/>
      <feGaussianBlur stdDeviation="3" result="blur"/>
      <feFlood flood-opacity="0.161"/>
      <feComposite operator="in" in2="blur"/>
      <feComposite in="SourceGraphic"/>
    </filter>
  </defs>
  <g id="Group_5526" data-name="Group 5526" transform="translate(9 6)">
    <g transform="matrix(1, 0, 0, 1, -9, -6)" filter="url(#Path_4709)">
      <path id="Path_4709-2" data-name="Path 4709" d="M642.31,245.15a28.807,28.807,0,1,1-28.81-28.81,28.8,28.8,0,0,1,28.81,28.81" transform="translate(-575.7 -210.34)" fill="#3aab9c"/>
    </g>
    <path id="Path_4707" data-name="Path 4707" d="M644.849,255.5H614.023c1.234.839,15.143,9.973,15.41,10.115.271-.143,14.181-9.277,15.416-10.115" transform="translate(-600.629 -237.617)" fill="#fff"/>
    <path id="Path_4708" data-name="Path 4708" d="M629.224,268.393c-.385-.235-14.731-9.717-15.587-10.233v20.623h31.181V258.16c-.854.516-15.2,10-15.594,10.233" transform="translate(-600.419 -239.06)" fill="#fff"/>
  </g>
</svg>
