<svg id="Group_4452" data-name="Group 4452" xmlns="http://www.w3.org/2000/svg" width="27.667" height="27.667" viewBox="0 0 27.667 27.667">
  <path id="Path_4088" data-name="Path 4088" d="M-3902.692-1936.9a13.832,13.832,0,0,1,13.807-13.827,13.814,13.814,0,0,1,13.848,13.218,13.827,13.827,0,0,1-13.811,14.449A13.84,13.84,0,0,1-3902.692-1936.9Zm13.824-11.984a12.01,12.01,0,0,0-11.981,11.993,12.017,12.017,0,0,0,12,11.99,11.994,11.994,0,0,0,11.982-12.233A11.977,11.977,0,0,0-3888.868-1948.88Z" transform="translate(3902.692 1950.723)" fill="#737373"/>
  <path id="Path_4089" data-name="Path 4089" d="M-3568.583-1070.192c-2.912-.114-5.371-1.841-7.144-4.68a.9.9,0,0,1,.316-1.281.966.966,0,0,1,1.28.362,14.952,14.952,0,0,0,1.823,2.119,6.383,6.383,0,0,0,8.82-.241,13.566,13.566,0,0,0,1.5-1.8c.392-.526.853-.716,1.326-.443a.953.953,0,0,1,.258,1.4A9.291,9.291,0,0,1-3568.583-1070.192Z" transform="translate(3581.871 1092.323)" fill="#737373"/>
  <path id="Path_4090" data-name="Path 4090" d="M-3523.23-1523.536a2.308,2.308,0,0,1,2.288,2.332,2.309,2.309,0,0,1-2.343,2.278,2.311,2.311,0,0,1-2.266-2.31A2.308,2.308,0,0,1-3523.23-1523.536Z" transform="translate(3532.471 1531.374)" fill="#737373"/>
  <path id="Path_4091" data-name="Path 4091" d="M-3018.277-1521.267a2.31,2.31,0,0,1-2.3,2.317,2.309,2.309,0,0,1-2.3-2.317,2.31,2.31,0,0,1,2.281-2.293A2.31,2.31,0,0,1-3018.277-1521.267Z" transform="translate(3039.031 1531.398)" fill="#737373"/>
</svg>
