<svg xmlns="http://www.w3.org/2000/svg" width="21.295" height="20.068" viewBox="0 0 21.295 20.068">
  <g id="information" transform="translate(0 0)">
    <g id="Group_460" data-name="Group 460" transform="translate(-619.214 -517.255)">
      <g id="Group_459" data-name="Group 459">
        <path id="Path_184" data-name="Path 184" d="M412,126.392a.417.417,0,1,0,.416-.392A.4.4,0,0,0,412,126.392Zm0,0" transform="translate(224.35 396.194)" fill="#545454"/>
        <path id="Path_185" data-name="Path 185" d="M433.474,163.99a7.053,7.053,0,0,1-.159,1.489.393.393,0,0,0,.324.462.434.434,0,0,0,.084.008.411.411,0,0,0,.407-.314,7.8,7.8,0,0,0-.669-5.176.427.427,0,0,0-.554-.185.382.382,0,0,0-.2.523A7.013,7.013,0,0,1,433.474,163.99Zm0,0" transform="translate(204.541 363.299)" fill="#545454"/>
        <path id="Path_186" data-name="Path 186" d="M200.575,211.487h-.416v-5.1a.4.4,0,0,0-.416-.392h-3.327a.4.4,0,0,0-.416.392v1.568a.4.4,0,0,0,.416.392h.416v3.136h-.416a.4.4,0,0,0-.416.392v1.568a.4.4,0,0,0,.416.392h4.159a.4.4,0,0,0,.416-.392v-1.568A.4.4,0,0,0,200.575,211.487Zm-.416,1.568h-3.327v-.784h.416a.4.4,0,0,0,.416-.392V207.96a.4.4,0,0,0-.416-.392h-.416v-.784h2.5v5.1a.4.4,0,0,0,.416.392h.416Zm0,0" transform="translate(431.366 319.329)" fill="#545454"/>
        <path id="Path_187" data-name="Path 187" d="M217.664,109.136A1.571,1.571,0,1,0,216,107.568,1.62,1.62,0,0,0,217.664,109.136Zm0-2.352a.785.785,0,1,1-.832.784A.81.81,0,0,1,217.664,106.784Zm0,0" transform="translate(412.198 415.41)" fill="#545454"/>
        <path id="Path_188" data-name="Path 188" d="M10.647,0C4.908,0,0,4.617,0,10.034A10.219,10.219,0,0,0,1.511,15.34L.021,19.552a.376.376,0,0,0,.1.4.434.434,0,0,0,.426.095l4.469-1.4a11.876,11.876,0,0,0,5.631,1.424c5.74,0,10.648-4.618,10.648-10.034S16.395,0,10.647,0Zm0,19.284a10.886,10.886,0,0,1-5.355-1.4.438.438,0,0,0-.354-.041L1.073,19.056l1.288-3.642a.372.372,0,0,0-.043-.334A9.383,9.383,0,0,1,.831,10.034c0-5.014,4.5-9.25,9.816-9.25s9.816,4.236,9.816,9.25S15.968,19.284,10.647,19.284Zm0,0" transform="translate(619.214 517.255)" fill="#545454"/>
      </g>
    </g>
  </g>
</svg>
