<svg id="Group_9500" data-name="Group 9500" xmlns="http://www.w3.org/2000/svg" width="13.506" height="17.707" viewBox="0 0 13.506 17.707">
  <path id="Path_6465" data-name="Path 6465" d="M257.438,333.882q0,3.475,0,6.95a1.732,1.732,0,0,1-1.392,1.872,1.792,1.792,0,0,1-.377.033q-2.939,0-5.878,0c-.532,0-.719-.186-.721-.732,0-1.153,0-2.305,0-3.458,0-.716-.215-.929-.925-.929h-3.423c-.586,0-.779-.181-.779-.753q0-4.979,0-9.958a1.725,1.725,0,0,1,1.9-1.874h9.716a1.722,1.722,0,0,1,1.879,1.864C257.443,329.226,257.438,331.554,257.438,333.882Zm-6.78.154c.737,0,1.474,0,2.211,0,.477,0,.659-.191.664-.674,0-.23,0-.461,0-.691a1.2,1.2,0,0,0-.7-1.106,3.245,3.245,0,0,0-1.906-.472c-.33.038-.669-.015-1,.013a2.62,2.62,0,0,0-.795.168c-1.291.548-1.372.687-1.357,2.092.005.476.191.667.67.669C249.184,334.039,249.921,334.036,250.658,334.036Zm1.918-5.233a1.916,1.916,0,1,0-1.947,1.874A1.916,1.916,0,0,0,252.576,328.8Zm-1.927,6.825c-1.047,0-2.095-.005-3.142,0a.567.567,0,0,0-.63.579c0,.344.24.561.637.575.161.006.322,0,.483,0q2.866,0,5.732,0a.688.688,0,0,0,.659-.29c.253-.41-.053-.864-.6-.868C252.743,335.622,251.7,335.627,250.649,335.628Zm1.592,3.3c-.529,0-1.059,0-1.588,0a.566.566,0,1,0,0,1.121q1.588.005,3.176,0a.567.567,0,1,0,0-1.121C253.3,338.925,252.771,338.928,252.241,338.928Z" transform="translate(-243.934 -325.033)" fill="#545454"/>
  <path id="Path_6466" data-name="Path 6466" d="M246.288,382.225c.553,0,1.106,0,1.659,0,.43,0,.65.2.654.626.011,1.129.006,2.258,0,3.387a.573.573,0,0,1-.363.575.56.56,0,0,1-.656-.163q-1.713-1.708-3.422-3.42a.577.577,0,0,1,.433-1.008C245.159,382.231,245.724,382.225,246.288,382.225Z" transform="translate(-243.955 -369.154)" fill="#545454"/>
</svg>
