<svg id="Group_9501" data-name="Group 9501" xmlns="http://www.w3.org/2000/svg" width="17.072" height="13.843" viewBox="0 0 17.072 13.843">
  <path id="Path_6467" data-name="Path 6467" d="M305.125,366.167h4.264c0,.2,0,.781,0,.971a.534.534,0,1,0,1.066,0c.006-.182,0-.754,0-.959h6.4c0,.2-.006.783,0,.974a.533.533,0,1,0,1.065.006c.008-.192,0-.773,0-.984h4.265v.341q0,2.089,0,4.177a1.945,1.945,0,0,1-2.107,2.041q-4.766,0-9.532,0c-1.1,0-2.2,0-3.3,0a1.949,1.949,0,0,1-2.125-2.056q0-2.072,0-4.144Z" transform="translate(-305.118 -358.888)" fill="#545454"/>
  <path id="Path_6468" data-name="Path 6468" d="M310.425,332.053c0-.283.007-.8,0-1.058a.532.532,0,1,0-1.064,0c-.008.258,0,.775,0,1.059h-4.245a22.9,22.9,0,0,1,.019-2.511,1.877,1.877,0,0,1,1.984-1.606c1.088-.009,2.177,0,3.265,0h.392c0-.238-.006-.44,0-.642a1.411,1.411,0,0,1,1.452-1.425q1.4-.03,2.8,0a1.41,1.41,0,0,1,1.451,1.425c.008.2,0,.4,0,.642.2,0,.362,0,.526,0,1.165.012,2.334-.03,3.494.054a1.815,1.815,0,0,1,1.659,1.841c.005.732,0,1.465,0,2.223h-4.264c0-.256,0-.771,0-1.026a.535.535,0,1,0-1.066,0c-.005.247,0,.753,0,1.026Zm4.6-4.771h-2.793v.625h2.793Z" transform="translate(-305.085 -325.852)" fill="#545454"/>
</svg>
