<svg xmlns="http://www.w3.org/2000/svg" width="34.011" height="34.011" viewBox="0 0 34.011 34.011">
  <g id="Group_9029" data-name="Group 9029" transform="translate(0 0)" opacity="0.8">
    <g id="Group_9023" data-name="Group 9023" transform="translate(0 0)">
      <path id="Path_6290" data-name="Path 6290" d="M151.069,162.808H123.46a3.2,3.2,0,0,1-3.2-3.2V132a3.2,3.2,0,0,1,3.2-3.2h27.609a3.2,3.2,0,0,1,3.2,3.2v27.609A3.2,3.2,0,0,1,151.069,162.808ZM123.46,129.747A2.254,2.254,0,0,0,121.209,132v27.609a2.254,2.254,0,0,0,2.251,2.251h27.609a2.254,2.254,0,0,0,2.251-2.251V132a2.254,2.254,0,0,0-2.251-2.251Z" transform="translate(-120.259 -128.797)" fill="#5271FF"/>
    </g>
    <g id="Group_9028" data-name="Group 9028" transform="translate(4.788 5.214)">
      <g id="Group_9024" data-name="Group 9024" transform="translate(0 0)">
        <rect id="Rectangle_2144" data-name="Rectangle 2144" width="18.486" height="1.267" rx="0.633" transform="translate(5.95 1.494)" fill="#5271FF"/>
        <rect id="Rectangle_2145" data-name="Rectangle 2145" width="4.255" height="4.255" rx="0.5" fill="#5271FF"/>
      </g>
      <g id="Group_9025" data-name="Group 9025" transform="translate(0 6.443)">
        <rect id="Rectangle_2146" data-name="Rectangle 2146" width="18.486" height="1.267" rx="0.633" transform="translate(5.95 1.494)" fill="#5271FF"/>
        <rect id="Rectangle_2147" data-name="Rectangle 2147" width="4.255" height="4.255" rx="0.5" fill="#5271FF"/>
      </g>
      <g id="Group_9026" data-name="Group 9026" transform="translate(0 12.885)">
        <rect id="Rectangle_2148" data-name="Rectangle 2148" width="18.486" height="1.267" rx="0.633" transform="translate(5.95 1.494)" fill="#5271FF"/>
        <rect id="Rectangle_2149" data-name="Rectangle 2149" width="4.255" height="4.255" rx="0.5" fill="#5271FF"/>
      </g>
      <g id="Group_9027" data-name="Group 9027" transform="translate(0 19.328)">
        <rect id="Rectangle_2150" data-name="Rectangle 2150" width="18.486" height="1.267" rx="0.633" transform="translate(5.95 1.494)" fill="#5271FF"/>
        <rect id="Rectangle_2151" data-name="Rectangle 2151" width="4.255" height="4.255" rx="0.5" fill="#5271FF"/>
      </g>
    </g>
  </g>
</svg>
