<svg xmlns="http://www.w3.org/2000/svg" width="75" height="74" viewBox="0 0 75 74">
  <defs>
    <style>
      .cls-1 {
        fill: #5271FF;
      }

      .cls-2, .cls-4 {
        fill: none;
      }

      .cls-2 {
        stroke: #5271FF;
        stroke-width: 1.5px;
      }

      .cls-3 {
        stroke: none;
      }
    </style>
  </defs>
  <g id="Group_6703" data-name="Group 6703" transform="translate(0.338 -0.5)">
    <g id="email_filled" transform="translate(19.559 25.126)">
      <g id="Group_546" data-name="Group 546">
        <path id="Path_230" data-name="Path 230" class="cls-1" d="M48.672,333.144a3.349,3.349,0,0,0,2.11-.7l-10.215-8.921-.707.444q-1.147.738-1.861,1.151a12.193,12.193,0,0,1-1.9.844,6.516,6.516,0,0,1-2.213.43h-.04a6.512,6.512,0,0,1-2.213-.43,12.154,12.154,0,0,1-1.9-.844q-.715-.413-1.861-1.151c-.213-.136-.45-.286-.705-.446l-10.217,8.923a3.35,3.35,0,0,0,2.11.7Z" transform="translate(-15.977 -308.404)"/>
        <path id="Path_231" data-name="Path 231" class="cls-1" d="M1.775,200.084A9.315,9.315,0,0,1,0,198.555v13.573l7.863-7.863Q5.5,202.618,1.775,200.084Z" transform="translate(0 -190.578)"/>
        <path id="Path_232" data-name="Path 232" class="cls-1" d="M419.412,200.084q-3.59,2.43-6.1,4.184l7.859,7.86V198.555A9.69,9.69,0,0,1,419.412,200.084Z" transform="translate(-385.395 -190.578)"/>
        <path id="Path_233" data-name="Path 233" class="cls-1" d="M32.585,59.013H3.2a3.03,3.03,0,0,0-2.365.913,3.272,3.272,0,0,0-.828,2.284,3.843,3.843,0,0,0,1.1,2.4,9.436,9.436,0,0,0,2.336,2.029q.679.422,4.093,2.5c1.229.749,2.3,1.4,3.215,1.966.783.48,1.458.9,2.015,1.241l.3.187.551.349q.649.413,1.078.668t1.038.571a6.464,6.464,0,0,0,1.148.474,3.567,3.567,0,0,0,1,.158h.04a3.568,3.568,0,0,0,1-.158,6.449,6.449,0,0,0,1.148-.474q.609-.316,1.038-.571t1.078-.668l.55-.349.3-.187,2.02-1.236,7.322-4.475A9,9,0,0,0,34.8,64.477a4.281,4.281,0,0,0,.978-2.653,2.548,2.548,0,0,0-.948-1.986A3.31,3.31,0,0,0,32.585,59.013Z" transform="translate(-0.006 -59.013)"/>
      </g>
    </g>
    <g id="Ellipse_280" data-name="Ellipse 280" class="cls-2" transform="translate(-0.338 0.5)">
      <ellipse class="cls-3" cx="37.5" cy="37" rx="37.5" ry="37"/>
      <ellipse class="cls-4" cx="37.5" cy="37" rx="36.75" ry="36.25"/>
    </g>
  </g>
</svg>
