<svg xmlns="http://www.w3.org/2000/svg" width="20" height="20" viewBox="0 0 20 20">
  <g id="Group_8628" data-name="Group 8628" transform="translate(-620 -202)">
    <rect id="Rectangle_2098" data-name="Rectangle 2098" width="20" height="20" rx="10" transform="translate(620 202)" fill="#5271FF"/>
    <path id="Path_5972" data-name="Path 5972" d="M-759.649,264.844q1.913,0,3.825,0a1.111,1.111,0,0,1,1.106.905,1.6,1.6,0,0,1,.034.35q0,2.641,0,5.281a1.147,1.147,0,0,1-1.169,1.249q-2.28,0-4.559,0a.2.2,0,0,0-.2.122c-.16.3-.342.581-.493.882a.5.5,0,0,1-.917.018c-.17-.32-.37-.622-.553-.934a.133.133,0,0,0-.132-.078c-.258,0-.517,0-.775,0a1.141,1.141,0,0,1-1.123-1.206q0-2.691,0-5.381a1.142,1.142,0,0,1,1.134-1.207Q-761.561,264.842-759.649,264.844Zm0,3.189c.554,0,1.109,0,1.664,0a.339.339,0,0,0,.329-.341.349.349,0,0,0-.318-.366c-.052,0-.1,0-.155,0h-3.121a.344.344,0,0,0-.3.127.351.351,0,0,0-.05.372.321.321,0,0,0,.314.209Zm.011,1.26h-1.612a.483.483,0,0,0-.133.013.351.351,0,0,0-.24.378.341.341,0,0,0,.342.316c.434,0,.868,0,1.3,0q.977,0,1.953,0a.336.336,0,0,0,.337-.206.35.35,0,0,0-.306-.5C-758.547,269.291-759.1,269.293-759.643,269.293Z" transform="translate(1389.607 -56.844)" fill="#fff"/>
  </g>
</svg>
