<svg xmlns="http://www.w3.org/2000/svg" width="114.505" height="87.406" viewBox="0 0 114.505 87.406">
  <g id="Group_8765" data-name="Group 8765" transform="translate(1294.823 -24.22)">
    <path id="Path_5972" data-name="Path 5972" d="M-1207.244,76.354c-2.309,2.577-2.274,5.857-4.892,4.185-.789-.5-17.112-15.1-22.664-24.847V24.932a.712.712,0,0,0-.712-.712.712.712,0,0,0-.711.712V55.507c-6.7,11.321-21.123,23.886-22.921,25.695l-.755.76c-.237.239-6.187,5.048-6.428,5.151l-.037-.408c-.046-.515-2.58-5.89-2.589-5.979-3.951,3.489-5.434,8.833-25.87,23.206a58.972,58.972,0,0,0,24.407-14.721c0,.944-2.669,10.251-3.394,10.418,4.922,0,30.063-28.3,34.841-33.082l.279-.28c.359-.361,2.749-3.493,2.759-3.5,1.224,3.879.341,12.1-2.18,16.429,3.782.476,8.872-2.344,9.983-1.869.221,2.894-1.645,6.132-3.262,7.738,1.686.665,6.878.1,7.037.273.759.819-.3,4.171-1.786,4.972,1.725.675,6.428-.038,7.143.029,0,2.524-18.017,17.395-18.017,18.151,2.146.629,20.753-6.155,28.028-6.272.34-.006.143-.031.415.079-.006.168-8.527,2.9-12.575,9.323,0,0,12.173-8.17,23.77-6.864,7.4,1.318,9.079,1.749,14.486,1.227a8.327,8.327,0,0,0,2.572-.444C-1182.749,103.112-1195.907,97.565-1207.244,76.354Z" fill="#5271FF"/>
    <path id="Path_5973" data-name="Path 5973" d="M-628.13,54.047a46.724,46.724,0,0,0,11.012,1.613,12.968,12.968,0,0,0,7.138-1.684h0a.473.473,0,0,0,.214-.4V41.636a.475.475,0,0,0-.474-.475.474.474,0,0,0-.276.089,12.1,12.1,0,0,1-6.6,1.522,45.906,45.906,0,0,1-10.817-1.6h0a.475.475,0,0,0-.575.346.481.481,0,0,0-.014.123V53.579A.475.475,0,0,0-628.13,54.047Z" transform="translate(-605.216 -15.388)" fill="#5271FF"/>
  </g>
</svg>
