<svg id="Component_71_15" data-name="Component 71 – 15" xmlns="http://www.w3.org/2000/svg" width="29.372" height="32.283" viewBox="0 0 29.372 32.283">
  <path id="Path_5079" data-name="Path 5079" d="M-1057.754-524.064c-.169.013-.3.031-.433.032-.571,0-1.142,0-1.791,0a11.287,11.287,0,0,1,3.227-8.018,11.737,11.737,0,0,1,7.823-3.653,7.257,7.257,0,0,1-5.521-3.744,6.685,6.685,0,0,1-.661-4.788,6.935,6.935,0,0,1,7.107-5.481,6.921,6.921,0,0,1,6.666,6.157,6.608,6.608,0,0,1-1.512,5.245,7.074,7.074,0,0,1-4.8,2.585,11.944,11.944,0,0,1,9.947,6.754l-1.754,1.708a9.457,9.457,0,0,0-10.118-6.084,9.386,9.386,0,0,0-5.812,3.148A9.473,9.473,0,0,0-1057.754-524.064Zm14.212-18.6a4.693,4.693,0,0,0-4.721-4.764,4.707,4.707,0,0,0-4.744,4.654,4.721,4.721,0,0,0,4.749,4.8A4.726,4.726,0,0,0-1043.542-542.665Z" transform="translate(1059.978 549.721)" fill="#59D424"/>
  <path id="Path_5080" data-name="Path 5080" d="M-958.476-380.98l-5.74-5.742,1.636-1.473,4.166,4.158,10.429-10.425,1.545,1.5Z" transform="translate(975.812 413.263)" fill="#59D424"/>
</svg>
