<svg xmlns="http://www.w3.org/2000/svg" width="28.544" height="28.544" viewBox="0 0 28.544 28.544">
  <g id="Layer_2" data-name="Layer 2" transform="translate(14.272) rotate(45)">
    <g id="Layer_1" data-name="Layer 1" transform="translate(0 0)">
      <path id="Path_4101" data-name="Path 4101" d="M18.829,5.026a10.053,10.053,0,0,0-3.672-3.671A9.87,9.87,0,0,0,10.091,0,9.868,9.868,0,0,0,5.026,1.354,10.051,10.051,0,0,0,1.354,5.026,9.87,9.87,0,0,0,0,10.091a9.868,9.868,0,0,0,1.354,5.065,10.047,10.047,0,0,0,3.673,3.672,9.868,9.868,0,0,0,5.065,1.354,9.868,9.868,0,0,0,5.065-1.354,10.044,10.044,0,0,0,3.673-3.672,9.868,9.868,0,0,0,1.354-5.065A9.865,9.865,0,0,0,18.829,5.026Zm-3.646,5.793a.738.738,0,0,1-.728.728h-2.91v2.909a.738.738,0,0,1-.728.728H9.364a.738.738,0,0,1-.728-.728V11.546H5.727A.738.738,0,0,1,5,10.819V9.364a.738.738,0,0,1,.728-.728h2.91V5.727A.738.738,0,0,1,9.364,5h1.455a.738.738,0,0,1,.728.728v2.91h2.91a.738.738,0,0,1,.728.728Z" transform="translate(0 0)" fill="#f93069"/>
    </g>
  </g>
</svg>
