<svg xmlns="http://www.w3.org/2000/svg" xmlns:xlink="http://www.w3.org/1999/xlink" width="16.523" height="20.69" viewBox="0 0 16.523 20.69">
  <defs>
    <clipPath id="clip-path">
      <path id="Path_4681" data-name="Path 4681" d="M590.8,243h16.523v20.69H590.8Zm0,0" transform="translate(-590.805 -243)" fill="#545454"/>
    </clipPath>
  </defs>
  <g id="surface1" transform="translate(0)">
    <g id="Group_5497" data-name="Group 5497" transform="translate(0 0)" clip-path="url(#clip-path)">
      <path id="Path_4680" data-name="Path 4680" d="M605.981,261.492l.681-13h.454a.306.306,0,0,0,.324-.323v-1.39a1.527,1.527,0,0,0-1.556-1.519h-2.755l-.1-.453a2.42,2.42,0,0,0-2.269-1.81H598.2a2.421,2.421,0,0,0-2.269,1.81l-.1.453h-3.177a1.728,1.728,0,0,0-1.751,1.519v1.39a.306.306,0,0,0,.324.323h.81l1.07,13a2.417,2.417,0,0,0,2.367,2.2h8.137A2.4,2.4,0,0,0,605.981,261.492Zm-9.4-16.552a1.761,1.761,0,0,1,1.621-1.293h2.561a1.762,1.762,0,0,1,1.621,1.293l.065.323h-5.933Zm-5.025,1.843c0-.453.551-.873,1.1-.873h13.227a.878.878,0,0,1,.908.873v1.067H591.555Zm2.2,14.645-1.07-12.931h13.324l-.681,12.931a1.756,1.756,0,0,1-1.718,1.616h-8.1A1.762,1.762,0,0,1,593.759,261.427Zm0,0" transform="translate(-590.9 -243)" fill="#545454"/>
    </g>
    <path id="Path_4682" data-name="Path 4682" d="M718.148,405a.306.306,0,0,0-.324.323v8.405a.324.324,0,0,0,.648,0v-8.405A.306.306,0,0,0,718.148,405Zm0,0" transform="translate(-709.713 -394.655)" fill="#545454"/>
    <path id="Path_4683" data-name="Path 4683" d="M718.148,339.188a.306.306,0,0,0-.324.323v2.263a.324.324,0,0,0,.648,0v-2.263A.306.306,0,0,0,718.148,339.188Zm0,0" transform="translate(-709.713 -333.045)" fill="#545454"/>
    <path id="Path_4684" data-name="Path 4684" d="M665.348,339.188a.324.324,0,0,0-.324.323l.486,12.608a.32.32,0,0,0,.324.291.306.306,0,0,0,.324-.323l-.486-12.608A.3.3,0,0,0,665.348,339.188Zm0,0" transform="translate(-660.284 -333.045)" fill="#545454"/>
    <path id="Path_4685" data-name="Path 4685" d="M768.19,419.68a.306.306,0,0,0-.324.323l-.292,7.468a.306.306,0,0,0,.324.323.319.319,0,0,0,.324-.291l.259-7.468A.326.326,0,0,0,768.19,419.68Zm0,0" transform="translate(-756.286 -408.397)" fill="#545454"/>
    <path id="Path_4686" data-name="Path 4686" d="M773.614,339.7a.324.324,0,0,0-.324.323l-.13,3.136a.362.362,0,0,0,.324.388.38.38,0,0,0,.324-.356l.13-3.168A.306.306,0,0,0,773.614,339.7Zm0,0" transform="translate(-761.515 -333.521)" fill="#545454"/>
  </g>
</svg>
