<svg id="Group_7186" data-name="Group 7186" xmlns="http://www.w3.org/2000/svg" width="25.379" height="25.379" viewBox="0 0 25.379 25.379">
  <path id="Path_5050" data-name="Path 5050" d="M211.879,320.731v1.918c-.032.144-.075.287-.1.433a12.355,12.355,0,0,1-7.9,10.36,24.494,24.494,0,0,1-3.735.938h-1.918a2.84,2.84,0,0,0-.378-.09,12.623,12.623,0,0,1-10.9-9.281c-.205-.773-.307-1.573-.456-2.361v-1.918c.032-.144.075-.287.1-.433a12.355,12.355,0,0,1,7.9-10.36,24.483,24.483,0,0,1,3.735-.938h1.918a2.831,2.831,0,0,0,.378.09,12.623,12.623,0,0,1,10.9,9.28C211.628,319.143,211.73,319.943,211.879,320.731Zm-12.711-9.7a10.659,10.659,0,1,0,10.681,10.652A10.646,10.646,0,0,0,199.168,311.03Z" transform="translate(-186.5 -309)" fill="#5271FF"/>
  <path id="Path_5051" data-name="Path 5051" d="M257.292,360.477c-.609,0-1.169.026-1.726-.013a.8.8,0,0,1-.593-.289.755.755,0,0,1,.138-.647c1.438-1.76,2.9-3.5,4.353-5.249.292-.351.575-.386.88-.02,1.454,1.747,2.917,3.487,4.354,5.249a.83.83,0,0,1,.14.7c-.058.148-.389.248-.606.263-.539.036-1.082.012-1.7.012v.659q0,3.609,0,7.218c0,.755-.123.872-.888.873q-1.748,0-3.5,0c-.729,0-.857-.125-.858-.846q0-3.609,0-7.218Z" transform="translate(-247.224 -348.923)" fill="#5271FF"/>
</svg>
