<svg id="visa_icon" xmlns="http://www.w3.org/2000/svg" width="65.468" height="21.24" viewBox="0 0 65.468 21.24">
  <path id="Path_3794" data-name="Path 3794" d="M28.381,20.885H23.038L26.377.367H31.72ZM18.545.367,13.451,14.478l-.6-3.04h0l-1.8-9.223A2.287,2.287,0,0,0,8.52.367H.1L0,.713A19.978,19.978,0,0,1,5.588,3.059l4.642,17.826H15.8L24.3.367ZM60.561,20.885h4.907L61.189.367H56.9a2.459,2.459,0,0,0-2.467,1.528l-7.966,18.99h5.57l1.114-3.046h6.789l.625,3.046Zm-5.878-7.259L57.49,5.946l1.578,7.679ZM46.879,5.3,47.642.9a15.4,15.4,0,0,0-4.8-.9c-2.651,0-8.946,1.158-8.946,6.793,0,5.3,7.39,5.368,7.39,8.152s-6.628,2.284-8.815.529l-.793,4.608A14.991,14.991,0,0,0,37.7,21.24c3.647,0,9.145-1.889,9.145-7.026,0-5.336-7.455-5.831-7.455-8.152s5.2-2.019,7.486-.759Z" transform="translate(0 0)" fill="#2566af"/>
  <path id="Path_3795" data-name="Path 3795" d="M12.851,22.777l-1.8-9.229A2.287,2.287,0,0,0,8.52,11.7H.1l-.1.349a20.721,20.721,0,0,1,7.928,3.98A16.014,16.014,0,0,1,12.851,22.777Z" transform="translate(0 -11.336)" fill="#e6a540"/>
</svg>
