<svg xmlns="http://www.w3.org/2000/svg" xmlns:xlink="http://www.w3.org/1999/xlink" width="71.656" height="71.696" viewBox="0 0 71.656 71.696">
  <defs>
    <clipPath id="clip-path">
      <path id="Path_4702" data-name="Path 4702" d="M747,220h52.065v52.065H747Zm0,0" transform="translate(-747 -220)"/>
    </clipPath>
    <clipPath id="clip-path-2">
      <path id="Path_4701" data-name="Path 4701" d="M747.152,272.229l3.664-13.312a25.8,25.8,0,1,1,22.338,12.866h-.011a25.857,25.857,0,0,1-12.322-3.129l-13.667,3.575Zm0,0" transform="translate(-747.152 -220.383)"/>
    </clipPath>
    <linearGradient id="linear-gradient" x1="-6.585" y1="-1.933" x2="-6.585" y2="-1.941" gradientUnits="objectBoundingBox">
      <stop offset="0" stop-color="#20b038"/>
      <stop offset="0.016" stop-color="#20b038"/>
      <stop offset="0.023" stop-color="#21b139"/>
      <stop offset="0.031" stop-color="#22b139"/>
      <stop offset="0.039" stop-color="#22b13a"/>
      <stop offset="0.047" stop-color="#23b23a"/>
      <stop offset="0.055" stop-color="#23b23b"/>
      <stop offset="0.063" stop-color="#24b23b"/>
      <stop offset="0.07" stop-color="#24b23b"/>
      <stop offset="0.078" stop-color="#25b33c"/>
      <stop offset="0.086" stop-color="#25b33c"/>
      <stop offset="0.094" stop-color="#26b33d"/>
      <stop offset="0.102" stop-color="#26b43d"/>
      <stop offset="0.109" stop-color="#27b43d"/>
      <stop offset="0.117" stop-color="#27b43e"/>
      <stop offset="0.125" stop-color="#28b53e"/>
      <stop offset="0.133" stop-color="#28b53f"/>
      <stop offset="0.141" stop-color="#29b53f"/>
      <stop offset="0.148" stop-color="#29b53f"/>
      <stop offset="0.156" stop-color="#2ab640"/>
      <stop offset="0.164" stop-color="#2ab640"/>
      <stop offset="0.172" stop-color="#2bb640"/>
      <stop offset="0.18" stop-color="#2bb741"/>
      <stop offset="0.188" stop-color="#2cb741"/>
      <stop offset="0.195" stop-color="#2cb742"/>
      <stop offset="0.203" stop-color="#2db842"/>
      <stop offset="0.211" stop-color="#2db842"/>
      <stop offset="0.219" stop-color="#2eb843"/>
      <stop offset="0.227" stop-color="#2eb843"/>
      <stop offset="0.234" stop-color="#2fb944"/>
      <stop offset="0.242" stop-color="#2fb944"/>
      <stop offset="0.25" stop-color="#30b944"/>
      <stop offset="0.258" stop-color="#30ba45"/>
      <stop offset="0.266" stop-color="#31ba45"/>
      <stop offset="0.273" stop-color="#31ba46"/>
      <stop offset="0.281" stop-color="#32ba46"/>
      <stop offset="0.289" stop-color="#32bb46"/>
      <stop offset="0.297" stop-color="#33bb47"/>
      <stop offset="0.305" stop-color="#33bb47"/>
      <stop offset="0.313" stop-color="#34bc48"/>
      <stop offset="0.32" stop-color="#34bc48"/>
      <stop offset="0.328" stop-color="#35bc48"/>
      <stop offset="0.336" stop-color="#35bd49"/>
      <stop offset="0.344" stop-color="#36bd49"/>
      <stop offset="0.352" stop-color="#36bd49"/>
      <stop offset="0.359" stop-color="#37bd4a"/>
      <stop offset="0.367" stop-color="#37be4a"/>
      <stop offset="0.375" stop-color="#38be4b"/>
      <stop offset="0.383" stop-color="#38be4b"/>
      <stop offset="0.391" stop-color="#39bf4b"/>
      <stop offset="0.398" stop-color="#39bf4c"/>
      <stop offset="0.406" stop-color="#3abf4c"/>
      <stop offset="0.414" stop-color="#3ac04d"/>
      <stop offset="0.422" stop-color="#3bc04d"/>
      <stop offset="0.43" stop-color="#3bc04d"/>
      <stop offset="0.438" stop-color="#3cc04e"/>
      <stop offset="0.445" stop-color="#3cc14e"/>
      <stop offset="0.453" stop-color="#3dc14f"/>
      <stop offset="0.461" stop-color="#3dc14f"/>
      <stop offset="0.469" stop-color="#3ec24f"/>
      <stop offset="0.477" stop-color="#3ec250"/>
      <stop offset="0.484" stop-color="#3fc250"/>
      <stop offset="0.492" stop-color="#3fc251"/>
      <stop offset="0.5" stop-color="#40c351"/>
      <stop offset="0.508" stop-color="#40c351"/>
      <stop offset="0.516" stop-color="#41c352"/>
      <stop offset="0.523" stop-color="#41c452"/>
      <stop offset="0.531" stop-color="#42c452"/>
      <stop offset="0.539" stop-color="#42c453"/>
      <stop offset="0.547" stop-color="#43c553"/>
      <stop offset="0.555" stop-color="#43c554"/>
      <stop offset="0.563" stop-color="#44c554"/>
      <stop offset="0.57" stop-color="#44c554"/>
      <stop offset="0.578" stop-color="#45c655"/>
      <stop offset="0.586" stop-color="#45c655"/>
      <stop offset="0.594" stop-color="#46c656"/>
      <stop offset="0.602" stop-color="#46c756"/>
      <stop offset="0.609" stop-color="#47c756"/>
      <stop offset="0.617" stop-color="#47c757"/>
      <stop offset="0.625" stop-color="#48c857"/>
      <stop offset="0.633" stop-color="#48c858"/>
      <stop offset="0.641" stop-color="#49c858"/>
      <stop offset="0.648" stop-color="#49c858"/>
      <stop offset="0.656" stop-color="#4ac959"/>
      <stop offset="0.664" stop-color="#4ac959"/>
      <stop offset="0.672" stop-color="#4bc959"/>
      <stop offset="0.68" stop-color="#4bca5a"/>
      <stop offset="0.688" stop-color="#4cca5a"/>
      <stop offset="0.695" stop-color="#4cca5b"/>
      <stop offset="0.703" stop-color="#4dcb5b"/>
      <stop offset="0.711" stop-color="#4dcb5b"/>
      <stop offset="0.719" stop-color="#4ecb5c"/>
      <stop offset="0.727" stop-color="#4ecb5c"/>
      <stop offset="0.734" stop-color="#4fcc5d"/>
      <stop offset="0.742" stop-color="#4fcc5d"/>
      <stop offset="0.75" stop-color="#50cc5d"/>
      <stop offset="0.758" stop-color="#50cd5e"/>
      <stop offset="0.766" stop-color="#51cd5e"/>
      <stop offset="0.773" stop-color="#51cd5f"/>
      <stop offset="0.781" stop-color="#52cd5f"/>
      <stop offset="0.789" stop-color="#52ce5f"/>
      <stop offset="0.797" stop-color="#53ce60"/>
      <stop offset="0.805" stop-color="#53ce60"/>
      <stop offset="0.813" stop-color="#54cf61"/>
      <stop offset="0.82" stop-color="#54cf61"/>
      <stop offset="0.828" stop-color="#55cf61"/>
      <stop offset="0.836" stop-color="#55d062"/>
      <stop offset="0.844" stop-color="#56d062"/>
      <stop offset="0.852" stop-color="#56d062"/>
      <stop offset="0.859" stop-color="#57d063"/>
      <stop offset="0.867" stop-color="#57d163"/>
      <stop offset="0.875" stop-color="#58d164"/>
      <stop offset="0.883" stop-color="#58d164"/>
      <stop offset="0.891" stop-color="#59d264"/>
      <stop offset="0.898" stop-color="#59d265"/>
      <stop offset="0.906" stop-color="#5ad265"/>
      <stop offset="0.914" stop-color="#5ad366"/>
      <stop offset="0.922" stop-color="#5bd366"/>
      <stop offset="0.93" stop-color="#5bd366"/>
      <stop offset="0.938" stop-color="#5cd367"/>
      <stop offset="0.945" stop-color="#5cd467"/>
      <stop offset="0.953" stop-color="#5dd468"/>
      <stop offset="0.961" stop-color="#5dd468"/>
      <stop offset="0.969" stop-color="#5ed568"/>
      <stop offset="0.977" stop-color="#5ed569"/>
      <stop offset="0.984" stop-color="#5fd569"/>
      <stop offset="0.992" stop-color="#5fd569"/>
      <stop offset="1" stop-color="#60d66a"/>
    </linearGradient>
    <filter id="Path_4703" x="0" y="0" width="71.656" height="71.696" filterUnits="userSpaceOnUse">
      <feOffset dy="3" input="SourceAlpha"/>
      <feGaussianBlur stdDeviation="3" result="blur"/>
      <feFlood flood-opacity="0.161"/>
      <feComposite operator="in" in2="blur"/>
      <feComposite in="SourceGraphic"/>
    </filter>
  </defs>
  <g id="Group_5524" data-name="Group 5524" transform="translate(9 6)">
    <g id="Group_5523" data-name="Group 5523">
      <g id="Group_5519" data-name="Group 5519" transform="translate(0.865 0.744)" clip-path="url(#clip-path)">
        <g id="Group_5518" data-name="Group 5518" transform="translate(0.07 0.175)" clip-path="url(#clip-path-2)">
          <path id="Path_4700" data-name="Path 4700" d="M747.152,220.383v51.846H798.94V220.383Zm0,0" transform="translate(-747.152 -220.383)" fill="url(#linear-gradient)"/>
        </g>
      </g>
      <g transform="matrix(1, 0, 0, 1, -9, -6)" filter="url(#Path_4703)">
        <path id="Path_4703-2" data-name="Path 4703" d="M745.105,272.067l3.791-13.785a26.735,26.735,0,1,1,23.146,13.327h-.011a26.8,26.8,0,0,1-12.772-3.243l-14.153,3.7Zm14.82-8.526.806.485a22.329,22.329,0,0,0,11.3,3.088h.011a22.147,22.147,0,1,0-18.814-10.363l.524.842-2.241,8.155Zm0,0" transform="translate(-736.11 -212.37)" fill="#fff"/>
      </g>
      <path id="Path_4704" data-name="Path 4704" d="M781.278,250.861c-.5-1.111-1.026-1.136-1.5-1.149-.384-.012-.831-.012-1.281-.012a2.456,2.456,0,0,0-1.779.83,7.426,7.426,0,0,0-2.332,5.552c0,3.266,2.394,6.433,2.727,6.879s4.624,7.377,11.4,10.046c5.636,2.221,6.788,1.773,8.006,1.659s3.945-1.607,4.508-3.167a5.568,5.568,0,0,0,.384-3.165c-.166-.28-.616-.448-1.281-.778s-3.945-1.939-4.56-2.169-1.063-.332-1.5.33-1.727,2.159-2.112,2.6-.78.5-1.447.164a18.045,18.045,0,0,1-5.366-3.3,19.89,19.89,0,0,1-3.714-4.606c-.385-.665-.039-1.022.294-1.354.294-.294.666-.778,1-1.161a4.338,4.338,0,0,0,.665-1.111,1.234,1.234,0,0,0-.05-1.161C783.171,255.454,781.867,252.175,781.278,250.861Zm0,0" transform="translate(-761.014 -235.391)" fill="#fff"/>
    </g>
  </g>
</svg>
