<svg xmlns="http://www.w3.org/2000/svg" width="17.674" height="17.674" viewBox="0 0 17.674 17.674">
  <g id="Group_9357" data-name="Group 9357" transform="translate(-806 -790.985)">
    <g id="Group_9289" data-name="Group 9289" transform="translate(806 790.985)">
      <path id="Path_6420" data-name="Path 6420" d="M422.4,189.44q-2.966,0-5.931,0a2.725,2.725,0,0,1-2.863-2.848c-.01-2.065-.007-4.131-.007-6.2,0-1.876.046-3.754-.008-5.629a2.851,2.851,0,0,1,2.978-2.995c2.064.052,4.131.012,6.2.013a1.877,1.877,0,0,1,.33.015.525.525,0,0,1,.434.546.515.515,0,0,1-.438.51,1.7,1.7,0,0,1-.33.013q-3.1,0-6.2,0a1.7,1.7,0,0,0-1.874,1.865q0,2.469,0,4.937,0,3.378,0,6.756a1.708,1.708,0,0,0,1.913,1.925h11.7a1.692,1.692,0,0,0,1.875-1.861c0-1.491,0-2.982,0-4.473,0-.617,0-1.235,0-1.852,0-.408.209-.652.541-.652s.543.242.544.649c0,2.187.007,4.374,0,6.561a2.709,2.709,0,0,1-2.726,2.712C426.49,189.448,424.447,189.44,422.4,189.44Z" transform="translate(-413.594 -171.769)" fill="#5271FF"/>
      <path id="Path_6421" data-name="Path 6421" d="M493.872,174.99A2.737,2.737,0,0,1,493,176.7q-1.914,1.9-3.829,3.8-1.347,1.346-2.679,2.707a2.964,2.964,0,0,1-1.446.823c-1.19.29-2.377.6-3.566.893-.635.158-.954-.15-.8-.776.323-1.294.628-2.594,1-3.876a2.549,2.549,0,0,1,.623-1.034q3.314-3.363,6.674-6.68a2.744,2.744,0,0,1,3.127-.591A2.993,2.993,0,0,1,493.872,174.99Zm-11.318,6.376c.294.1.59.225.9.311a.635.635,0,0,1,.482.447c.1.323.218.641.326.956a2.548,2.548,0,0,0,1.6-.768c1.394-1.427,2.816-2.827,4.226-4.238.082-.083.16-.17.2-.216l-2.551-2.565a3,3,0,0,1-.213.263c-1.286,1.29-2.563,2.588-3.867,3.859A2.787,2.787,0,0,0,482.554,181.366Zm8.621-4.358c.32-.328.658-.674.994-1.021a3.016,3.016,0,0,0,.263-.3,1.78,1.78,0,0,0-.157-2.3,1.717,1.717,0,0,0-2.316-.2,13.944,13.944,0,0,0-1.272,1.337Zm-8.939,5.458-.3,1.218,1.206-.3A.838.838,0,0,0,482.236,182.467Z" transform="translate(-476.202 -171.727)" fill="#5271FF"/>
    </g>
  </g>
</svg>
