<svg xmlns="http://www.w3.org/2000/svg" width="23.703" height="23.704" viewBox="0 0 23.703 23.704">
  <g id="Group_9288" data-name="Group 9288" transform="translate(-413.594 -171.727)">
    <path id="Path_6420" data-name="Path 6420" d="M425.409,195.468q-3.977,0-7.955,0a3.655,3.655,0,0,1-3.839-3.819c-.013-2.77-.01-5.54-.01-8.31,0-2.516.062-5.035-.01-7.549a3.823,3.823,0,0,1,3.994-4.017c2.768.07,5.54.016,8.31.017a2.516,2.516,0,0,1,.443.021.7.7,0,0,1,.582.733.69.69,0,0,1-.587.684,2.287,2.287,0,0,1-.443.018q-4.155,0-8.31,0a2.275,2.275,0,0,0-2.514,2.5q0,3.311,0,6.621,0,4.53,0,9.061a2.291,2.291,0,0,0,2.565,2.581h15.687a2.269,2.269,0,0,0,2.515-2.5c0-2,0-4,0-6,0-.828,0-1.656,0-2.484,0-.547.28-.875.726-.875s.729.325.729.871c0,2.933.01,5.866-.006,8.8a3.633,3.633,0,0,1-3.657,3.638C430.89,195.478,428.15,195.468,425.409,195.468Z" transform="translate(0 -0.04)" fill="#5271FF"/>
    <path id="Path_6421" data-name="Path 6421" d="M498.384,176.1a3.67,3.67,0,0,1-1.165,2.3q-2.567,2.551-5.136,5.1-1.807,1.8-3.593,3.631a3.975,3.975,0,0,1-1.94,1.1c-1.6.39-3.187.8-4.782,1.2-.852.212-1.28-.2-1.07-1.041.433-1.736.842-3.479,1.336-5.2a3.418,3.418,0,0,1,.836-1.387q4.445-4.51,8.951-8.959a3.68,3.68,0,0,1,4.194-.793A4.014,4.014,0,0,1,498.384,176.1ZM483.2,184.655c.394.139.791.3,1.2.417a.851.851,0,0,1,.646.6c.137.433.293.859.438,1.282a3.417,3.417,0,0,0,2.146-1.03c1.87-1.913,3.776-3.791,5.667-5.684.111-.111.214-.228.271-.289l-3.421-3.44a4.026,4.026,0,0,1-.286.353c-1.725,1.73-3.438,3.471-5.186,5.176A3.738,3.738,0,0,0,483.2,184.655Zm11.562-5.845c.429-.441.883-.9,1.333-1.37a4.045,4.045,0,0,0,.352-.4,2.387,2.387,0,0,0-.21-3.091,2.3,2.3,0,0,0-3.106-.274,18.706,18.706,0,0,0-1.707,1.794Zm-11.989,7.32-.4,1.634,1.618-.409A1.124,1.124,0,0,0,482.778,186.13Z" transform="translate(-61.092 0)" fill="#5271FF"/>
  </g>
</svg>
