<svg id="surface1" xmlns="http://www.w3.org/2000/svg" xmlns:xlink="http://www.w3.org/1999/xlink" width="24.871" height="24.865" viewBox="0 0 24.871 24.865">
  <defs>
    <clipPath id="clip-path">
      <path id="Path_4051" data-name="Path 4051" d="M162,255.129h24.871v24.865H162Zm0,0" transform="translate(-162 -255.129)" fill="#5271FF"/>
    </clipPath>
  </defs>
  <g id="Group_4251" data-name="Group 4251" clip-path="url(#clip-path)">
    <path id="Path_4050" data-name="Path 4050" d="M185.943,262.327l-.259.257-4.89-4.888.259-.259a3.458,3.458,0,0,1,4.89,4.89ZM170.519,277.75v-2.2l11.8-11.8,1.1,1.1Zm-6.039-.655a2.163,2.163,0,0,1,1.153.619,2.315,2.315,0,0,1,.661,1.185l-2.37.558Zm5.454-2.129h-1.521v-1.519l11.8-11.8,1.519,1.519Zm8.593-15,1.1,1.1-11.8,11.8h-2.2ZM165.281,273.69h2.3v1.691a.414.414,0,0,0,.414.414h1.693V278.1l-2.591.611a3.124,3.124,0,0,0-.884-1.583,3.017,3.017,0,0,0-1.545-.847ZM184,264.269l-1.392-1.39h0l-3.5-3.5,1.1-1.1,4.888,4.888Zm-.5-8.671a4.264,4.264,0,0,0-3.031,1.254l-15.709,15.711a.414.414,0,0,0-.11.2l-1.684,7.158a.414.414,0,0,0,.4.509.394.394,0,0,0,.1-.011l7.158-1.684a.407.407,0,0,0,.2-.11l15.711-15.709A4.285,4.285,0,0,0,183.5,255.6" transform="translate(-162.912 -255.577)" fill="#5271FF"/>
  </g>
  <path id="Path_4052" data-name="Path 4052" d="M672.516,312.327a.413.413,0,0,0,0,.585,1.346,1.346,0,0,1,0,1.9.414.414,0,1,0,.585.585,2.173,2.173,0,0,0,0-3.068.414.414,0,0,0-.585,0" transform="translate(-650.007 -309.702)" fill="#5271FF"/>
</svg>
