<svg xmlns="http://www.w3.org/2000/svg" width="41.618" height="22.001" viewBox="0 0 41.618 22.001">
  <g id="Group_8751" data-name="Group 8751" transform="translate(-1592 -610.999)">
    <path id="Path_5986" data-name="Path 5986" d="M43.176,300.855,62.837,295.9l-17.069-4.958L21.219,295.1l21.957,5.758" transform="translate(1570.781 320.061)" fill="#545454"/>
    <path id="Path_5985" data-name="Path 5985" d="M43.62,294.432c-5.489-1.439-22.4-.8-22.4-.8v2.079l21.957,5.758,19.662-4.958v-2.079H43.62" transform="translate(1570.781 321.525)" fill="#545454"/>
    <path id="Path_5984" data-name="Path 5984" d="M39.58,300.482,27.832,297.4v6.2s3.768,3.2,11.262,3.2a22.028,22.028,0,0,0,11.992-3.2v-6.239l-11.506,3.12" transform="translate(1574.376 323.553)" fill="#545454"/>
    <path id="Path_5987" data-name="Path 5987" d="M47.443,307.173l-.678.156-.321-3.468.027,3.663h-.749v-1.89l-.333,1.714-.943-.175,1.276-6.273h1.043l.678,6.273" transform="translate(1583.407 325.477)" fill="#545454"/>
    <path id="Path_5988" data-name="Path 5988" d="M46.2,304.384H45.31v-9.364H46.2v9.364" transform="translate(1583.877 322.279)" fill="#545454"/>
  </g>
</svg>
