<svg xmlns="http://www.w3.org/2000/svg" xmlns:xlink="http://www.w3.org/1999/xlink" width="27.908" height="24.032" viewBox="0 0 27.908 24.032">
  <defs>
    <clipPath id="clip-path">
      <path id="Path_4069" data-name="Path 4069" d="M243,535.68h27.908v24.032H243Zm0,0" transform="translate(-243 -535.68)" fill="#545454"/>
    </clipPath>
  </defs>
  <g id="Group_4263" data-name="Group 4263" clip-path="url(#clip-path)">
    <path id="Path_4068" data-name="Path 4068" d="M266.1,540.485H263.88a4.818,4.818,0,0,0-4.806-4.8h-4.24a4.819,4.819,0,0,0-4.806,4.8h-2.221A4.818,4.818,0,0,0,243,545.3v9.63a4.817,4.817,0,0,0,4.806,4.819h18.3a4.818,4.818,0,0,0,4.806-4.819V545.3A4.818,4.818,0,0,0,266.1,540.485Zm-18.3,1.386h3.6v-1.365a3.432,3.432,0,0,1,3.424-3.433h4.24a3.432,3.432,0,0,1,3.424,3.433v1.365h3.6a3.432,3.432,0,0,1,3.424,3.433v4.041h-9.578a1.681,1.681,0,0,0-1.59-1.147h-2.2a1.682,1.682,0,0,0-1.59,1.147H244.382V545.3A3.432,3.432,0,0,1,247.806,541.871Zm7.517,7.76a.874.874,0,0,1,.836-.625h2.2a.875.875,0,0,1,0,1.75h-2.2a.874.874,0,0,1-.836-.625Zm10.779,8.735h-18.3a3.432,3.432,0,0,1-3.424-3.433v-4.78H254.5a1.682,1.682,0,0,0,1.655,1.411h2.2a1.682,1.682,0,0,0,1.655-1.411h9.513v4.78A3.432,3.432,0,0,1,266.1,558.366Zm0,0" transform="translate(-243 -535.687)" fill="#545454"/>
  </g>
</svg>
