<svg xmlns="http://www.w3.org/2000/svg" width="43.761" height="27.074" viewBox="0 0 43.761 27.074">
  <g id="Group_4847" data-name="Group 4847" transform="translate(-6073 9814.074)">
    <path id="Path_4229" data-name="Path 4229" d="M43.176,300.855,62.837,295.9l-17.069-4.958L21.219,295.1l21.957,5.758" transform="translate(6051.781 -10099.939)" fill="#545454"/>
    <path id="Path_4230" data-name="Path 4230" d="M43.312,295.063l-22.093-1.431v2.079l21.957,5.758,19.662-4.958v-2.079l-19.525.631" transform="translate(6051.781 -10098.475)" fill="#545454"/>
    <path id="Path_4231" data-name="Path 4231" d="M39.58,300.482,27.832,297.4v6.2s3.768,3.2,11.262,3.2a22.028,22.028,0,0,0,11.992-3.2v-6.239l-11.506,3.12" transform="translate(6055.376 -10096.447)" fill="#545454"/>
    <path id="Path_4232" data-name="Path 4232" d="M47.443,307.173l-.678.156-.321-3.468.027,3.663h-.749v-1.89l-.333,1.714-.943-.175,1.276-6.273h1.043l.678,6.273" transform="translate(6064.407 -10094.523)" fill="#545454"/>
    <path id="Path_4233" data-name="Path 4233" d="M46.739,301.18a.805.805,0,1,1-.806-.795.8.8,0,0,1,.806.795" transform="translate(6064.778 -10094.805)" fill="#545454"/>
    <path id="Path_4234" data-name="Path 4234" d="M46.2,304.384H45.31v-9.364H46.2v9.364" transform="translate(6064.877 -10097.721)" fill="#545454"/>
    <g id="Group_4845" data-name="Group 4845" transform="translate(-0.313 -0.873)">
      <line id="Line_228" data-name="Line 228" y2="6.074" transform="translate(6113.537 -9812.701)" fill="none" stroke="#545454" stroke-linecap="round" stroke-width="1"/>
      <line id="Line_229" data-name="Line 229" y2="6.074" transform="translate(6116.574 -9809.664) rotate(90)" fill="none" stroke="#545454" stroke-linecap="round" stroke-width="1"/>
    </g>
  </g>
</svg>
