<svg xmlns="http://www.w3.org/2000/svg" width="24.817" height="24.817" viewBox="0 0 24.817 24.817">
  <g id="surface1" transform="translate(-270 -270)">
    <path id="Path_4235" data-name="Path 4235" d="M361.241,378A1.242,1.242,0,0,0,360,379.241a.4.4,0,0,0,.007.074l.7,3.871a1.239,1.239,0,0,0,1.178,1.018l1.834.344v7.613c-.223-.058-.446-.12-.662-.191l-.263.784c.269.09.548.171.826.239l.1-.4v1.329a137.62,137.62,0,0,1,3.516,1.448,1.449,1.449,0,0,0,1.448-1.448v-9.375l1.891-.345a1.244,1.244,0,0,0,1.156-.914l1.074-3.94a.419.419,0,0,0,.015-.109,1.241,1.241,0,0,0-2.48-.064l-.642,2.246a.414.414,0,0,1-.4.3h-1.455a2.047,2.047,0,0,0,.424-1.241,2.068,2.068,0,0,0-4.136,0,2.047,2.047,0,0,0,.424,1.241H363.2a.415.415,0,0,1-.409-.355l-.309-2.159A1.243,1.243,0,0,0,361.241,378Zm3.723,2.482a1.241,1.241,0,1,1,1.241,1.241A1.242,1.242,0,0,1,364.963,380.482ZM363.2,382.55h6.1a1.247,1.247,0,0,0,1.193-.9l.656-2.3a.424.424,0,0,0,.016-.114.414.414,0,0,1,.825-.046l-1.058,3.878a.414.414,0,0,1-.4.3.406.406,0,0,0-.075.007l-2.264.414a.413.413,0,0,0-.339.407v9.72a.62.62,0,1,1-1.241,0V388.34h-.827v5.584a.62.62,0,1,1-1.241,0V384.2a.414.414,0,0,0-.337-.407l-2.2-.414a.432.432,0,0,0-.076-.007.414.414,0,0,1-.407-.34l-.7-3.828a.414.414,0,0,1,.826.031.431.431,0,0,0,0,.059l.312,2.185A1.247,1.247,0,0,0,363.2,382.55Zm0,0" transform="translate(-83.796 -100.555)" fill="#545454"/>
    <path id="Path_4236" data-name="Path 4236" d="M273.723,277.445A3.723,3.723,0,1,0,270,273.723,3.727,3.727,0,0,0,273.723,277.445Zm0-6.618a2.9,2.9,0,1,1-2.9,2.9A2.9,2.9,0,0,1,273.723,270.827Zm0,0" fill="#545454"/>
    <path id="Path_4237" data-name="Path 4237" d="M312.414,302.482h1.654v-.827h-1.241V300H312v2.068A.414.414,0,0,0,312.414,302.482Zm0,0" transform="translate(-39.105 -27.932)" fill="#545454"/>
    <path id="Path_4238" data-name="Path 4238" d="M495.513,274.136H495.1v-3.723a.414.414,0,0,0-.414-.414h-7.445a.414.414,0,0,0-.414.414v3.723h-.414a.414.414,0,0,0-.414.414,2.07,2.07,0,0,0,2.068,2.068h5.791a2.07,2.07,0,0,0,2.068-2.068A.414.414,0,0,0,495.513,274.136Zm-7.859-3.309h6.618v3.309h-6.618Zm6.2,4.963h-5.791a1.243,1.243,0,0,1-1.17-.827h8.131A1.243,1.243,0,0,1,493.859,275.791Zm0,0" transform="translate(-201.11)" fill="#545454"/>
    <path id="Path_4239" data-name="Path 4239" d="M528,300h.827v1.241H528Zm0,0" transform="translate(-240.215 -27.932)" fill="#545454"/>
    <path id="Path_4240" data-name="Path 4240" d="M552,294h.827v1.654H552Zm0,0" transform="translate(-262.56 -22.346)" fill="#545454"/>
    <path id="Path_4241" data-name="Path 4241" d="M576,300h.827v1.241H576Zm0,0" transform="translate(-284.906 -27.932)" fill="#545454"/>
    <path id="Path_4242" data-name="Path 4242" d="M270.414,518.272H276.2a.414.414,0,0,0,.414-.414v-5.791a.414.414,0,0,0-.155-.323l-2.068-1.654a.413.413,0,0,0-.259-.09h-3.723a.414.414,0,0,0-.414.414v7.445A.414.414,0,0,0,270.414,518.272Zm.414-7.445h3.164l1.8,1.439v5.179h-4.963Zm0,0" transform="translate(0 -223.455)" fill="#545454"/>
    <path id="Path_4243" data-name="Path 4243" d="M502.55,498a4.544,4.544,0,0,0-2.737,8.176s0,.006.006.008.036.024.054.037c.074.054.148.106.224.155.036.024.073.045.11.067.074.045.148.09.225.131s.133.065.2.1c.084.039.168.076.255.11s.177.069.268.1c.047.015.094.028.141.041.088.025.177.049.267.069.048.011.1.02.144.029.1.018.191.032.288.044.044.005.086.012.13.016.141.013.282.022.424.022s.284-.008.424-.022c.043,0,.086-.01.13-.016.1-.012.193-.026.288-.044l.144-.029c.09-.02.178-.043.267-.069.047-.013.095-.026.141-.041.09-.029.179-.063.268-.1s.171-.072.255-.11c.067-.031.135-.062.2-.1s.151-.086.225-.131c.037-.022.074-.044.11-.067.077-.049.151-.1.224-.155.018-.013.036-.024.054-.037s0-.006.006-.008A4.544,4.544,0,0,0,502.55,498Zm-2.068,7.64v-1.022a1.656,1.656,0,0,1,1.654-1.654h.827a1.656,1.656,0,0,1,1.654,1.654v1.022a3.6,3.6,0,0,1-.48.272h0a3.778,3.778,0,0,1-3.174,0h0A3.614,3.614,0,0,1,500.482,505.64Zm2.068-3.5a.827.827,0,1,1,.827-.827A.828.828,0,0,1,502.55,502.136Zm2.9,2.748v-.266a2.483,2.483,0,0,0-1.584-2.311,1.638,1.638,0,0,0,.343-1,1.654,1.654,0,0,0-3.309,0,1.638,1.638,0,0,0,.343,1,2.483,2.483,0,0,0-1.584,2.311v.266a3.723,3.723,0,1,1,5.791,0Zm0,0" transform="translate(-212.283 -212.283)" fill="#545454"/>
    <path id="Path_4244" data-name="Path 4244" d="M294,540h2.9v.827H294Zm0,0" transform="translate(-22.346 -251.387)" fill="#545454"/>
    <path id="Path_4245" data-name="Path 4245" d="M294,564h3.309v.827H294Zm0,0" transform="translate(-22.346 -273.733)" fill="#545454"/>
    <path id="Path_4246" data-name="Path 4246" d="M294,588h3.309v.827H294Zm0,0" transform="translate(-22.346 -296.078)" fill="#545454"/>
    <path id="Path_4247" data-name="Path 4247" d="M471.705,289.758c-.28-.064-.564-.116-.845-.157l-.118.819c.259.037.522.086.781.145Zm0,0" transform="translate(-186.904 -18.25)" fill="#545454"/>
    <path id="Path_4248" data-name="Path 4248" d="M376.942,301.987l-.334-.756c-.26.115-.521.242-.772.379l.393.728C376.462,302.211,376.7,302.093,376.942,301.987Zm0,0" transform="translate(-98.54 -29.078)" fill="#545454"/>
    <path id="Path_4249" data-name="Path 4249" d="M447.749,288.827q.323,0,.64.02l.053-.826q-.344-.021-.693-.022h-.167l.013.827Zm0,0" transform="translate(-165.34 -16.759)" fill="#545454"/>
    <path id="Path_4250" data-name="Path 4250" d="M399.684,293.816l-.208-.8c-.275.072-.552.156-.823.25l.272.782C399.174,293.96,399.43,293.883,399.684,293.816Zm0,0" transform="translate(-119.784 -21.429)" fill="#545454"/>
    <path id="Path_4251" data-name="Path 4251" d="M423.708,289.519l-.078-.823c-.285.027-.571.066-.852.115l.143.815C423.179,289.58,423.444,289.544,423.708,289.519Zm0,0" transform="translate(-142.246 -17.407)" fill="#545454"/>
    <path id="Path_4252" data-name="Path 4252" d="M301.443,485.688c-.095-.245-.181-.5-.255-.751l-.793.234c.081.274.174.548.277.815Zm0,0" transform="translate(-28.299 -200.121)" fill="#545454"/>
    <path id="Path_4253" data-name="Path 4253" d="M294.953,415.116l.822.091c.029-.262.069-.526.119-.785l-.812-.157C295.029,414.545,294.985,414.831,294.953,415.116Zm0,0" transform="translate(-23.233 -134.321)" fill="#545454"/>
    <path id="Path_4254" data-name="Path 4254" d="M294,439.374q0,.26.012.517l.826-.039c-.007-.158-.011-.318-.011-.479q0-.158,0-.315l-.826-.027C294,439.145,294,439.259,294,439.374Zm0,0" transform="translate(-22.346 -157.379)" fill="#545454"/>
    <path id="Path_4255" data-name="Path 4255" d="M296.214,463.2c-.054-.259-.1-.523-.131-.783l-.821.1c.036.282.084.567.143.848Zm0,0" transform="translate(-23.52 -179.15)" fill="#545454"/>
    <path id="Path_4256" data-name="Path 4256" d="M300.728,390.519l-.776-.285c-.1.269-.188.545-.264.819l.8.222C300.555,391.022,300.636,390.768,300.728,390.519Zm0,0" transform="translate(-27.641 -111.946)" fill="#545454"/>
    <path id="Path_4257" data-name="Path 4257" d="M377.652,572.346c.253.133.515.257.777.369l.324-.761c-.242-.1-.483-.218-.717-.34Zm0,0" transform="translate(-100.231 -280.821)" fill="#545454"/>
    <path id="Path_4258" data-name="Path 4258" d="M589.828,470.961l.8.2c.05-.2.093-.4.131-.609l-.813-.152Q589.9,470.683,589.828,470.961Zm0,0" transform="translate(-297.781 -186.584)" fill="#545454"/>
    <path id="Path_4259" data-name="Path 4259" d="M592.691,423.025c.036.262.061.528.075.79l.826-.044c-.015-.284-.043-.573-.081-.857Zm0,0" transform="translate(-300.446 -142.373)" fill="#545454"/>
    <path id="Path_4260" data-name="Path 4260" d="M594.108,447.535l-.827-.019c-.006.261-.023.528-.05.793l.823.084C594.083,448.106,594.1,447.817,594.108,447.535Zm0,0" transform="translate(-300.948 -165.278)" fill="#545454"/>
    <path id="Path_4261" data-name="Path 4261" d="M579.355,375.713c.116.236.224.481.32.725l.77-.3c-.1-.266-.222-.531-.348-.787Zm0,0" transform="translate(-288.03 -98.085)" fill="#545454"/>
    <path id="Path_4262" data-name="Path 4262" d="M587.8,398.785c.076.249.144.508.2.768l.808-.177c-.062-.282-.135-.562-.217-.833Zm0,0" transform="translate(-295.889 -119.682)" fill="#545454"/>
  </g>
</svg>
