<svg xmlns="http://www.w3.org/2000/svg" xmlns:xlink="http://www.w3.org/1999/xlink" width="28.064" height="21.44" viewBox="0 0 28.064 21.44">
  <defs>
    <clipPath id="clip-path">
      <path id="Path_4056" data-name="Path 4056" d="M244,552.082h28.064v21.44H244Zm0,0" transform="translate(-244 -552.082)" fill="#545454"/>
    </clipPath>
  </defs>
  <g id="surface1" transform="translate(-244 -552.082)">
    <path id="Path_4053" data-name="Path 4053" d="M447.945,619.844a3.012,3.012,0,1,1,3.008-3.012A3.016,3.016,0,0,1,447.945,619.844Zm0-5.347a2.335,2.335,0,1,0,2.332,2.335A2.338,2.338,0,0,0,447.945,614.5Zm0,0" transform="translate(-183.425 -56.357)" fill="#545454"/>
    <path id="Path_4054" data-name="Path 4054" d="M428.146,606.187l-2.264-4.061a1.106,1.106,0,0,0,.642-.406,1.525,1.525,0,0,0,.169-1.015,2.53,2.53,0,0,1,0-.508,2.08,2.08,0,0,1,.27-.406,1.59,1.59,0,0,0,.473-.948,1.425,1.425,0,0,0-.473-.948,1.409,1.409,0,0,1-.27-.406,1.275,1.275,0,0,1,0-.508,1.525,1.525,0,0,0-.169-1.015,1.419,1.419,0,0,0-.912-.474,1.557,1.557,0,0,1-.473-.169,1.4,1.4,0,0,1-.3-.406,1.394,1.394,0,0,0-.744-.711,1.624,1.624,0,0,0-.98.135,1.623,1.623,0,0,1-.507.135,1.9,1.9,0,0,1-.507-.135,1.248,1.248,0,0,0-.98-.135,1.393,1.393,0,0,0-.743.711,2.118,2.118,0,0,1-.3.406,1.556,1.556,0,0,1-.473.169,1.417,1.417,0,0,0-.912.474,1.522,1.522,0,0,0-.169,1.015,2.53,2.53,0,0,1,0,.508,2.084,2.084,0,0,1-.27.406,1.592,1.592,0,0,0-.473.948,1.5,1.5,0,0,0,.473.948,1.409,1.409,0,0,1,.27.406,1.275,1.275,0,0,1,0,.508,1.522,1.522,0,0,0,.169,1.015,1.293,1.293,0,0,0,.811.44l-2.23,4.027a.307.307,0,0,0,0,.338.354.354,0,0,0,.3.169l1.453-.1.676,1.286a.358.358,0,0,0,.608,0l2.433-4.3,2.365,4.264a.358.358,0,0,0,.608,0l.676-1.286,1.453.1a.354.354,0,0,0,.3-.169A.252.252,0,0,0,428.146,606.187Zm-8.921-5.449a2.748,2.748,0,0,0-.034-.745,1.482,1.482,0,0,0-.405-.609c-.135-.169-.3-.372-.3-.508s.169-.338.3-.508a1.746,1.746,0,0,0,.405-.609,1.846,1.846,0,0,0,.034-.744,1.438,1.438,0,0,1,.034-.575.885.885,0,0,1,.507-.2,2.553,2.553,0,0,0,.709-.271,1.953,1.953,0,0,0,.473-.575c.135-.2.237-.406.372-.44h.067a1.448,1.448,0,0,1,.473.136,1.463,1.463,0,0,0,1.487,0,1.262,1.262,0,0,1,.541-.136c.135.034.236.237.371.44a1.958,1.958,0,0,0,.473.575,2.558,2.558,0,0,0,.71.271c.236.068.439.1.507.2a1.007,1.007,0,0,1,.034.575,2.748,2.748,0,0,0,.034.744,1.487,1.487,0,0,0,.405.609c.135.169.3.372.3.508s-.169.338-.3.508a1.745,1.745,0,0,0-.405.609,1.839,1.839,0,0,0-.034.745,1.436,1.436,0,0,1-.034.575.883.883,0,0,1-.507.2,2.577,2.577,0,0,0-.71.271,1.967,1.967,0,0,0-.473.575c-.135.2-.236.406-.371.44a1.383,1.383,0,0,1-.541-.135,3.294,3.294,0,0,0-.541-.169c-.067,0-.135-.034-.2-.034a1.875,1.875,0,0,0-.744.2,1.262,1.262,0,0,1-.541.135c-.135-.034-.237-.237-.372-.44a1.962,1.962,0,0,0-.473-.575,2.572,2.572,0,0,0-.709-.271c-.237-.068-.44-.1-.507-.2A1.438,1.438,0,0,1,419.225,600.738Zm.845,6.261-.507-.913a.4.4,0,0,0-.3-.169l-1.048.034,1.96-3.553a1.467,1.467,0,0,1,.237.338,1.391,1.391,0,0,0,.744.711.739.739,0,0,0,.27.034,1.721,1.721,0,0,0,.709-.2Zm6.151-1.117a.317.317,0,0,0-.3.169l-.507.914-1.96-3.553a1.139,1.139,0,0,0,.676.034,1.391,1.391,0,0,0,.744-.711,2.122,2.122,0,0,1,.3-.406.124.124,0,0,1,.1-.034l2.028,3.655Zm0,0" transform="translate(-158.117 -38.402)" fill="#545454"/>
    <g id="Group_4260" data-name="Group 4260" transform="translate(244 552.082)" clip-path="url(#clip-path)">
      <path id="Path_4055" data-name="Path 4055" d="M270.685,573.537H245.543a1.443,1.443,0,0,1-1.453-1.455V553.537a1.443,1.443,0,0,1,1.453-1.455h25.142a1.443,1.443,0,0,1,1.453,1.455v18.545A1.488,1.488,0,0,1,270.685,573.537Zm-25.142-20.779a.765.765,0,0,0-.777.778v18.545a.765.765,0,0,0,.777.778h25.142a.765.765,0,0,0,.777-.778V553.537a.765.765,0,0,0-.777-.778Zm0,0" transform="translate(-244.082 -552.082)" fill="#545454"/>
    </g>
    <path id="Path_4057" data-name="Path 4057" d="M284.721,587H262.046a1.285,1.285,0,0,1-1.284-1.286V569.677a1.285,1.285,0,0,1,1.284-1.286h22.675a1.285,1.285,0,0,1,1.284,1.286v16.041A1.285,1.285,0,0,1,284.721,587Zm-22.675-18.274a.968.968,0,0,0-.946.948v16.041a.968.968,0,0,0,.946.948h22.675a.968.968,0,0,0,.946-.948V569.677a.968.968,0,0,0-.946-.948Zm0,0" transform="translate(-15.301 -14.887)" fill="#545454"/>
    <path id="Path_4059" data-name="Path 4059" d="M295.228,699.923h-9.7a.338.338,0,0,1,0-.677h9.7a.338.338,0,0,1,0,.677Zm0,0" transform="translate(-37.601 -133.338)" fill="#545454"/>
    <path id="Path_4061" data-name="Path 4061" d="M290.666,729.431h-5.137a.338.338,0,0,1,0-.677h5.137a.338.338,0,0,1,0,.677Zm0,0" transform="translate(-37.601 -160.274)" fill="#545454"/>
    <g id="Group_4849" data-name="Group 4849" transform="translate(-5860.281 10370.311)">
      <line id="Line_228" data-name="Line 228" y2="5.482" transform="translate(6113.241 -9812.701)" fill="none" stroke="#545454" stroke-linecap="round" stroke-width="1"/>
      <line id="Line_229" data-name="Line 229" y2="5.482" transform="translate(6115.982 -9809.96) rotate(90)" fill="none" stroke="#545454" stroke-linecap="round" stroke-width="1"/>
    </g>
  </g>
</svg>
