<svg id="Group_7" data-name="Group 7" xmlns="http://www.w3.org/2000/svg" xmlns:xlink="http://www.w3.org/1999/xlink" width="87.774" height="87.774" viewBox="0 0 87.774 87.774">
  <defs>
    <clipPath id="clip-path">
      <rect id="Rectangle_8" data-name="Rectangle 8" width="52.412" height="20.965" fill="none"/>
    </clipPath>
  </defs>
  <circle id="Ellipse_1" data-name="Ellipse 1" cx="43.887" cy="43.887" r="43.887" fill="#1a1d3d"/>
  <g id="Group_11" data-name="Group 11" transform="translate(17.452 33.317)">
    <g id="Group_11-2" data-name="Group 11" clip-path="url(#clip-path)">
      <path id="Path_5" data-name="Path 5" d="M299.352,530.88h-2.68v-.753h2.68v.753m-5.381,0h-6.487v-.753h6.487Zm-9.189,0H278.3v-.753h6.485Zm-9.187,0h-6.487v-.753H275.6Zm-9.189,0h-6.485v-.753h6.485Z" transform="translate(-246.991 -514.414)" fill="#fff"/>
      <path id="Path_6" data-name="Path 6" d="M258.836,527.825a.274.274,0,0,1-.09-.184.278.278,0,0,1,.062-.2,3.25,3.25,0,0,0,.7-2.388,3.163,3.163,0,0,0-1.19-2.176,2.9,2.9,0,0,0-1.805-.625,2.976,2.976,0,0,0-2.17.951,3.242,3.242,0,0,0,.2,4.588,2.971,2.971,0,0,0,1.382.695,3.721,3.721,0,0,1,2.578,1.879l.268.487a4.148,4.148,0,0,0,.671.9l.056.06,1.8-1.785-2.47-2.206m-.986-1.232a1.707,1.707,0,0,1-2.48.2,1.89,1.89,0,0,1-.194-2.586,1.709,1.709,0,0,1,2.478-.2A1.89,1.89,0,0,1,257.849,526.593Z" transform="translate(-253.399 -522.258)" fill="#fff"/>
      <path id="Path_7" data-name="Path 7" d="M266.205,533.027l-5.679-5.055-2.16,1.913,3.093,3.142h4.745" transform="translate(-248.542 -516.561)" fill="#fff"/>
      <path id="Path_8" data-name="Path 8" d="M256.514,543.1a2.968,2.968,0,0,1-2.18-.96,3.24,3.24,0,0,1,.224-4.586,2.955,2.955,0,0,1,1.386-.689A3.723,3.723,0,0,0,258.526,535l.272-.487a4.127,4.127,0,0,1,.675-.9l8.031-8.079a10.559,10.559,0,0,1,7.436-3.165.394.394,0,0,1,.375.271.421.421,0,0,1-.116.455l-16.357,14.446a.276.276,0,0,0-.03.378,3.246,3.246,0,0,1,.695,2.394,3.154,3.154,0,0,1-1.2,2.168,2.9,2.9,0,0,1-1.8.617h0m-.006-4.978a1.72,1.72,0,0,0-1.136.433,1.893,1.893,0,0,0-.206,2.586,1.733,1.733,0,0,0,1.344.649,1.7,1.7,0,0,0,1.134-.435,1.845,1.845,0,0,0,.617-1.248,1.877,1.877,0,0,0-.411-1.336A1.72,1.72,0,0,0,256.508,538.125Z" transform="translate(-253.403 -522.142)" fill="#fff"/>
    </g>
  </g>
</svg>
