<svg id="Group_482" data-name="Group 482" xmlns="http://www.w3.org/2000/svg" xmlns:xlink="http://www.w3.org/1999/xlink" width="87.774" height="87.774" viewBox="0 0 87.774 87.774">
  <defs>
    <clipPath id="clip-path">
      <rect id="Rectangle_9" data-name="Rectangle 9" width="34.507" height="28.557" fill="none"/>
    </clipPath>
  </defs>
  <g id="Group_7" data-name="Group 7">
    <circle id="Ellipse_1" data-name="Ellipse 1" cx="43.887" cy="43.887" r="43.887" fill="#1a1d3d"/>
  </g>
  <g id="Group_16" data-name="Group 16" transform="translate(25.384 31.73)">
    <g id="Group_13" data-name="Group 13" transform="translate(0 0)" clip-path="url(#clip-path)">
      <path id="Path_9" data-name="Path 9" d="M504.88,544.138a.709.709,0,0,0-.3.882l.5,1.236-2.117-1.05a.715.715,0,0,0-.32-.076.724.724,0,0,0-.194.027,11.809,11.809,0,0,1-3.181.438c-5.148,0-9.337-3.2-9.337-7.139s4.188-7.139,9.337-7.139,9.337,3.2,9.337,7.139A6.7,6.7,0,0,1,504.88,544.138Zm-18.226-4.347a12.851,12.851,0,0,1-3.156-.758.73.73,0,0,0-.614.048l-2.032,1.155.7-1.4a.71.71,0,0,0-.249-.917,8.783,8.783,0,0,1-4.31-7.318c0-5.118,4.994-9.281,11.131-9.281,4.905,0,9.3,2.743,10.649,6.555l.351,2.015c-5.88.059-10.639,3.874-10.639,8.562a6.928,6.928,0,0,0,.157,1.409Zm23.376-1.337c0-4.366-4.128-7.971-9.44-8.5l-.432-2.438c-1.606-4.563-6.441-7.626-12.034-7.626-6.932,0-12.568,4.8-12.568,10.709a10.063,10.063,0,0,0,4.433,8.151l-1.483,2.951a.711.711,0,0,0,.149.838.724.724,0,0,0,.493.2.686.686,0,0,0,.354-.1l3.8-2.159a14.477,14.477,0,0,0,3.243.728l2.567.094c1.483,3.324,5.464,5.715,10.146,5.715a13.25,13.25,0,0,0,3.3-.417l3.56,1.771a.721.721,0,0,0,.809-.113.716.716,0,0,0,.179-.792l-.976-2.426A8.036,8.036,0,0,0,510.03,538.453Z" transform="translate(-475.541 -519.892)" fill="#fff"/>
    </g>
  </g>
</svg>
