<svg xmlns="http://www.w3.org/2000/svg" width="15.387" height="18.58" viewBox="0 0 15.387 18.58">
  <g id="approved" transform="translate(-44)">
    <g id="Group_7502" data-name="Group 7502" transform="translate(44 6.06)">
      <g id="Group_7501" data-name="Group 7501">
        <path id="Path_5108" data-name="Path 5108" d="M44.619,167.106a.363.363,0,1,0,.106.257A.365.365,0,0,0,44.619,167.106Z" transform="translate(-44 -167)" fill="#fff"/>
      </g>
    </g>
    <g id="Group_7504" data-name="Group 7504" transform="translate(44)">
      <g id="Group_7503" data-name="Group 7503">
        <path id="Path_5109" data-name="Path 5109" d="M58.3,0H50.955a.363.363,0,1,0,0,.726H58.3a.363.363,0,0,1,.363.363v16.4a.363.363,0,0,1-.363.363H45.089a.363.363,0,0,1-.363-.363V7.778a.363.363,0,1,0-.726,0v9.713a1.09,1.09,0,0,0,1.089,1.089H58.3a1.09,1.09,0,0,0,1.089-1.089V1.089A1.09,1.09,0,0,0,58.3,0Z" transform="translate(-44)" fill="#fff"/>
      </g>
    </g>
    <g id="Group_7506" data-name="Group 7506" transform="translate(46.928 1.452)">
      <g id="Group_7505" data-name="Group 7505">
        <path id="Path_5110" data-name="Path 5110" d="M129.461,40a4.884,4.884,0,0,0-.738.056.363.363,0,1,0,.11.717,4.151,4.151,0,0,1,.628-.048,4.1,4.1,0,0,1,3.136,6.739A3.636,3.636,0,0,0,130.7,45.88a1.773,1.773,0,0,0,.536-1.271v-.354a1.778,1.778,0,1,0-3.556,0v.354a1.773,1.773,0,0,0,.536,1.271,3.637,3.637,0,0,0-1.9,1.592,4.087,4.087,0,0,1-.9-1.961.363.363,0,0,0-.716.12,4.827,4.827,0,1,0,4.76-5.63Zm-1.052,4.255a1.052,1.052,0,1,1,2.1,0v.354a1.052,1.052,0,0,1-2.1,0Zm1.052,4.672a4.1,4.1,0,0,1-2.6-.925,2.9,2.9,0,0,1,5.2-.006A4.082,4.082,0,0,1,129.461,48.927Z" transform="translate(-124.696 -40)" fill="#fff"/>
      </g>
    </g>
    <g id="Group_7508" data-name="Group 7508" transform="translate(49.529 14.443)">
      <g id="Group_7507" data-name="Group 7507">
        <path id="Path_5111" data-name="Path 5111" d="M201.873,398H196.72a.363.363,0,0,0,0,.726h5.153a.363.363,0,1,0,0-.726Z" transform="translate(-196.357 -398.002)" fill="#fff"/>
      </g>
    </g>
    <g id="Group_7510" data-name="Group 7510" transform="translate(47.979 12.411)">
      <g id="Group_7509" data-name="Group 7509">
        <path id="Path_5112" data-name="Path 5112" d="M154.259,342.106a.363.363,0,1,0,.106.257A.365.365,0,0,0,154.259,342.106Z" transform="translate(-153.64 -342)" fill="#fff"/>
      </g>
    </g>
    <g id="Group_7512" data-name="Group 7512" transform="translate(47.979 14.443)">
      <g id="Group_7511" data-name="Group 7511">
        <path id="Path_5113" data-name="Path 5113" d="M154.259,398.106a.363.363,0,1,0,.106.257A.365.365,0,0,0,154.259,398.106Z" transform="translate(-153.64 -398)" fill="#fff"/>
      </g>
    </g>
    <g id="Group_7514" data-name="Group 7514" transform="translate(49.529 12.411)">
      <g id="Group_7513" data-name="Group 7513">
        <path id="Path_5114" data-name="Path 5114" d="M201.873,342H196.72a.363.363,0,1,0,0,.726h5.153a.363.363,0,1,0,0-.726Z" transform="translate(-196.357 -342.002)" fill="#fff"/>
      </g>
    </g>
    <g id="Group_7516" data-name="Group 7516" transform="translate(45.55 1.985)">
      <g id="Group_7515" data-name="Group 7515">
        <path id="Path_5115" data-name="Path 5115" d="M89.435,54.807a.363.363,0,0,0-.513,0L87.74,55.989l-.4-.4a.363.363,0,0,0-.513.513l.66.66a.363.363,0,0,0,.513,0l1.438-1.438A.363.363,0,0,0,89.435,54.807Z" transform="translate(-86.716 -54.701)" fill="#fff"/>
      </g>
    </g>
    <g id="Group_7518" data-name="Group 7518" transform="translate(44)">
      <g id="Group_7517" data-name="Group 7517">
        <path id="Path_5116" data-name="Path 5116" d="M46.976,0a2.976,2.976,0,1,0,2.976,2.976A2.979,2.979,0,0,0,46.976,0Zm0,5.226a2.25,2.25,0,1,1,2.25-2.25A2.252,2.252,0,0,1,46.976,5.226Z" transform="translate(-44)" fill="#fff"/>
      </g>
    </g>
  </g>
</svg>
