<svg id="suitcase" xmlns="http://www.w3.org/2000/svg" width="17.271" height="14.392" viewBox="0 0 17.271 14.392">
  <path id="Path_225" data-name="Path 225" d="M13.037,5.238a.72.72,0,0,1-.72-.72V3.439H9.439V4.519A.72.72,0,0,1,8,4.519V3.439A1.441,1.441,0,0,1,9.439,2h2.878a1.441,1.441,0,0,1,1.439,1.439V4.519A.72.72,0,0,1,13.037,5.238Z" transform="translate(-2.243 -2)" fill="#fff"/>
  <path id="Path_226" data-name="Path 226" d="M9.146,14.326a1.482,1.482,0,0,1-.511.086,1.577,1.577,0,0,1-.554-.1L0,11.62v5.491A1.978,1.978,0,0,0,1.979,19.09H15.292a1.978,1.978,0,0,0,1.979-1.979V11.62Z" transform="translate(0 -4.697)" fill="#fff"/>
  <path id="Path_227" data-name="Path 227" d="M17.271,6.979V8.627L8.808,11.448a.533.533,0,0,1-.345,0L0,8.627V6.979A1.978,1.978,0,0,1,1.979,5H15.292A1.978,1.978,0,0,1,17.271,6.979Z" transform="translate(0 -2.841)" fill="#fff"/>
</svg>
