<svg xmlns="http://www.w3.org/2000/svg" width="23.402" height="22.427" viewBox="0 0 23.402 22.427">
  <g id="paper-plane" transform="translate(0 0)">
    <path id="Path_6422" data-name="Path 6422" d="M8.75,17.612V22.25a.75.75,0,0,0,1.354.444L12.817,19Z" transform="translate(-0.262 -0.573)" fill="#5271FF"/>
    <path id="Path_6423" data-name="Path 6423" d="M23.1.135a.734.734,0,0,0-.763-.052L.393,11.5a.728.728,0,0,0,.1,1.336l6.1,2.077L19.583,3.845,9.532,15.908l10.222,3.48a.751.751,0,0,0,.236.039.73.73,0,0,0,.724-.621L23.395.836a.729.729,0,0,0-.3-.7Z" transform="translate(0 0)" fill="#5271FF"/>
  </g>
</svg>
