<svg xmlns="http://www.w3.org/2000/svg" width="28" height="28" viewBox="0 0 28 28">
  <g id="Group_4803" data-name="Group 4803" transform="translate(-891.888 -166.624)">
    <g id="Group_4802" data-name="Group 4802" transform="translate(891.888 166.624)">
      <path id="Path_4041" data-name="Path 4041" d="M1913,1306.959a14,14,0,1,1-14.056,13.854A13.986,13.986,0,0,1,1913,1306.959Zm3.137,21.079-.182-.236c-.334.066-.666.158-1,.192-1.132.115-1.625-.415-1.424-1.537.1-.54.244-1.07.365-1.605.324-1.431.748-2.849.938-4.3a2.026,2.026,0,0,0-1.779-2.283,6.36,6.36,0,0,0-3.526.562.843.843,0,0,0-.651,1.087c.326-.074.6-.162.89-.2,1.214-.146,1.635.234,1.488,1.438a18.014,18.014,0,0,1-.475,2.108c-.278,1.121-.643,2.226-.836,3.361a2.108,2.108,0,0,0,2.006,2.747,10.94,10.94,0,0,0,3.259-.53C1915.561,1328.757,1915.828,1328.317,1916.136,1328.038Zm-1.975-11.695a1.99,1.99,0,1,0-2.077-1.988A2.039,2.039,0,0,0,1914.161,1316.343Z" transform="translate(-1898.943 -1306.959)" fill="#545454"/>
    </g>
  </g>
</svg>
