<svg xmlns="http://www.w3.org/2000/svg" width="28" height="28" viewBox="0 0 28 28">
  <path id="Path_4042" data-name="Path 4042" d="M28.113,236.493a1.838,1.838,0,1,0,2.049,1.826A1.951,1.951,0,0,0,28.113,236.493Zm11.974-6.829-1.175,3.614L35.156,238.4a1.051,1.051,0,0,0,.255,1.5,1.359,1.359,0,0,0,1.794-.209l3.99-4.736,1-2Zm6.978-6.771-.7,3.29,3.82,2.778a1.236,1.236,0,0,0,1.58-.134.926.926,0,0,0-.149-1.407l-3.906-2.93Zm-4.759-4.052a2.33,2.33,0,0,0-1.878.895l-5.294,7.209a.941.941,0,0,0-.042,1.009l-1.814,2.339L31.037,228.9a2.13,2.13,0,0,0-2.732.437l-3.863,4.927a1.99,1.99,0,0,0-.384,1.616,2.078,2.078,0,0,0,.9,1.293,3.424,3.424,0,0,1,3.159-1.9,3.626,3.626,0,0,1,2.327.818l5.827-7.513a1.234,1.234,0,0,0,.917-.495l4.12-5.307-.79,3.785a4.053,4.053,0,0,0,.6,3.081l6.317,9.891a1.393,1.393,0,0,0,1.174.609,1.241,1.241,0,0,0,1.259-1.713l-4.717-9.72,1.345-6.39a3.057,3.057,0,0,0-3.245-3.482Zm3.565-6.695a3.064,3.064,0,1,0,3.415,3.044A3.246,3.246,0,0,0,45.871,212.146Z" transform="translate(-24.019 -212.146)" fill="#545454"/>
</svg>
