<svg xmlns="http://www.w3.org/2000/svg" width="28" height="28" viewBox="0 0 28 28">
  <path id="Path_50" data-name="Path 50" d="M28.149,169.209h-13.9A1.047,1.047,0,0,1,13.2,168.16a6.94,6.94,0,0,1,3.044-5.745,1.792,1.792,0,0,1,1.911-.04,5.97,5.97,0,0,0,6.089,0,1.792,1.792,0,0,1,1.911.04A6.946,6.946,0,0,1,29.2,168.16a1.049,1.049,0,0,1-1.051,1.049Zm-6.949-16a4.012,4.012,0,1,1-1.531.305A3.95,3.95,0,0,1,21.2,153.209Zm10.32-6H10.88a3.686,3.686,0,0,0-3.68,3.68v20.64a3.684,3.684,0,0,0,3.68,3.68H31.52a3.684,3.684,0,0,0,3.68-3.68v-20.64a3.686,3.686,0,0,0-3.68-3.68Z" transform="translate(-7.2 -147.209)" fill="#545454"/>
</svg>
